M48
; DRILL file {KiCad (5.1.2)-1} date 10/4/2020 5:45:01 PM
; FORMAT={-:-/ absolute / inch / decimal}
; #@! TF.CreationDate,2020-10-04T17:45:01-05:00
; #@! TF.GenerationSoftware,Kicad,Pcbnew,(5.1.2)-1
; #@! TF.FileFunction,Plated,1,2,PTH
FMAT,2
INCH
T1C0.0157
T2C0.0354
T3C0.0394
T4C0.0500
T5C0.1000
%
G90
G05
T1
X4.83Y-3.32
X4.83Y-3.4
X5.025Y-3.195
X5.04Y-2.895
X5.04Y-2.97
X5.18Y-2.95
X5.24Y-2.89
X5.33Y-2.94
X5.78Y-2.66
X5.93Y-2.66
X5.95Y-2.98
X5.99Y-2.98
X6.04Y-3.06
X6.17Y-2.87
X6.17Y-2.96
X6.3Y-3.37
X6.32Y-3.27
X6.33Y-3.17
T2
X6.56Y-2.77
X6.56Y-2.87
X6.56Y-2.97
X6.56Y-3.07
X6.56Y-3.17
X6.56Y-3.27
X6.56Y-3.37
X4.67Y-2.68
X4.67Y-2.78
T3
X4.84Y-2.48
X4.84Y-2.58
X4.94Y-2.48
X4.94Y-2.58
X5.04Y-2.48
X5.04Y-2.58
X5.14Y-2.48
X5.14Y-2.58
X5.24Y-2.48
X5.24Y-2.58
X5.34Y-2.48
X5.34Y-2.58
X5.44Y-2.48
X5.44Y-2.58
X5.54Y-2.48
X5.54Y-2.58
X5.64Y-2.48
X5.64Y-2.58
X5.74Y-2.48
X5.74Y-2.58
X5.84Y-2.48
X5.84Y-2.58
X5.94Y-2.48
X5.94Y-2.58
X6.04Y-2.48
X6.04Y-2.58
X6.14Y-2.48
X6.14Y-2.58
X6.24Y-2.48
X6.24Y-2.58
X6.34Y-2.48
X6.34Y-2.58
X6.44Y-2.48
X6.44Y-2.58
X6.54Y-2.48
X6.54Y-2.58
X6.64Y-2.48
X6.64Y-2.58
X6.74Y-2.48
X6.74Y-2.58
T4
X6.93Y-2.53
T5
X4.67Y-3.17
X4.67Y-3.48
T0
M30
