G04 #@! TF.GenerationSoftware,KiCad,Pcbnew,(5.1.2)-1*
G04 #@! TF.CreationDate,2020-10-04T17:45:05-05:00*
G04 #@! TF.ProjectId,Senior Design,53656e69-6f72-4204-9465-7369676e2e6b,rev?*
G04 #@! TF.SameCoordinates,Original*
G04 #@! TF.FileFunction,Legend,Top*
G04 #@! TF.FilePolarity,Positive*
%FSLAX46Y46*%
G04 Gerber Fmt 4.6, Leading zero omitted, Abs format (unit mm)*
G04 Created by KiCad (PCBNEW (5.1.2)-1) date 2020-10-04 17:45:05*
%MOMM*%
%LPD*%
G04 APERTURE LIST*
%ADD10C,0.150000*%
%ADD11C,0.120000*%
G04 APERTURE END LIST*
D10*
X191897000Y-68199000D02*
X179603400Y-68199000D01*
X204216000Y-68199000D02*
X196469000Y-68199000D01*
X194183000Y-62611000D02*
X194183000Y-65887600D01*
X191897000Y-60325000D02*
X179603400Y-60325000D01*
X194183000Y-62611000D02*
X194183000Y-61468000D01*
X194183000Y-67056000D02*
X194183000Y-65887600D01*
X191922400Y-68199000D02*
X193014600Y-68199000D01*
X195326000Y-68199000D02*
G75*
G03X194183000Y-67056000I-1143000J0D01*
G01*
X194183000Y-67056000D02*
G75*
G03X193040000Y-68199000I0J-1143000D01*
G01*
X195326000Y-68199000D02*
X196545200Y-68199000D01*
X179603400Y-60325000D02*
X179603400Y-68199000D01*
X204241400Y-68199000D02*
X204241400Y-60350400D01*
X193116200Y-60325000D02*
G75*
G03X194183000Y-61391800I1066800J0D01*
G01*
X193116200Y-60325000D02*
X191897000Y-60325000D01*
X194132200Y-61391800D02*
G75*
G03X195249800Y-60375800I50800J1066800D01*
G01*
X204241400Y-60325000D02*
X195249800Y-60325000D01*
X127219000Y-72325000D02*
X128294000Y-72325000D01*
X127219000Y-69200000D02*
X123969000Y-69200000D01*
X127219000Y-72450000D02*
X123969000Y-72450000D01*
X127219000Y-69200000D02*
X127219000Y-69425000D01*
X123969000Y-69200000D02*
X123969000Y-69425000D01*
X123969000Y-72450000D02*
X123969000Y-72225000D01*
X127219000Y-72450000D02*
X127219000Y-72325000D01*
X165354000Y-69088000D02*
X167894000Y-69088000D01*
X165354000Y-86868000D02*
X165354000Y-69088000D01*
X167894000Y-86868000D02*
X165354000Y-86868000D01*
X167894000Y-69088000D02*
X167894000Y-81788000D01*
X171704000Y-79248000D02*
X174244000Y-79248000D01*
X171704000Y-76708000D02*
X171704000Y-79248000D01*
X174244000Y-76708000D02*
X171704000Y-76708000D01*
X175514000Y-71628000D02*
X179324000Y-71628000D01*
X174244000Y-84328000D02*
X179832000Y-84328000D01*
X174244000Y-71628000D02*
X174244000Y-84328000D01*
X175514000Y-71628000D02*
X174244000Y-71628000D01*
X167894000Y-69088000D02*
X167894000Y-67183000D01*
X167894000Y-81788000D02*
X167894000Y-88773000D01*
X167894000Y-88773000D02*
X179832000Y-88773000D01*
X167894000Y-67183000D02*
X179832000Y-67183000D01*
X179832000Y-67183000D02*
X179832000Y-88773000D01*
X179832000Y-71628000D02*
X179324000Y-71628000D01*
X102743000Y-76581000D02*
X115036600Y-76581000D01*
X90424000Y-76581000D02*
X98171000Y-76581000D01*
X98171000Y-92329000D02*
X90424000Y-92329000D01*
X102743000Y-92329000D02*
X115036600Y-92329000D01*
X101600000Y-84455000D02*
G75*
G03X101600000Y-84455000I-1143000J0D01*
G01*
X100457000Y-82169000D02*
X100457000Y-78892400D01*
X102743000Y-84455000D02*
X115036600Y-84455000D01*
X100457000Y-86741000D02*
X100457000Y-90043000D01*
X102743000Y-84455000D02*
X101600000Y-84455000D01*
X100457000Y-82169000D02*
X100457000Y-83312000D01*
X90424000Y-84429600D02*
X99314000Y-84429600D01*
X100457000Y-86741000D02*
X100457000Y-85598000D01*
X100457000Y-77724000D02*
X100457000Y-78892400D01*
X102717600Y-76581000D02*
X101625400Y-76581000D01*
X98145600Y-92329000D02*
X99314000Y-92329000D01*
X100457000Y-90017600D02*
X100457000Y-91186000D01*
X102768400Y-92329000D02*
X101574600Y-92329000D01*
X99314000Y-76581000D02*
G75*
G03X100457000Y-77724000I1143000J0D01*
G01*
X100457000Y-77724000D02*
G75*
G03X101600000Y-76581000I0J1143000D01*
G01*
X99314000Y-76581000D02*
X98094800Y-76581000D01*
X115036600Y-76581000D02*
X115036600Y-92329000D01*
X90398600Y-76581000D02*
X90398600Y-92329000D01*
X100457000Y-91211400D02*
G75*
G03X99339400Y-92329000I0J-1117600D01*
G01*
X101574600Y-92329000D02*
G75*
G03X100457000Y-91211400I-1117600J0D01*
G01*
X131108000Y-79238000D02*
X129358000Y-79238000D01*
X131108000Y-84993000D02*
X136608000Y-84993000D01*
X131108000Y-78583000D02*
X136608000Y-78583000D01*
X131108000Y-84993000D02*
X131108000Y-84243000D01*
X136608000Y-84993000D02*
X136608000Y-84243000D01*
X136608000Y-78583000D02*
X136608000Y-79333000D01*
X131108000Y-78583000D02*
X131108000Y-79238000D01*
D11*
X142132000Y-75096000D02*
X143032000Y-75096000D01*
X142132000Y-75096000D02*
X143032000Y-75096000D01*
X142132000Y-75096000D02*
X142132000Y-75096000D01*
X146312000Y-70256000D02*
X146792000Y-70256000D01*
X144012000Y-70256000D02*
X144532000Y-70256000D01*
X141752000Y-70256000D02*
X142232000Y-70256000D01*
X145512000Y-75096000D02*
X146792000Y-75096000D01*
X141752000Y-75096000D02*
X143032000Y-75096000D01*
X146792000Y-75096000D02*
X146792000Y-70256000D01*
X141752000Y-75096000D02*
X141752000Y-70256000D01*
X151099733Y-85854000D02*
X151442267Y-85854000D01*
X151099733Y-84834000D02*
X151442267Y-84834000D01*
X151442267Y-82929000D02*
X151099733Y-82929000D01*
X151442267Y-83949000D02*
X151099733Y-83949000D01*
X130497733Y-73916000D02*
X130840267Y-73916000D01*
X130497733Y-72896000D02*
X130840267Y-72896000D01*
X131146733Y-70360000D02*
X131489267Y-70360000D01*
X131146733Y-69340000D02*
X131489267Y-69340000D01*
X132021733Y-72138000D02*
X132364267Y-72138000D01*
X132021733Y-71118000D02*
X132364267Y-71118000D01*
X137980267Y-70102000D02*
X137637733Y-70102000D01*
X137980267Y-71122000D02*
X137637733Y-71122000D01*
X137637733Y-69344000D02*
X137980267Y-69344000D01*
X137637733Y-68324000D02*
X137980267Y-68324000D01*
X125393267Y-83818000D02*
X125050733Y-83818000D01*
X125393267Y-84838000D02*
X125050733Y-84838000D01*
X126769000Y-81561000D02*
X124309000Y-81561000D01*
X126769000Y-83031000D02*
X126769000Y-81561000D01*
X124309000Y-83031000D02*
X126769000Y-83031000D01*
D10*
X117348000Y-73787000D02*
X117348000Y-64897000D01*
X117348000Y-64897000D02*
X105410000Y-64897000D01*
X119888000Y-66802000D02*
X119888000Y-71882000D01*
X105410000Y-73787000D02*
X105410000Y-64897000D01*
X117348000Y-73787000D02*
X105410000Y-73787000D01*
X117348000Y-66802000D02*
X119888000Y-66802000D01*
X119888000Y-71882000D02*
X117348000Y-71882000D01*
D11*
X151085733Y-81917000D02*
X151428267Y-81917000D01*
X151085733Y-80897000D02*
X151428267Y-80897000D01*
X151428267Y-78865000D02*
X151085733Y-78865000D01*
X151428267Y-79885000D02*
X151085733Y-79885000D01*
X125417733Y-74043000D02*
X125760267Y-74043000D01*
X125417733Y-73023000D02*
X125760267Y-73023000D01*
X125445733Y-75948000D02*
X125788267Y-75948000D01*
X125445733Y-74928000D02*
X125788267Y-74928000D01*
X125036733Y-86870000D02*
X125379267Y-86870000D01*
X125036733Y-85850000D02*
X125379267Y-85850000D01*
X131503267Y-67562000D02*
X131160733Y-67562000D01*
X131503267Y-68582000D02*
X131160733Y-68582000D01*
X137637733Y-75186000D02*
X137980267Y-75186000D01*
X137637733Y-74166000D02*
X137980267Y-74166000D01*
X137637733Y-72900000D02*
X137980267Y-72900000D01*
X137637733Y-71880000D02*
X137980267Y-71880000D01*
X125280267Y-79373000D02*
X124937733Y-79373000D01*
X125280267Y-80393000D02*
X124937733Y-80393000D01*
D10*
X125086095Y-67483380D02*
X125086095Y-68292904D01*
X125133714Y-68388142D01*
X125181333Y-68435761D01*
X125276571Y-68483380D01*
X125467047Y-68483380D01*
X125562285Y-68435761D01*
X125609904Y-68388142D01*
X125657523Y-68292904D01*
X125657523Y-67483380D01*
X126038476Y-67483380D02*
X126657523Y-67483380D01*
X126324190Y-67864333D01*
X126467047Y-67864333D01*
X126562285Y-67911952D01*
X126609904Y-67959571D01*
X126657523Y-68054809D01*
X126657523Y-68292904D01*
X126609904Y-68388142D01*
X126562285Y-68435761D01*
X126467047Y-68483380D01*
X126181333Y-68483380D01*
X126086095Y-68435761D01*
X126038476Y-68388142D01*
X133096095Y-77110380D02*
X133096095Y-77919904D01*
X133143714Y-78015142D01*
X133191333Y-78062761D01*
X133286571Y-78110380D01*
X133477047Y-78110380D01*
X133572285Y-78062761D01*
X133619904Y-78015142D01*
X133667523Y-77919904D01*
X133667523Y-77110380D01*
X134096095Y-77205619D02*
X134143714Y-77158000D01*
X134238952Y-77110380D01*
X134477047Y-77110380D01*
X134572285Y-77158000D01*
X134619904Y-77205619D01*
X134667523Y-77300857D01*
X134667523Y-77396095D01*
X134619904Y-77538952D01*
X134048476Y-78110380D01*
X134667523Y-78110380D01*
X143676761Y-77160380D02*
X143343428Y-76684190D01*
X143105333Y-77160380D02*
X143105333Y-76160380D01*
X143486285Y-76160380D01*
X143581523Y-76208000D01*
X143629142Y-76255619D01*
X143676761Y-76350857D01*
X143676761Y-76493714D01*
X143629142Y-76588952D01*
X143581523Y-76636571D01*
X143486285Y-76684190D01*
X143105333Y-76684190D01*
X143962476Y-76160380D02*
X144295809Y-77160380D01*
X144629142Y-76160380D01*
X145486285Y-77160380D02*
X144914857Y-77160380D01*
X145200571Y-77160380D02*
X145200571Y-76160380D01*
X145105333Y-76303238D01*
X145010095Y-76398476D01*
X144914857Y-76446095D01*
X148169333Y-85669380D02*
X147836000Y-85193190D01*
X147597904Y-85669380D02*
X147597904Y-84669380D01*
X147978857Y-84669380D01*
X148074095Y-84717000D01*
X148121714Y-84764619D01*
X148169333Y-84859857D01*
X148169333Y-85002714D01*
X148121714Y-85097952D01*
X148074095Y-85145571D01*
X147978857Y-85193190D01*
X147597904Y-85193190D01*
X148502666Y-84669380D02*
X149169333Y-84669380D01*
X148740761Y-85669380D01*
X148056333Y-83891380D02*
X147723000Y-83415190D01*
X147484904Y-83891380D02*
X147484904Y-82891380D01*
X147865857Y-82891380D01*
X147961095Y-82939000D01*
X148008714Y-82986619D01*
X148056333Y-83081857D01*
X148056333Y-83224714D01*
X148008714Y-83319952D01*
X147961095Y-83367571D01*
X147865857Y-83415190D01*
X147484904Y-83415190D01*
X148913476Y-82891380D02*
X148723000Y-82891380D01*
X148627761Y-82939000D01*
X148580142Y-82986619D01*
X148484904Y-83129476D01*
X148437285Y-83319952D01*
X148437285Y-83700904D01*
X148484904Y-83796142D01*
X148532523Y-83843761D01*
X148627761Y-83891380D01*
X148818238Y-83891380D01*
X148913476Y-83843761D01*
X148961095Y-83796142D01*
X149008714Y-83700904D01*
X149008714Y-83462809D01*
X148961095Y-83367571D01*
X148913476Y-83319952D01*
X148818238Y-83272333D01*
X148627761Y-83272333D01*
X148532523Y-83319952D01*
X148484904Y-83367571D01*
X148437285Y-83462809D01*
X133296333Y-73858380D02*
X132963000Y-73382190D01*
X132724904Y-73858380D02*
X132724904Y-72858380D01*
X133105857Y-72858380D01*
X133201095Y-72906000D01*
X133248714Y-72953619D01*
X133296333Y-73048857D01*
X133296333Y-73191714D01*
X133248714Y-73286952D01*
X133201095Y-73334571D01*
X133105857Y-73382190D01*
X132724904Y-73382190D01*
X134201095Y-72858380D02*
X133724904Y-72858380D01*
X133677285Y-73334571D01*
X133724904Y-73286952D01*
X133820142Y-73239333D01*
X134058238Y-73239333D01*
X134153476Y-73286952D01*
X134201095Y-73334571D01*
X134248714Y-73429809D01*
X134248714Y-73667904D01*
X134201095Y-73763142D01*
X134153476Y-73810761D01*
X134058238Y-73858380D01*
X133820142Y-73858380D01*
X133724904Y-73810761D01*
X133677285Y-73763142D01*
X133804333Y-70302380D02*
X133471000Y-69826190D01*
X133232904Y-70302380D02*
X133232904Y-69302380D01*
X133613857Y-69302380D01*
X133709095Y-69350000D01*
X133756714Y-69397619D01*
X133804333Y-69492857D01*
X133804333Y-69635714D01*
X133756714Y-69730952D01*
X133709095Y-69778571D01*
X133613857Y-69826190D01*
X133232904Y-69826190D01*
X134661476Y-69635714D02*
X134661476Y-70302380D01*
X134423380Y-69254761D02*
X134185285Y-69969047D01*
X134804333Y-69969047D01*
X134820333Y-72080380D02*
X134487000Y-71604190D01*
X134248904Y-72080380D02*
X134248904Y-71080380D01*
X134629857Y-71080380D01*
X134725095Y-71128000D01*
X134772714Y-71175619D01*
X134820333Y-71270857D01*
X134820333Y-71413714D01*
X134772714Y-71508952D01*
X134725095Y-71556571D01*
X134629857Y-71604190D01*
X134248904Y-71604190D01*
X135153666Y-71080380D02*
X135772714Y-71080380D01*
X135439380Y-71461333D01*
X135582238Y-71461333D01*
X135677476Y-71508952D01*
X135725095Y-71556571D01*
X135772714Y-71651809D01*
X135772714Y-71889904D01*
X135725095Y-71985142D01*
X135677476Y-72032761D01*
X135582238Y-72080380D01*
X135296523Y-72080380D01*
X135201285Y-72032761D01*
X135153666Y-71985142D01*
X140295333Y-71064380D02*
X139962000Y-70588190D01*
X139723904Y-71064380D02*
X139723904Y-70064380D01*
X140104857Y-70064380D01*
X140200095Y-70112000D01*
X140247714Y-70159619D01*
X140295333Y-70254857D01*
X140295333Y-70397714D01*
X140247714Y-70492952D01*
X140200095Y-70540571D01*
X140104857Y-70588190D01*
X139723904Y-70588190D01*
X140676285Y-70159619D02*
X140723904Y-70112000D01*
X140819142Y-70064380D01*
X141057238Y-70064380D01*
X141152476Y-70112000D01*
X141200095Y-70159619D01*
X141247714Y-70254857D01*
X141247714Y-70350095D01*
X141200095Y-70492952D01*
X140628666Y-71064380D01*
X141247714Y-71064380D01*
X140295333Y-69286380D02*
X139962000Y-68810190D01*
X139723904Y-69286380D02*
X139723904Y-68286380D01*
X140104857Y-68286380D01*
X140200095Y-68334000D01*
X140247714Y-68381619D01*
X140295333Y-68476857D01*
X140295333Y-68619714D01*
X140247714Y-68714952D01*
X140200095Y-68762571D01*
X140104857Y-68810190D01*
X139723904Y-68810190D01*
X141247714Y-69286380D02*
X140676285Y-69286380D01*
X140962000Y-69286380D02*
X140962000Y-68286380D01*
X140866761Y-68429238D01*
X140771523Y-68524476D01*
X140676285Y-68572095D01*
X122515333Y-84780380D02*
X122039142Y-84780380D01*
X122039142Y-83780380D01*
X123372476Y-84780380D02*
X122801047Y-84780380D01*
X123086761Y-84780380D02*
X123086761Y-83780380D01*
X122991523Y-83923238D01*
X122896285Y-84018476D01*
X122801047Y-84066095D01*
X121830904Y-82748380D02*
X121830904Y-81748380D01*
X122069000Y-81748380D01*
X122211857Y-81796000D01*
X122307095Y-81891238D01*
X122354714Y-81986476D01*
X122402333Y-82176952D01*
X122402333Y-82319809D01*
X122354714Y-82510285D01*
X122307095Y-82605523D01*
X122211857Y-82700761D01*
X122069000Y-82748380D01*
X121830904Y-82748380D01*
X123354714Y-82748380D02*
X122783285Y-82748380D01*
X123069000Y-82748380D02*
X123069000Y-81748380D01*
X122973761Y-81891238D01*
X122878523Y-81986476D01*
X122783285Y-82034095D01*
X148155333Y-81764142D02*
X148107714Y-81811761D01*
X147964857Y-81859380D01*
X147869619Y-81859380D01*
X147726761Y-81811761D01*
X147631523Y-81716523D01*
X147583904Y-81621285D01*
X147536285Y-81430809D01*
X147536285Y-81287952D01*
X147583904Y-81097476D01*
X147631523Y-81002238D01*
X147726761Y-80907000D01*
X147869619Y-80859380D01*
X147964857Y-80859380D01*
X148107714Y-80907000D01*
X148155333Y-80954619D01*
X148631523Y-81859380D02*
X148822000Y-81859380D01*
X148917238Y-81811761D01*
X148964857Y-81764142D01*
X149060095Y-81621285D01*
X149107714Y-81430809D01*
X149107714Y-81049857D01*
X149060095Y-80954619D01*
X149012476Y-80907000D01*
X148917238Y-80859380D01*
X148726761Y-80859380D01*
X148631523Y-80907000D01*
X148583904Y-80954619D01*
X148536285Y-81049857D01*
X148536285Y-81287952D01*
X148583904Y-81383190D01*
X148631523Y-81430809D01*
X148726761Y-81478428D01*
X148917238Y-81478428D01*
X149012476Y-81430809D01*
X149060095Y-81383190D01*
X149107714Y-81287952D01*
X148042333Y-79732142D02*
X147994714Y-79779761D01*
X147851857Y-79827380D01*
X147756619Y-79827380D01*
X147613761Y-79779761D01*
X147518523Y-79684523D01*
X147470904Y-79589285D01*
X147423285Y-79398809D01*
X147423285Y-79255952D01*
X147470904Y-79065476D01*
X147518523Y-78970238D01*
X147613761Y-78875000D01*
X147756619Y-78827380D01*
X147851857Y-78827380D01*
X147994714Y-78875000D01*
X148042333Y-78922619D01*
X148613761Y-79255952D02*
X148518523Y-79208333D01*
X148470904Y-79160714D01*
X148423285Y-79065476D01*
X148423285Y-79017857D01*
X148470904Y-78922619D01*
X148518523Y-78875000D01*
X148613761Y-78827380D01*
X148804238Y-78827380D01*
X148899476Y-78875000D01*
X148947095Y-78922619D01*
X148994714Y-79017857D01*
X148994714Y-79065476D01*
X148947095Y-79160714D01*
X148899476Y-79208333D01*
X148804238Y-79255952D01*
X148613761Y-79255952D01*
X148518523Y-79303571D01*
X148470904Y-79351190D01*
X148423285Y-79446428D01*
X148423285Y-79636904D01*
X148470904Y-79732142D01*
X148518523Y-79779761D01*
X148613761Y-79827380D01*
X148804238Y-79827380D01*
X148899476Y-79779761D01*
X148947095Y-79732142D01*
X148994714Y-79636904D01*
X148994714Y-79446428D01*
X148947095Y-79351190D01*
X148899476Y-79303571D01*
X148804238Y-79255952D01*
X122769333Y-73763142D02*
X122721714Y-73810761D01*
X122578857Y-73858380D01*
X122483619Y-73858380D01*
X122340761Y-73810761D01*
X122245523Y-73715523D01*
X122197904Y-73620285D01*
X122150285Y-73429809D01*
X122150285Y-73286952D01*
X122197904Y-73096476D01*
X122245523Y-73001238D01*
X122340761Y-72906000D01*
X122483619Y-72858380D01*
X122578857Y-72858380D01*
X122721714Y-72906000D01*
X122769333Y-72953619D01*
X123102666Y-72858380D02*
X123769333Y-72858380D01*
X123340761Y-73858380D01*
X122769333Y-75795142D02*
X122721714Y-75842761D01*
X122578857Y-75890380D01*
X122483619Y-75890380D01*
X122340761Y-75842761D01*
X122245523Y-75747523D01*
X122197904Y-75652285D01*
X122150285Y-75461809D01*
X122150285Y-75318952D01*
X122197904Y-75128476D01*
X122245523Y-75033238D01*
X122340761Y-74938000D01*
X122483619Y-74890380D01*
X122578857Y-74890380D01*
X122721714Y-74938000D01*
X122769333Y-74985619D01*
X123626476Y-74890380D02*
X123436000Y-74890380D01*
X123340761Y-74938000D01*
X123293142Y-74985619D01*
X123197904Y-75128476D01*
X123150285Y-75318952D01*
X123150285Y-75699904D01*
X123197904Y-75795142D01*
X123245523Y-75842761D01*
X123340761Y-75890380D01*
X123531238Y-75890380D01*
X123626476Y-75842761D01*
X123674095Y-75795142D01*
X123721714Y-75699904D01*
X123721714Y-75461809D01*
X123674095Y-75366571D01*
X123626476Y-75318952D01*
X123531238Y-75271333D01*
X123340761Y-75271333D01*
X123245523Y-75318952D01*
X123197904Y-75366571D01*
X123150285Y-75461809D01*
X122501333Y-86717142D02*
X122453714Y-86764761D01*
X122310857Y-86812380D01*
X122215619Y-86812380D01*
X122072761Y-86764761D01*
X121977523Y-86669523D01*
X121929904Y-86574285D01*
X121882285Y-86383809D01*
X121882285Y-86240952D01*
X121929904Y-86050476D01*
X121977523Y-85955238D01*
X122072761Y-85860000D01*
X122215619Y-85812380D01*
X122310857Y-85812380D01*
X122453714Y-85860000D01*
X122501333Y-85907619D01*
X123406095Y-85812380D02*
X122929904Y-85812380D01*
X122882285Y-86288571D01*
X122929904Y-86240952D01*
X123025142Y-86193333D01*
X123263238Y-86193333D01*
X123358476Y-86240952D01*
X123406095Y-86288571D01*
X123453714Y-86383809D01*
X123453714Y-86621904D01*
X123406095Y-86717142D01*
X123358476Y-86764761D01*
X123263238Y-86812380D01*
X123025142Y-86812380D01*
X122929904Y-86764761D01*
X122882285Y-86717142D01*
X133818333Y-68429142D02*
X133770714Y-68476761D01*
X133627857Y-68524380D01*
X133532619Y-68524380D01*
X133389761Y-68476761D01*
X133294523Y-68381523D01*
X133246904Y-68286285D01*
X133199285Y-68095809D01*
X133199285Y-67952952D01*
X133246904Y-67762476D01*
X133294523Y-67667238D01*
X133389761Y-67572000D01*
X133532619Y-67524380D01*
X133627857Y-67524380D01*
X133770714Y-67572000D01*
X133818333Y-67619619D01*
X134675476Y-67857714D02*
X134675476Y-68524380D01*
X134437380Y-67476761D02*
X134199285Y-68191047D01*
X134818333Y-68191047D01*
X140295333Y-75033142D02*
X140247714Y-75080761D01*
X140104857Y-75128380D01*
X140009619Y-75128380D01*
X139866761Y-75080761D01*
X139771523Y-74985523D01*
X139723904Y-74890285D01*
X139676285Y-74699809D01*
X139676285Y-74556952D01*
X139723904Y-74366476D01*
X139771523Y-74271238D01*
X139866761Y-74176000D01*
X140009619Y-74128380D01*
X140104857Y-74128380D01*
X140247714Y-74176000D01*
X140295333Y-74223619D01*
X140628666Y-74128380D02*
X141247714Y-74128380D01*
X140914380Y-74509333D01*
X141057238Y-74509333D01*
X141152476Y-74556952D01*
X141200095Y-74604571D01*
X141247714Y-74699809D01*
X141247714Y-74937904D01*
X141200095Y-75033142D01*
X141152476Y-75080761D01*
X141057238Y-75128380D01*
X140771523Y-75128380D01*
X140676285Y-75080761D01*
X140628666Y-75033142D01*
X140295333Y-72747142D02*
X140247714Y-72794761D01*
X140104857Y-72842380D01*
X140009619Y-72842380D01*
X139866761Y-72794761D01*
X139771523Y-72699523D01*
X139723904Y-72604285D01*
X139676285Y-72413809D01*
X139676285Y-72270952D01*
X139723904Y-72080476D01*
X139771523Y-71985238D01*
X139866761Y-71890000D01*
X140009619Y-71842380D01*
X140104857Y-71842380D01*
X140247714Y-71890000D01*
X140295333Y-71937619D01*
X140676285Y-71937619D02*
X140723904Y-71890000D01*
X140819142Y-71842380D01*
X141057238Y-71842380D01*
X141152476Y-71890000D01*
X141200095Y-71937619D01*
X141247714Y-72032857D01*
X141247714Y-72128095D01*
X141200095Y-72270952D01*
X140628666Y-72842380D01*
X141247714Y-72842380D01*
X122402333Y-80240142D02*
X122354714Y-80287761D01*
X122211857Y-80335380D01*
X122116619Y-80335380D01*
X121973761Y-80287761D01*
X121878523Y-80192523D01*
X121830904Y-80097285D01*
X121783285Y-79906809D01*
X121783285Y-79763952D01*
X121830904Y-79573476D01*
X121878523Y-79478238D01*
X121973761Y-79383000D01*
X122116619Y-79335380D01*
X122211857Y-79335380D01*
X122354714Y-79383000D01*
X122402333Y-79430619D01*
X123354714Y-80335380D02*
X122783285Y-80335380D01*
X123069000Y-80335380D02*
X123069000Y-79335380D01*
X122973761Y-79478238D01*
X122878523Y-79573476D01*
X122783285Y-79621095D01*
M02*
