G04 #@! TF.GenerationSoftware,KiCad,Pcbnew,(5.1.2)-1*
G04 #@! TF.CreationDate,2020-10-04T17:45:05-05:00*
G04 #@! TF.ProjectId,Senior Design,53656e69-6f72-4204-9465-7369676e2e6b,rev?*
G04 #@! TF.SameCoordinates,Original*
G04 #@! TF.FileFunction,Soldermask,Top*
G04 #@! TF.FilePolarity,Negative*
%FSLAX46Y46*%
G04 Gerber Fmt 4.6, Leading zero omitted, Abs format (unit mm)*
G04 Created by KiCad (PCBNEW (5.1.2)-1) date 2020-10-04 17:45:05*
%MOMM*%
%LPD*%
G04 APERTURE LIST*
%ADD10C,0.100000*%
G04 APERTURE END LIST*
D10*
G36*
X119062579Y-86486112D02*
G01*
X119188544Y-86511168D01*
X119335991Y-86572243D01*
X119544512Y-86658615D01*
X119575562Y-86679362D01*
X119864877Y-86872676D01*
X120137324Y-87145123D01*
X120280355Y-87359184D01*
X120351385Y-87465488D01*
X120498832Y-87821457D01*
X120574000Y-88199349D01*
X120574000Y-88584651D01*
X120498832Y-88962543D01*
X120351385Y-89318512D01*
X120351384Y-89318513D01*
X120137324Y-89638877D01*
X119864877Y-89911324D01*
X119650816Y-90054355D01*
X119544512Y-90125385D01*
X119335991Y-90211757D01*
X119188544Y-90272832D01*
X119062579Y-90297888D01*
X118810651Y-90348000D01*
X118425349Y-90348000D01*
X118173421Y-90297888D01*
X118047456Y-90272832D01*
X117900009Y-90211757D01*
X117691488Y-90125385D01*
X117585184Y-90054355D01*
X117371123Y-89911324D01*
X117098676Y-89638877D01*
X116884616Y-89318513D01*
X116884615Y-89318512D01*
X116737168Y-88962543D01*
X116662000Y-88584651D01*
X116662000Y-88199349D01*
X116737168Y-87821457D01*
X116884615Y-87465488D01*
X116955645Y-87359184D01*
X117098676Y-87145123D01*
X117371123Y-86872676D01*
X117660438Y-86679362D01*
X117691488Y-86658615D01*
X117900009Y-86572243D01*
X118047456Y-86511168D01*
X118173421Y-86486112D01*
X118425349Y-86436000D01*
X118810651Y-86436000D01*
X119062579Y-86486112D01*
X119062579Y-86486112D01*
G37*
G36*
X175778039Y-85160250D02*
G01*
X175967372Y-85238675D01*
X176101251Y-85294129D01*
X176392134Y-85488491D01*
X176639509Y-85735866D01*
X176833871Y-86026749D01*
X176833871Y-86026750D01*
X176967750Y-86349961D01*
X177036000Y-86693078D01*
X177036000Y-87042922D01*
X176967750Y-87386039D01*
X176934841Y-87465487D01*
X176833871Y-87709251D01*
X176639509Y-88000134D01*
X176392134Y-88247509D01*
X176101251Y-88441871D01*
X175967372Y-88497325D01*
X175778039Y-88575750D01*
X175434922Y-88644000D01*
X175085078Y-88644000D01*
X174741961Y-88575750D01*
X174552628Y-88497325D01*
X174418749Y-88441871D01*
X174127866Y-88247509D01*
X173880491Y-88000134D01*
X173686129Y-87709251D01*
X173585159Y-87465487D01*
X173552250Y-87386039D01*
X173484000Y-87042922D01*
X173484000Y-86693078D01*
X173552250Y-86349961D01*
X173686129Y-86026750D01*
X173686129Y-86026749D01*
X173880491Y-85735866D01*
X174127866Y-85488491D01*
X174418749Y-85294129D01*
X174552628Y-85238675D01*
X174741961Y-85160250D01*
X175085078Y-85092000D01*
X175434922Y-85092000D01*
X175778039Y-85160250D01*
X175778039Y-85160250D01*
G37*
G36*
X124747499Y-85838445D02*
G01*
X124784995Y-85849820D01*
X124819554Y-85868292D01*
X124849847Y-85893153D01*
X124874708Y-85923446D01*
X124893180Y-85958005D01*
X124904555Y-85995501D01*
X124909000Y-86040638D01*
X124909000Y-86679362D01*
X124904555Y-86724499D01*
X124893180Y-86761995D01*
X124874708Y-86796554D01*
X124849847Y-86826847D01*
X124819554Y-86851708D01*
X124784995Y-86870180D01*
X124747499Y-86881555D01*
X124702362Y-86886000D01*
X123963638Y-86886000D01*
X123918501Y-86881555D01*
X123881005Y-86870180D01*
X123846446Y-86851708D01*
X123816153Y-86826847D01*
X123791292Y-86796554D01*
X123772820Y-86761995D01*
X123761445Y-86724499D01*
X123757000Y-86679362D01*
X123757000Y-86040638D01*
X123761445Y-85995501D01*
X123772820Y-85958005D01*
X123791292Y-85923446D01*
X123816153Y-85893153D01*
X123846446Y-85868292D01*
X123881005Y-85849820D01*
X123918501Y-85838445D01*
X123963638Y-85834000D01*
X124702362Y-85834000D01*
X124747499Y-85838445D01*
X124747499Y-85838445D01*
G37*
G36*
X126497499Y-85838445D02*
G01*
X126534995Y-85849820D01*
X126569554Y-85868292D01*
X126599847Y-85893153D01*
X126624708Y-85923446D01*
X126643180Y-85958005D01*
X126654555Y-85995501D01*
X126659000Y-86040638D01*
X126659000Y-86679362D01*
X126654555Y-86724499D01*
X126643180Y-86761995D01*
X126624708Y-86796554D01*
X126599847Y-86826847D01*
X126569554Y-86851708D01*
X126534995Y-86870180D01*
X126497499Y-86881555D01*
X126452362Y-86886000D01*
X125713638Y-86886000D01*
X125668501Y-86881555D01*
X125631005Y-86870180D01*
X125596446Y-86851708D01*
X125566153Y-86826847D01*
X125541292Y-86796554D01*
X125522820Y-86761995D01*
X125511445Y-86724499D01*
X125507000Y-86679362D01*
X125507000Y-86040638D01*
X125511445Y-85995501D01*
X125522820Y-85958005D01*
X125541292Y-85923446D01*
X125566153Y-85893153D01*
X125596446Y-85868292D01*
X125631005Y-85849820D01*
X125668501Y-85838445D01*
X125713638Y-85834000D01*
X126452362Y-85834000D01*
X126497499Y-85838445D01*
X126497499Y-85838445D01*
G37*
G36*
X166861142Y-84816242D02*
G01*
X167009101Y-84877529D01*
X167142255Y-84966499D01*
X167255501Y-85079745D01*
X167344471Y-85212899D01*
X167405758Y-85360858D01*
X167437000Y-85517925D01*
X167437000Y-85678075D01*
X167405758Y-85835142D01*
X167344471Y-85983101D01*
X167255501Y-86116255D01*
X167142255Y-86229501D01*
X167009101Y-86318471D01*
X166861142Y-86379758D01*
X166704075Y-86411000D01*
X166543925Y-86411000D01*
X166386858Y-86379758D01*
X166238899Y-86318471D01*
X166105745Y-86229501D01*
X165992499Y-86116255D01*
X165903529Y-85983101D01*
X165842242Y-85835142D01*
X165811000Y-85678075D01*
X165811000Y-85517925D01*
X165842242Y-85360858D01*
X165903529Y-85212899D01*
X165992499Y-85079745D01*
X166105745Y-84966499D01*
X166238899Y-84877529D01*
X166386858Y-84816242D01*
X166543925Y-84785000D01*
X166704075Y-84785000D01*
X166861142Y-84816242D01*
X166861142Y-84816242D01*
G37*
G36*
X152560499Y-84822445D02*
G01*
X152597995Y-84833820D01*
X152632554Y-84852292D01*
X152662847Y-84877153D01*
X152687708Y-84907446D01*
X152706180Y-84942005D01*
X152717555Y-84979501D01*
X152722000Y-85024638D01*
X152722000Y-85663362D01*
X152717555Y-85708499D01*
X152706180Y-85745995D01*
X152687708Y-85780554D01*
X152662847Y-85810847D01*
X152632554Y-85835708D01*
X152597995Y-85854180D01*
X152560499Y-85865555D01*
X152515362Y-85870000D01*
X151776638Y-85870000D01*
X151731501Y-85865555D01*
X151694005Y-85854180D01*
X151659446Y-85835708D01*
X151629153Y-85810847D01*
X151604292Y-85780554D01*
X151585820Y-85745995D01*
X151574445Y-85708499D01*
X151570000Y-85663362D01*
X151570000Y-85024638D01*
X151574445Y-84979501D01*
X151585820Y-84942005D01*
X151604292Y-84907446D01*
X151629153Y-84877153D01*
X151659446Y-84852292D01*
X151694005Y-84833820D01*
X151731501Y-84822445D01*
X151776638Y-84818000D01*
X152515362Y-84818000D01*
X152560499Y-84822445D01*
X152560499Y-84822445D01*
G37*
G36*
X150810499Y-84822445D02*
G01*
X150847995Y-84833820D01*
X150882554Y-84852292D01*
X150912847Y-84877153D01*
X150937708Y-84907446D01*
X150956180Y-84942005D01*
X150967555Y-84979501D01*
X150972000Y-85024638D01*
X150972000Y-85663362D01*
X150967555Y-85708499D01*
X150956180Y-85745995D01*
X150937708Y-85780554D01*
X150912847Y-85810847D01*
X150882554Y-85835708D01*
X150847995Y-85854180D01*
X150810499Y-85865555D01*
X150765362Y-85870000D01*
X150026638Y-85870000D01*
X149981501Y-85865555D01*
X149944005Y-85854180D01*
X149909446Y-85835708D01*
X149879153Y-85810847D01*
X149854292Y-85780554D01*
X149835820Y-85745995D01*
X149824445Y-85708499D01*
X149820000Y-85663362D01*
X149820000Y-85024638D01*
X149824445Y-84979501D01*
X149835820Y-84942005D01*
X149854292Y-84907446D01*
X149879153Y-84877153D01*
X149909446Y-84852292D01*
X149944005Y-84833820D01*
X149981501Y-84822445D01*
X150026638Y-84818000D01*
X150765362Y-84818000D01*
X150810499Y-84822445D01*
X150810499Y-84822445D01*
G37*
G36*
X124761499Y-83806445D02*
G01*
X124798995Y-83817820D01*
X124833554Y-83836292D01*
X124863847Y-83861153D01*
X124888708Y-83891446D01*
X124907180Y-83926005D01*
X124918555Y-83963501D01*
X124923000Y-84008638D01*
X124923000Y-84647362D01*
X124918555Y-84692499D01*
X124907180Y-84729995D01*
X124888708Y-84764554D01*
X124863847Y-84794847D01*
X124833554Y-84819708D01*
X124798995Y-84838180D01*
X124761499Y-84849555D01*
X124716362Y-84854000D01*
X123977638Y-84854000D01*
X123932501Y-84849555D01*
X123895005Y-84838180D01*
X123860446Y-84819708D01*
X123830153Y-84794847D01*
X123805292Y-84764554D01*
X123786820Y-84729995D01*
X123775445Y-84692499D01*
X123771000Y-84647362D01*
X123771000Y-84008638D01*
X123775445Y-83963501D01*
X123786820Y-83926005D01*
X123805292Y-83891446D01*
X123830153Y-83861153D01*
X123860446Y-83836292D01*
X123895005Y-83817820D01*
X123932501Y-83806445D01*
X123977638Y-83802000D01*
X124716362Y-83802000D01*
X124761499Y-83806445D01*
X124761499Y-83806445D01*
G37*
G36*
X126511499Y-83806445D02*
G01*
X126548995Y-83817820D01*
X126583554Y-83836292D01*
X126613847Y-83861153D01*
X126638708Y-83891446D01*
X126657180Y-83926005D01*
X126668555Y-83963501D01*
X126673000Y-84008638D01*
X126673000Y-84647362D01*
X126668555Y-84692499D01*
X126657180Y-84729995D01*
X126638708Y-84764554D01*
X126613847Y-84794847D01*
X126583554Y-84819708D01*
X126548995Y-84838180D01*
X126511499Y-84849555D01*
X126466362Y-84854000D01*
X125727638Y-84854000D01*
X125682501Y-84849555D01*
X125645005Y-84838180D01*
X125610446Y-84819708D01*
X125580153Y-84794847D01*
X125555292Y-84764554D01*
X125536820Y-84729995D01*
X125525445Y-84692499D01*
X125521000Y-84647362D01*
X125521000Y-84008638D01*
X125525445Y-83963501D01*
X125536820Y-83926005D01*
X125555292Y-83891446D01*
X125580153Y-83861153D01*
X125610446Y-83836292D01*
X125645005Y-83817820D01*
X125682501Y-83806445D01*
X125727638Y-83802000D01*
X126466362Y-83802000D01*
X126511499Y-83806445D01*
X126511499Y-83806445D01*
G37*
G36*
X131084000Y-84019000D02*
G01*
X129232000Y-84019000D01*
X129232000Y-83367000D01*
X131084000Y-83367000D01*
X131084000Y-84019000D01*
X131084000Y-84019000D01*
G37*
G36*
X138484000Y-84019000D02*
G01*
X136632000Y-84019000D01*
X136632000Y-83367000D01*
X138484000Y-83367000D01*
X138484000Y-84019000D01*
X138484000Y-84019000D01*
G37*
G36*
X152560499Y-82917445D02*
G01*
X152597995Y-82928820D01*
X152632554Y-82947292D01*
X152662847Y-82972153D01*
X152687708Y-83002446D01*
X152706180Y-83037005D01*
X152717555Y-83074501D01*
X152722000Y-83119638D01*
X152722000Y-83758362D01*
X152717555Y-83803499D01*
X152706180Y-83840995D01*
X152687708Y-83875554D01*
X152662847Y-83905847D01*
X152632554Y-83930708D01*
X152597995Y-83949180D01*
X152560499Y-83960555D01*
X152515362Y-83965000D01*
X151776638Y-83965000D01*
X151731501Y-83960555D01*
X151694005Y-83949180D01*
X151659446Y-83930708D01*
X151629153Y-83905847D01*
X151604292Y-83875554D01*
X151585820Y-83840995D01*
X151574445Y-83803499D01*
X151570000Y-83758362D01*
X151570000Y-83119638D01*
X151574445Y-83074501D01*
X151585820Y-83037005D01*
X151604292Y-83002446D01*
X151629153Y-82972153D01*
X151659446Y-82947292D01*
X151694005Y-82928820D01*
X151731501Y-82917445D01*
X151776638Y-82913000D01*
X152515362Y-82913000D01*
X152560499Y-82917445D01*
X152560499Y-82917445D01*
G37*
G36*
X150810499Y-82917445D02*
G01*
X150847995Y-82928820D01*
X150882554Y-82947292D01*
X150912847Y-82972153D01*
X150937708Y-83002446D01*
X150956180Y-83037005D01*
X150967555Y-83074501D01*
X150972000Y-83119638D01*
X150972000Y-83758362D01*
X150967555Y-83803499D01*
X150956180Y-83840995D01*
X150937708Y-83875554D01*
X150912847Y-83905847D01*
X150882554Y-83930708D01*
X150847995Y-83949180D01*
X150810499Y-83960555D01*
X150765362Y-83965000D01*
X150026638Y-83965000D01*
X149981501Y-83960555D01*
X149944005Y-83949180D01*
X149909446Y-83930708D01*
X149879153Y-83905847D01*
X149854292Y-83875554D01*
X149835820Y-83840995D01*
X149824445Y-83803499D01*
X149820000Y-83758362D01*
X149820000Y-83119638D01*
X149824445Y-83074501D01*
X149835820Y-83037005D01*
X149854292Y-83002446D01*
X149879153Y-82972153D01*
X149909446Y-82947292D01*
X149944005Y-82928820D01*
X149981501Y-82917445D01*
X150026638Y-82913000D01*
X150765362Y-82913000D01*
X150810499Y-82917445D01*
X150810499Y-82917445D01*
G37*
G36*
X166861142Y-82276242D02*
G01*
X167009101Y-82337529D01*
X167142255Y-82426499D01*
X167255501Y-82539745D01*
X167344471Y-82672899D01*
X167405758Y-82820858D01*
X167437000Y-82977925D01*
X167437000Y-83138075D01*
X167405758Y-83295142D01*
X167344471Y-83443101D01*
X167255501Y-83576255D01*
X167142255Y-83689501D01*
X167009101Y-83778471D01*
X166861142Y-83839758D01*
X166704075Y-83871000D01*
X166543925Y-83871000D01*
X166386858Y-83839758D01*
X166238899Y-83778471D01*
X166105745Y-83689501D01*
X165992499Y-83576255D01*
X165903529Y-83443101D01*
X165842242Y-83295142D01*
X165811000Y-83138075D01*
X165811000Y-82977925D01*
X165842242Y-82820858D01*
X165903529Y-82672899D01*
X165992499Y-82539745D01*
X166105745Y-82426499D01*
X166238899Y-82337529D01*
X166386858Y-82276242D01*
X166543925Y-82245000D01*
X166704075Y-82245000D01*
X166861142Y-82276242D01*
X166861142Y-82276242D01*
G37*
G36*
X126398499Y-81774445D02*
G01*
X126435995Y-81785820D01*
X126470554Y-81804292D01*
X126500847Y-81829153D01*
X126525708Y-81859446D01*
X126544180Y-81894005D01*
X126555555Y-81931501D01*
X126560000Y-81976638D01*
X126560000Y-82615362D01*
X126555555Y-82660499D01*
X126544180Y-82697995D01*
X126525708Y-82732554D01*
X126500847Y-82762847D01*
X126470554Y-82787708D01*
X126435995Y-82806180D01*
X126398499Y-82817555D01*
X126353362Y-82822000D01*
X125614638Y-82822000D01*
X125569501Y-82817555D01*
X125532005Y-82806180D01*
X125497446Y-82787708D01*
X125467153Y-82762847D01*
X125442292Y-82732554D01*
X125423820Y-82697995D01*
X125412445Y-82660499D01*
X125408000Y-82615362D01*
X125408000Y-81976638D01*
X125412445Y-81931501D01*
X125423820Y-81894005D01*
X125442292Y-81859446D01*
X125467153Y-81829153D01*
X125497446Y-81804292D01*
X125532005Y-81785820D01*
X125569501Y-81774445D01*
X125614638Y-81770000D01*
X126353362Y-81770000D01*
X126398499Y-81774445D01*
X126398499Y-81774445D01*
G37*
G36*
X124648499Y-81774445D02*
G01*
X124685995Y-81785820D01*
X124720554Y-81804292D01*
X124750847Y-81829153D01*
X124775708Y-81859446D01*
X124794180Y-81894005D01*
X124805555Y-81931501D01*
X124810000Y-81976638D01*
X124810000Y-82615362D01*
X124805555Y-82660499D01*
X124794180Y-82697995D01*
X124775708Y-82732554D01*
X124750847Y-82762847D01*
X124720554Y-82787708D01*
X124685995Y-82806180D01*
X124648499Y-82817555D01*
X124603362Y-82822000D01*
X123864638Y-82822000D01*
X123819501Y-82817555D01*
X123782005Y-82806180D01*
X123747446Y-82787708D01*
X123717153Y-82762847D01*
X123692292Y-82732554D01*
X123673820Y-82697995D01*
X123662445Y-82660499D01*
X123658000Y-82615362D01*
X123658000Y-81976638D01*
X123662445Y-81931501D01*
X123673820Y-81894005D01*
X123692292Y-81859446D01*
X123717153Y-81829153D01*
X123747446Y-81804292D01*
X123782005Y-81785820D01*
X123819501Y-81774445D01*
X123864638Y-81770000D01*
X124603362Y-81770000D01*
X124648499Y-81774445D01*
X124648499Y-81774445D01*
G37*
G36*
X131084000Y-82749000D02*
G01*
X129232000Y-82749000D01*
X129232000Y-82097000D01*
X131084000Y-82097000D01*
X131084000Y-82749000D01*
X131084000Y-82749000D01*
G37*
G36*
X138484000Y-82749000D02*
G01*
X136632000Y-82749000D01*
X136632000Y-82097000D01*
X138484000Y-82097000D01*
X138484000Y-82749000D01*
X138484000Y-82749000D01*
G37*
G36*
X119049443Y-78609499D02*
G01*
X119188544Y-78637168D01*
X119335991Y-78698243D01*
X119544512Y-78784615D01*
X119640871Y-78849000D01*
X119864877Y-78998676D01*
X120137324Y-79271123D01*
X120234230Y-79416153D01*
X120351385Y-79591488D01*
X120398403Y-79705000D01*
X120498832Y-79947456D01*
X120509233Y-79999745D01*
X120574000Y-80325349D01*
X120574000Y-80710651D01*
X120540115Y-80881000D01*
X120498832Y-81088544D01*
X120437757Y-81235991D01*
X120351385Y-81444512D01*
X120351384Y-81444513D01*
X120137324Y-81764877D01*
X119864877Y-82037324D01*
X119775565Y-82097000D01*
X119544512Y-82251385D01*
X119336542Y-82337529D01*
X119188544Y-82398832D01*
X119062579Y-82423888D01*
X118810651Y-82474000D01*
X118425349Y-82474000D01*
X118173421Y-82423888D01*
X118047456Y-82398832D01*
X117899458Y-82337529D01*
X117691488Y-82251385D01*
X117460435Y-82097000D01*
X117371123Y-82037324D01*
X117098676Y-81764877D01*
X116884616Y-81444513D01*
X116884615Y-81444512D01*
X116798243Y-81235991D01*
X116737168Y-81088544D01*
X116695885Y-80881000D01*
X116662000Y-80710651D01*
X116662000Y-80325349D01*
X116726767Y-79999745D01*
X116737168Y-79947456D01*
X116837597Y-79705000D01*
X116884615Y-79591488D01*
X117001770Y-79416153D01*
X117098676Y-79271123D01*
X117371123Y-78998676D01*
X117595129Y-78849000D01*
X117691488Y-78784615D01*
X117900009Y-78698243D01*
X118047456Y-78637168D01*
X118186557Y-78609499D01*
X118425349Y-78562000D01*
X118810651Y-78562000D01*
X119049443Y-78609499D01*
X119049443Y-78609499D01*
G37*
G36*
X152546499Y-80885445D02*
G01*
X152583995Y-80896820D01*
X152618554Y-80915292D01*
X152648847Y-80940153D01*
X152673708Y-80970446D01*
X152692180Y-81005005D01*
X152703555Y-81042501D01*
X152708000Y-81087638D01*
X152708000Y-81726362D01*
X152703555Y-81771499D01*
X152692180Y-81808995D01*
X152673708Y-81843554D01*
X152648847Y-81873847D01*
X152618554Y-81898708D01*
X152583995Y-81917180D01*
X152546499Y-81928555D01*
X152501362Y-81933000D01*
X151762638Y-81933000D01*
X151717501Y-81928555D01*
X151680005Y-81917180D01*
X151645446Y-81898708D01*
X151615153Y-81873847D01*
X151590292Y-81843554D01*
X151571820Y-81808995D01*
X151560445Y-81771499D01*
X151556000Y-81726362D01*
X151556000Y-81087638D01*
X151560445Y-81042501D01*
X151571820Y-81005005D01*
X151590292Y-80970446D01*
X151615153Y-80940153D01*
X151645446Y-80915292D01*
X151680005Y-80896820D01*
X151717501Y-80885445D01*
X151762638Y-80881000D01*
X152501362Y-80881000D01*
X152546499Y-80885445D01*
X152546499Y-80885445D01*
G37*
G36*
X150796499Y-80885445D02*
G01*
X150833995Y-80896820D01*
X150868554Y-80915292D01*
X150898847Y-80940153D01*
X150923708Y-80970446D01*
X150942180Y-81005005D01*
X150953555Y-81042501D01*
X150958000Y-81087638D01*
X150958000Y-81726362D01*
X150953555Y-81771499D01*
X150942180Y-81808995D01*
X150923708Y-81843554D01*
X150898847Y-81873847D01*
X150868554Y-81898708D01*
X150833995Y-81917180D01*
X150796499Y-81928555D01*
X150751362Y-81933000D01*
X150012638Y-81933000D01*
X149967501Y-81928555D01*
X149930005Y-81917180D01*
X149895446Y-81898708D01*
X149865153Y-81873847D01*
X149840292Y-81843554D01*
X149821820Y-81808995D01*
X149810445Y-81771499D01*
X149806000Y-81726362D01*
X149806000Y-81087638D01*
X149810445Y-81042501D01*
X149821820Y-81005005D01*
X149840292Y-80970446D01*
X149865153Y-80940153D01*
X149895446Y-80915292D01*
X149930005Y-80896820D01*
X149967501Y-80885445D01*
X150012638Y-80881000D01*
X150751362Y-80881000D01*
X150796499Y-80885445D01*
X150796499Y-80885445D01*
G37*
G36*
X131084000Y-81479000D02*
G01*
X129232000Y-81479000D01*
X129232000Y-80827000D01*
X131084000Y-80827000D01*
X131084000Y-81479000D01*
X131084000Y-81479000D01*
G37*
G36*
X138484000Y-81479000D02*
G01*
X136632000Y-81479000D01*
X136632000Y-80827000D01*
X138484000Y-80827000D01*
X138484000Y-81479000D01*
X138484000Y-81479000D01*
G37*
G36*
X166861142Y-79736242D02*
G01*
X167009101Y-79797529D01*
X167142255Y-79886499D01*
X167255501Y-79999745D01*
X167344471Y-80132899D01*
X167405758Y-80280858D01*
X167437000Y-80437925D01*
X167437000Y-80598075D01*
X167405758Y-80755142D01*
X167344471Y-80903101D01*
X167255501Y-81036255D01*
X167142255Y-81149501D01*
X167009101Y-81238471D01*
X166861142Y-81299758D01*
X166704075Y-81331000D01*
X166543925Y-81331000D01*
X166386858Y-81299758D01*
X166238899Y-81238471D01*
X166105745Y-81149501D01*
X165992499Y-81036255D01*
X165903529Y-80903101D01*
X165842242Y-80755142D01*
X165811000Y-80598075D01*
X165811000Y-80437925D01*
X165842242Y-80280858D01*
X165903529Y-80132899D01*
X165992499Y-79999745D01*
X166105745Y-79886499D01*
X166238899Y-79797529D01*
X166386858Y-79736242D01*
X166543925Y-79705000D01*
X166704075Y-79705000D01*
X166861142Y-79736242D01*
X166861142Y-79736242D01*
G37*
G36*
X124648499Y-79361445D02*
G01*
X124685995Y-79372820D01*
X124720554Y-79391292D01*
X124750847Y-79416153D01*
X124775708Y-79446446D01*
X124794180Y-79481005D01*
X124805555Y-79518501D01*
X124810000Y-79563638D01*
X124810000Y-80202362D01*
X124805555Y-80247499D01*
X124794180Y-80284995D01*
X124775708Y-80319554D01*
X124750847Y-80349847D01*
X124720554Y-80374708D01*
X124685995Y-80393180D01*
X124648499Y-80404555D01*
X124603362Y-80409000D01*
X123864638Y-80409000D01*
X123819501Y-80404555D01*
X123782005Y-80393180D01*
X123747446Y-80374708D01*
X123717153Y-80349847D01*
X123692292Y-80319554D01*
X123673820Y-80284995D01*
X123662445Y-80247499D01*
X123658000Y-80202362D01*
X123658000Y-79563638D01*
X123662445Y-79518501D01*
X123673820Y-79481005D01*
X123692292Y-79446446D01*
X123717153Y-79416153D01*
X123747446Y-79391292D01*
X123782005Y-79372820D01*
X123819501Y-79361445D01*
X123864638Y-79357000D01*
X124603362Y-79357000D01*
X124648499Y-79361445D01*
X124648499Y-79361445D01*
G37*
G36*
X126398499Y-79361445D02*
G01*
X126435995Y-79372820D01*
X126470554Y-79391292D01*
X126500847Y-79416153D01*
X126525708Y-79446446D01*
X126544180Y-79481005D01*
X126555555Y-79518501D01*
X126560000Y-79563638D01*
X126560000Y-80202362D01*
X126555555Y-80247499D01*
X126544180Y-80284995D01*
X126525708Y-80319554D01*
X126500847Y-80349847D01*
X126470554Y-80374708D01*
X126435995Y-80393180D01*
X126398499Y-80404555D01*
X126353362Y-80409000D01*
X125614638Y-80409000D01*
X125569501Y-80404555D01*
X125532005Y-80393180D01*
X125497446Y-80374708D01*
X125467153Y-80349847D01*
X125442292Y-80319554D01*
X125423820Y-80284995D01*
X125412445Y-80247499D01*
X125408000Y-80202362D01*
X125408000Y-79563638D01*
X125412445Y-79518501D01*
X125423820Y-79481005D01*
X125442292Y-79446446D01*
X125467153Y-79416153D01*
X125497446Y-79391292D01*
X125532005Y-79372820D01*
X125569501Y-79361445D01*
X125614638Y-79357000D01*
X126353362Y-79357000D01*
X126398499Y-79361445D01*
X126398499Y-79361445D01*
G37*
G36*
X138484000Y-80209000D02*
G01*
X136632000Y-80209000D01*
X136632000Y-79557000D01*
X138484000Y-79557000D01*
X138484000Y-80209000D01*
X138484000Y-80209000D01*
G37*
G36*
X131084000Y-80209000D02*
G01*
X129232000Y-80209000D01*
X129232000Y-79557000D01*
X131084000Y-79557000D01*
X131084000Y-80209000D01*
X131084000Y-80209000D01*
G37*
G36*
X150796499Y-78853445D02*
G01*
X150833995Y-78864820D01*
X150868554Y-78883292D01*
X150898847Y-78908153D01*
X150923708Y-78938446D01*
X150942180Y-78973005D01*
X150953555Y-79010501D01*
X150958000Y-79055638D01*
X150958000Y-79694362D01*
X150953555Y-79739499D01*
X150942180Y-79776995D01*
X150923708Y-79811554D01*
X150898847Y-79841847D01*
X150868554Y-79866708D01*
X150833995Y-79885180D01*
X150796499Y-79896555D01*
X150751362Y-79901000D01*
X150012638Y-79901000D01*
X149967501Y-79896555D01*
X149930005Y-79885180D01*
X149895446Y-79866708D01*
X149865153Y-79841847D01*
X149840292Y-79811554D01*
X149821820Y-79776995D01*
X149810445Y-79739499D01*
X149806000Y-79694362D01*
X149806000Y-79055638D01*
X149810445Y-79010501D01*
X149821820Y-78973005D01*
X149840292Y-78938446D01*
X149865153Y-78908153D01*
X149895446Y-78883292D01*
X149930005Y-78864820D01*
X149967501Y-78853445D01*
X150012638Y-78849000D01*
X150751362Y-78849000D01*
X150796499Y-78853445D01*
X150796499Y-78853445D01*
G37*
G36*
X152546499Y-78853445D02*
G01*
X152583995Y-78864820D01*
X152618554Y-78883292D01*
X152648847Y-78908153D01*
X152673708Y-78938446D01*
X152692180Y-78973005D01*
X152703555Y-79010501D01*
X152708000Y-79055638D01*
X152708000Y-79694362D01*
X152703555Y-79739499D01*
X152692180Y-79776995D01*
X152673708Y-79811554D01*
X152648847Y-79841847D01*
X152618554Y-79866708D01*
X152583995Y-79885180D01*
X152546499Y-79896555D01*
X152501362Y-79901000D01*
X151762638Y-79901000D01*
X151717501Y-79896555D01*
X151680005Y-79885180D01*
X151645446Y-79866708D01*
X151615153Y-79841847D01*
X151590292Y-79811554D01*
X151571820Y-79776995D01*
X151560445Y-79739499D01*
X151556000Y-79694362D01*
X151556000Y-79055638D01*
X151560445Y-79010501D01*
X151571820Y-78973005D01*
X151590292Y-78938446D01*
X151615153Y-78908153D01*
X151645446Y-78883292D01*
X151680005Y-78864820D01*
X151717501Y-78853445D01*
X151762638Y-78849000D01*
X152501362Y-78849000D01*
X152546499Y-78853445D01*
X152546499Y-78853445D01*
G37*
G36*
X166861142Y-77196242D02*
G01*
X167009101Y-77257529D01*
X167142255Y-77346499D01*
X167255501Y-77459745D01*
X167344471Y-77592899D01*
X167405758Y-77740858D01*
X167437000Y-77897925D01*
X167437000Y-78058075D01*
X167405758Y-78215142D01*
X167344471Y-78363101D01*
X167255501Y-78496255D01*
X167142255Y-78609501D01*
X167009101Y-78698471D01*
X166861142Y-78759758D01*
X166704075Y-78791000D01*
X166543925Y-78791000D01*
X166386858Y-78759758D01*
X166238899Y-78698471D01*
X166105745Y-78609501D01*
X165992499Y-78496255D01*
X165903529Y-78363101D01*
X165842242Y-78215142D01*
X165811000Y-78058075D01*
X165811000Y-77897925D01*
X165842242Y-77740858D01*
X165903529Y-77592899D01*
X165992499Y-77459745D01*
X166105745Y-77346499D01*
X166238899Y-77257529D01*
X166386858Y-77196242D01*
X166543925Y-77165000D01*
X166704075Y-77165000D01*
X166861142Y-77196242D01*
X166861142Y-77196242D01*
G37*
G36*
X166861142Y-74656242D02*
G01*
X167009101Y-74717529D01*
X167142255Y-74806499D01*
X167255501Y-74919745D01*
X167344471Y-75052899D01*
X167405758Y-75200858D01*
X167437000Y-75357925D01*
X167437000Y-75518075D01*
X167405758Y-75675142D01*
X167344471Y-75823101D01*
X167255501Y-75956255D01*
X167142255Y-76069501D01*
X167009101Y-76158471D01*
X166861142Y-76219758D01*
X166704075Y-76251000D01*
X166543925Y-76251000D01*
X166386858Y-76219758D01*
X166238899Y-76158471D01*
X166105745Y-76069501D01*
X165992499Y-75956255D01*
X165903529Y-75823101D01*
X165842242Y-75675142D01*
X165811000Y-75518075D01*
X165811000Y-75357925D01*
X165842242Y-75200858D01*
X165903529Y-75052899D01*
X165992499Y-74919745D01*
X166105745Y-74806499D01*
X166238899Y-74717529D01*
X166386858Y-74656242D01*
X166543925Y-74625000D01*
X166704075Y-74625000D01*
X166861142Y-74656242D01*
X166861142Y-74656242D01*
G37*
G36*
X126906499Y-74916445D02*
G01*
X126943995Y-74927820D01*
X126978554Y-74946292D01*
X127008847Y-74971153D01*
X127033708Y-75001446D01*
X127052180Y-75036005D01*
X127063555Y-75073501D01*
X127068000Y-75118638D01*
X127068000Y-75757362D01*
X127063555Y-75802499D01*
X127052180Y-75839995D01*
X127033708Y-75874554D01*
X127008847Y-75904847D01*
X126978554Y-75929708D01*
X126943995Y-75948180D01*
X126906499Y-75959555D01*
X126861362Y-75964000D01*
X126122638Y-75964000D01*
X126077501Y-75959555D01*
X126040005Y-75948180D01*
X126005446Y-75929708D01*
X125975153Y-75904847D01*
X125950292Y-75874554D01*
X125931820Y-75839995D01*
X125920445Y-75802499D01*
X125916000Y-75757362D01*
X125916000Y-75118638D01*
X125920445Y-75073501D01*
X125931820Y-75036005D01*
X125950292Y-75001446D01*
X125975153Y-74971153D01*
X126005446Y-74946292D01*
X126040005Y-74927820D01*
X126077501Y-74916445D01*
X126122638Y-74912000D01*
X126861362Y-74912000D01*
X126906499Y-74916445D01*
X126906499Y-74916445D01*
G37*
G36*
X125156499Y-74916445D02*
G01*
X125193995Y-74927820D01*
X125228554Y-74946292D01*
X125258847Y-74971153D01*
X125283708Y-75001446D01*
X125302180Y-75036005D01*
X125313555Y-75073501D01*
X125318000Y-75118638D01*
X125318000Y-75757362D01*
X125313555Y-75802499D01*
X125302180Y-75839995D01*
X125283708Y-75874554D01*
X125258847Y-75904847D01*
X125228554Y-75929708D01*
X125193995Y-75948180D01*
X125156499Y-75959555D01*
X125111362Y-75964000D01*
X124372638Y-75964000D01*
X124327501Y-75959555D01*
X124290005Y-75948180D01*
X124255446Y-75929708D01*
X124225153Y-75904847D01*
X124200292Y-75874554D01*
X124181820Y-75839995D01*
X124170445Y-75802499D01*
X124166000Y-75757362D01*
X124166000Y-75118638D01*
X124170445Y-75073501D01*
X124181820Y-75036005D01*
X124200292Y-75001446D01*
X124225153Y-74971153D01*
X124255446Y-74946292D01*
X124290005Y-74927820D01*
X124327501Y-74916445D01*
X124372638Y-74912000D01*
X125111362Y-74912000D01*
X125156499Y-74916445D01*
X125156499Y-74916445D01*
G37*
G36*
X145323000Y-75727000D02*
G01*
X143221000Y-75727000D01*
X143221000Y-73625000D01*
X145323000Y-73625000D01*
X145323000Y-75727000D01*
X145323000Y-75727000D01*
G37*
G36*
X139098499Y-74154445D02*
G01*
X139135995Y-74165820D01*
X139170554Y-74184292D01*
X139200847Y-74209153D01*
X139225708Y-74239446D01*
X139244180Y-74274005D01*
X139255555Y-74311501D01*
X139260000Y-74356638D01*
X139260000Y-74995362D01*
X139255555Y-75040499D01*
X139244180Y-75077995D01*
X139225708Y-75112554D01*
X139200847Y-75142847D01*
X139170554Y-75167708D01*
X139135995Y-75186180D01*
X139098499Y-75197555D01*
X139053362Y-75202000D01*
X138314638Y-75202000D01*
X138269501Y-75197555D01*
X138232005Y-75186180D01*
X138197446Y-75167708D01*
X138167153Y-75142847D01*
X138142292Y-75112554D01*
X138123820Y-75077995D01*
X138112445Y-75040499D01*
X138108000Y-74995362D01*
X138108000Y-74356638D01*
X138112445Y-74311501D01*
X138123820Y-74274005D01*
X138142292Y-74239446D01*
X138167153Y-74209153D01*
X138197446Y-74184292D01*
X138232005Y-74165820D01*
X138269501Y-74154445D01*
X138314638Y-74150000D01*
X139053362Y-74150000D01*
X139098499Y-74154445D01*
X139098499Y-74154445D01*
G37*
G36*
X137348499Y-74154445D02*
G01*
X137385995Y-74165820D01*
X137420554Y-74184292D01*
X137450847Y-74209153D01*
X137475708Y-74239446D01*
X137494180Y-74274005D01*
X137505555Y-74311501D01*
X137510000Y-74356638D01*
X137510000Y-74995362D01*
X137505555Y-75040499D01*
X137494180Y-75077995D01*
X137475708Y-75112554D01*
X137450847Y-75142847D01*
X137420554Y-75167708D01*
X137385995Y-75186180D01*
X137348499Y-75197555D01*
X137303362Y-75202000D01*
X136564638Y-75202000D01*
X136519501Y-75197555D01*
X136482005Y-75186180D01*
X136447446Y-75167708D01*
X136417153Y-75142847D01*
X136392292Y-75112554D01*
X136373820Y-75077995D01*
X136362445Y-75040499D01*
X136358000Y-74995362D01*
X136358000Y-74356638D01*
X136362445Y-74311501D01*
X136373820Y-74274005D01*
X136392292Y-74239446D01*
X136417153Y-74209153D01*
X136447446Y-74184292D01*
X136482005Y-74165820D01*
X136519501Y-74154445D01*
X136564638Y-74150000D01*
X137303362Y-74150000D01*
X137348499Y-74154445D01*
X137348499Y-74154445D01*
G37*
G36*
X125128499Y-73011445D02*
G01*
X125165995Y-73022820D01*
X125200554Y-73041292D01*
X125230847Y-73066153D01*
X125255708Y-73096446D01*
X125274180Y-73131005D01*
X125285555Y-73168501D01*
X125290000Y-73213638D01*
X125290000Y-73852362D01*
X125285555Y-73897499D01*
X125274180Y-73934995D01*
X125255708Y-73969554D01*
X125230847Y-73999847D01*
X125200554Y-74024708D01*
X125165995Y-74043180D01*
X125128499Y-74054555D01*
X125083362Y-74059000D01*
X124344638Y-74059000D01*
X124299501Y-74054555D01*
X124262005Y-74043180D01*
X124227446Y-74024708D01*
X124197153Y-73999847D01*
X124172292Y-73969554D01*
X124153820Y-73934995D01*
X124142445Y-73897499D01*
X124138000Y-73852362D01*
X124138000Y-73213638D01*
X124142445Y-73168501D01*
X124153820Y-73131005D01*
X124172292Y-73096446D01*
X124197153Y-73066153D01*
X124227446Y-73041292D01*
X124262005Y-73022820D01*
X124299501Y-73011445D01*
X124344638Y-73007000D01*
X125083362Y-73007000D01*
X125128499Y-73011445D01*
X125128499Y-73011445D01*
G37*
G36*
X126878499Y-73011445D02*
G01*
X126915995Y-73022820D01*
X126950554Y-73041292D01*
X126980847Y-73066153D01*
X127005708Y-73096446D01*
X127024180Y-73131005D01*
X127035555Y-73168501D01*
X127040000Y-73213638D01*
X127040000Y-73852362D01*
X127035555Y-73897499D01*
X127024180Y-73934995D01*
X127005708Y-73969554D01*
X126980847Y-73999847D01*
X126950554Y-74024708D01*
X126915995Y-74043180D01*
X126878499Y-74054555D01*
X126833362Y-74059000D01*
X126094638Y-74059000D01*
X126049501Y-74054555D01*
X126012005Y-74043180D01*
X125977446Y-74024708D01*
X125947153Y-73999847D01*
X125922292Y-73969554D01*
X125903820Y-73934995D01*
X125892445Y-73897499D01*
X125888000Y-73852362D01*
X125888000Y-73213638D01*
X125892445Y-73168501D01*
X125903820Y-73131005D01*
X125922292Y-73096446D01*
X125947153Y-73066153D01*
X125977446Y-73041292D01*
X126012005Y-73022820D01*
X126049501Y-73011445D01*
X126094638Y-73007000D01*
X126833362Y-73007000D01*
X126878499Y-73011445D01*
X126878499Y-73011445D01*
G37*
G36*
X130208499Y-72884445D02*
G01*
X130245995Y-72895820D01*
X130280554Y-72914292D01*
X130310847Y-72939153D01*
X130335708Y-72969446D01*
X130354180Y-73004005D01*
X130365555Y-73041501D01*
X130370000Y-73086638D01*
X130370000Y-73725362D01*
X130365555Y-73770499D01*
X130354180Y-73807995D01*
X130335708Y-73842554D01*
X130310847Y-73872847D01*
X130280554Y-73897708D01*
X130245995Y-73916180D01*
X130208499Y-73927555D01*
X130163362Y-73932000D01*
X129424638Y-73932000D01*
X129379501Y-73927555D01*
X129342005Y-73916180D01*
X129307446Y-73897708D01*
X129277153Y-73872847D01*
X129252292Y-73842554D01*
X129233820Y-73807995D01*
X129222445Y-73770499D01*
X129218000Y-73725362D01*
X129218000Y-73086638D01*
X129222445Y-73041501D01*
X129233820Y-73004005D01*
X129252292Y-72969446D01*
X129277153Y-72939153D01*
X129307446Y-72914292D01*
X129342005Y-72895820D01*
X129379501Y-72884445D01*
X129424638Y-72880000D01*
X130163362Y-72880000D01*
X130208499Y-72884445D01*
X130208499Y-72884445D01*
G37*
G36*
X131958499Y-72884445D02*
G01*
X131995995Y-72895820D01*
X132030554Y-72914292D01*
X132060847Y-72939153D01*
X132085708Y-72969446D01*
X132104180Y-73004005D01*
X132115555Y-73041501D01*
X132120000Y-73086638D01*
X132120000Y-73725362D01*
X132115555Y-73770499D01*
X132104180Y-73807995D01*
X132085708Y-73842554D01*
X132060847Y-73872847D01*
X132030554Y-73897708D01*
X131995995Y-73916180D01*
X131958499Y-73927555D01*
X131913362Y-73932000D01*
X131174638Y-73932000D01*
X131129501Y-73927555D01*
X131092005Y-73916180D01*
X131057446Y-73897708D01*
X131027153Y-73872847D01*
X131002292Y-73842554D01*
X130983820Y-73807995D01*
X130972445Y-73770499D01*
X130968000Y-73725362D01*
X130968000Y-73086638D01*
X130972445Y-73041501D01*
X130983820Y-73004005D01*
X131002292Y-72969446D01*
X131027153Y-72939153D01*
X131057446Y-72914292D01*
X131092005Y-72895820D01*
X131129501Y-72884445D01*
X131174638Y-72880000D01*
X131913362Y-72880000D01*
X131958499Y-72884445D01*
X131958499Y-72884445D01*
G37*
G36*
X166861142Y-72116242D02*
G01*
X167009101Y-72177529D01*
X167142255Y-72266499D01*
X167255501Y-72379745D01*
X167344471Y-72512899D01*
X167405758Y-72660858D01*
X167437000Y-72817925D01*
X167437000Y-72978075D01*
X167405758Y-73135142D01*
X167344471Y-73283101D01*
X167255501Y-73416255D01*
X167142255Y-73529501D01*
X167009101Y-73618471D01*
X166861142Y-73679758D01*
X166704075Y-73711000D01*
X166543925Y-73711000D01*
X166386858Y-73679758D01*
X166238899Y-73618471D01*
X166105745Y-73529501D01*
X165992499Y-73416255D01*
X165903529Y-73283101D01*
X165842242Y-73135142D01*
X165811000Y-72978075D01*
X165811000Y-72817925D01*
X165842242Y-72660858D01*
X165903529Y-72512899D01*
X165992499Y-72379745D01*
X166105745Y-72266499D01*
X166238899Y-72177529D01*
X166386858Y-72116242D01*
X166543925Y-72085000D01*
X166704075Y-72085000D01*
X166861142Y-72116242D01*
X166861142Y-72116242D01*
G37*
G36*
X110496039Y-70049250D02*
G01*
X110633093Y-70106020D01*
X110819251Y-70183129D01*
X111110134Y-70377491D01*
X111357509Y-70624866D01*
X111551871Y-70915749D01*
X111585568Y-70997101D01*
X111685750Y-71238961D01*
X111754000Y-71582078D01*
X111754000Y-71931922D01*
X111685750Y-72275039D01*
X111642380Y-72379743D01*
X111551871Y-72598251D01*
X111357509Y-72889134D01*
X111110134Y-73136509D01*
X110819251Y-73330871D01*
X110685372Y-73386325D01*
X110496039Y-73464750D01*
X110152922Y-73533000D01*
X109803078Y-73533000D01*
X109459961Y-73464750D01*
X109270628Y-73386325D01*
X109136749Y-73330871D01*
X108845866Y-73136509D01*
X108598491Y-72889134D01*
X108404129Y-72598251D01*
X108313620Y-72379743D01*
X108270250Y-72275039D01*
X108202000Y-71931922D01*
X108202000Y-71582078D01*
X108270250Y-71238961D01*
X108370432Y-70997101D01*
X108404129Y-70915749D01*
X108598491Y-70624866D01*
X108845866Y-70377491D01*
X109136749Y-70183129D01*
X109322907Y-70106020D01*
X109459961Y-70049250D01*
X109803078Y-69981000D01*
X110152922Y-69981000D01*
X110496039Y-70049250D01*
X110496039Y-70049250D01*
G37*
G36*
X137348499Y-71868445D02*
G01*
X137385995Y-71879820D01*
X137420554Y-71898292D01*
X137450847Y-71923153D01*
X137475708Y-71953446D01*
X137494180Y-71988005D01*
X137505555Y-72025501D01*
X137510000Y-72070638D01*
X137510000Y-72709362D01*
X137505555Y-72754499D01*
X137494180Y-72791995D01*
X137475708Y-72826554D01*
X137450847Y-72856847D01*
X137420554Y-72881708D01*
X137385995Y-72900180D01*
X137348499Y-72911555D01*
X137303362Y-72916000D01*
X136564638Y-72916000D01*
X136519501Y-72911555D01*
X136482005Y-72900180D01*
X136447446Y-72881708D01*
X136417153Y-72856847D01*
X136392292Y-72826554D01*
X136373820Y-72791995D01*
X136362445Y-72754499D01*
X136358000Y-72709362D01*
X136358000Y-72070638D01*
X136362445Y-72025501D01*
X136373820Y-71988005D01*
X136392292Y-71953446D01*
X136417153Y-71923153D01*
X136447446Y-71898292D01*
X136482005Y-71879820D01*
X136519501Y-71868445D01*
X136564638Y-71864000D01*
X137303362Y-71864000D01*
X137348499Y-71868445D01*
X137348499Y-71868445D01*
G37*
G36*
X139098499Y-71868445D02*
G01*
X139135995Y-71879820D01*
X139170554Y-71898292D01*
X139200847Y-71923153D01*
X139225708Y-71953446D01*
X139244180Y-71988005D01*
X139255555Y-72025501D01*
X139260000Y-72070638D01*
X139260000Y-72709362D01*
X139255555Y-72754499D01*
X139244180Y-72791995D01*
X139225708Y-72826554D01*
X139200847Y-72856847D01*
X139170554Y-72881708D01*
X139135995Y-72900180D01*
X139098499Y-72911555D01*
X139053362Y-72916000D01*
X138314638Y-72916000D01*
X138269501Y-72911555D01*
X138232005Y-72900180D01*
X138197446Y-72881708D01*
X138167153Y-72856847D01*
X138142292Y-72826554D01*
X138123820Y-72791995D01*
X138112445Y-72754499D01*
X138108000Y-72709362D01*
X138108000Y-72070638D01*
X138112445Y-72025501D01*
X138123820Y-71988005D01*
X138142292Y-71953446D01*
X138167153Y-71923153D01*
X138197446Y-71898292D01*
X138232005Y-71879820D01*
X138269501Y-71868445D01*
X138314638Y-71864000D01*
X139053362Y-71864000D01*
X139098499Y-71868445D01*
X139098499Y-71868445D01*
G37*
G36*
X133482499Y-71106445D02*
G01*
X133519995Y-71117820D01*
X133554554Y-71136292D01*
X133584847Y-71161153D01*
X133609708Y-71191446D01*
X133628180Y-71226005D01*
X133639555Y-71263501D01*
X133644000Y-71308638D01*
X133644000Y-71947362D01*
X133639555Y-71992499D01*
X133628180Y-72029995D01*
X133609708Y-72064554D01*
X133584847Y-72094847D01*
X133554554Y-72119708D01*
X133519995Y-72138180D01*
X133482499Y-72149555D01*
X133437362Y-72154000D01*
X132698638Y-72154000D01*
X132653501Y-72149555D01*
X132616005Y-72138180D01*
X132581446Y-72119708D01*
X132551153Y-72094847D01*
X132526292Y-72064554D01*
X132507820Y-72029995D01*
X132496445Y-71992499D01*
X132492000Y-71947362D01*
X132492000Y-71308638D01*
X132496445Y-71263501D01*
X132507820Y-71226005D01*
X132526292Y-71191446D01*
X132551153Y-71161153D01*
X132581446Y-71136292D01*
X132616005Y-71117820D01*
X132653501Y-71106445D01*
X132698638Y-71102000D01*
X133437362Y-71102000D01*
X133482499Y-71106445D01*
X133482499Y-71106445D01*
G37*
G36*
X131732499Y-71106445D02*
G01*
X131769995Y-71117820D01*
X131804554Y-71136292D01*
X131834847Y-71161153D01*
X131859708Y-71191446D01*
X131878180Y-71226005D01*
X131889555Y-71263501D01*
X131894000Y-71308638D01*
X131894000Y-71947362D01*
X131889555Y-71992499D01*
X131878180Y-72029995D01*
X131859708Y-72064554D01*
X131834847Y-72094847D01*
X131804554Y-72119708D01*
X131769995Y-72138180D01*
X131732499Y-72149555D01*
X131687362Y-72154000D01*
X130948638Y-72154000D01*
X130903501Y-72149555D01*
X130866005Y-72138180D01*
X130831446Y-72119708D01*
X130801153Y-72094847D01*
X130776292Y-72064554D01*
X130757820Y-72029995D01*
X130746445Y-71992499D01*
X130742000Y-71947362D01*
X130742000Y-71308638D01*
X130746445Y-71263501D01*
X130757820Y-71226005D01*
X130776292Y-71191446D01*
X130801153Y-71161153D01*
X130831446Y-71136292D01*
X130866005Y-71117820D01*
X130903501Y-71106445D01*
X130948638Y-71102000D01*
X131687362Y-71102000D01*
X131732499Y-71106445D01*
X131732499Y-71106445D01*
G37*
G36*
X128345000Y-72051000D02*
G01*
X127143000Y-72051000D01*
X127143000Y-69599000D01*
X128345000Y-69599000D01*
X128345000Y-72051000D01*
X128345000Y-72051000D01*
G37*
G36*
X124045000Y-72051000D02*
G01*
X122843000Y-72051000D01*
X122843000Y-69599000D01*
X124045000Y-69599000D01*
X124045000Y-72051000D01*
X124045000Y-72051000D01*
G37*
G36*
X146123000Y-71727000D02*
G01*
X144721000Y-71727000D01*
X144721000Y-69625000D01*
X146123000Y-69625000D01*
X146123000Y-71727000D01*
X146123000Y-71727000D01*
G37*
G36*
X143823000Y-71727000D02*
G01*
X142421000Y-71727000D01*
X142421000Y-69625000D01*
X143823000Y-69625000D01*
X143823000Y-71727000D01*
X143823000Y-71727000D01*
G37*
G36*
X118855142Y-69830242D02*
G01*
X119003101Y-69891529D01*
X119136255Y-69980499D01*
X119249501Y-70093745D01*
X119338471Y-70226899D01*
X119399758Y-70374858D01*
X119431000Y-70531925D01*
X119431000Y-70692075D01*
X119399758Y-70849142D01*
X119338471Y-70997101D01*
X119249501Y-71130255D01*
X119136255Y-71243501D01*
X119003101Y-71332471D01*
X118855142Y-71393758D01*
X118698075Y-71425000D01*
X118537925Y-71425000D01*
X118380858Y-71393758D01*
X118232899Y-71332471D01*
X118099745Y-71243501D01*
X117986499Y-71130255D01*
X117897529Y-70997101D01*
X117836242Y-70849142D01*
X117805000Y-70692075D01*
X117805000Y-70531925D01*
X117836242Y-70374858D01*
X117897529Y-70226899D01*
X117986499Y-70093745D01*
X118099745Y-69980499D01*
X118232899Y-69891529D01*
X118380858Y-69830242D01*
X118537925Y-69799000D01*
X118698075Y-69799000D01*
X118855142Y-69830242D01*
X118855142Y-69830242D01*
G37*
G36*
X166861142Y-69576242D02*
G01*
X167009101Y-69637529D01*
X167142255Y-69726499D01*
X167255501Y-69839745D01*
X167344471Y-69972899D01*
X167405758Y-70120858D01*
X167437000Y-70277925D01*
X167437000Y-70438075D01*
X167405758Y-70595142D01*
X167344471Y-70743101D01*
X167255501Y-70876255D01*
X167142255Y-70989501D01*
X167009101Y-71078471D01*
X166861142Y-71139758D01*
X166704075Y-71171000D01*
X166543925Y-71171000D01*
X166386858Y-71139758D01*
X166238899Y-71078471D01*
X166105745Y-70989501D01*
X165992499Y-70876255D01*
X165903529Y-70743101D01*
X165842242Y-70595142D01*
X165811000Y-70438075D01*
X165811000Y-70277925D01*
X165842242Y-70120858D01*
X165903529Y-69972899D01*
X165992499Y-69839745D01*
X166105745Y-69726499D01*
X166238899Y-69637529D01*
X166386858Y-69576242D01*
X166543925Y-69545000D01*
X166704075Y-69545000D01*
X166861142Y-69576242D01*
X166861142Y-69576242D01*
G37*
G36*
X137348499Y-70090445D02*
G01*
X137385995Y-70101820D01*
X137420554Y-70120292D01*
X137450847Y-70145153D01*
X137475708Y-70175446D01*
X137494180Y-70210005D01*
X137505555Y-70247501D01*
X137510000Y-70292638D01*
X137510000Y-70931362D01*
X137505555Y-70976499D01*
X137494180Y-71013995D01*
X137475708Y-71048554D01*
X137450847Y-71078847D01*
X137420554Y-71103708D01*
X137385995Y-71122180D01*
X137348499Y-71133555D01*
X137303362Y-71138000D01*
X136564638Y-71138000D01*
X136519501Y-71133555D01*
X136482005Y-71122180D01*
X136447446Y-71103708D01*
X136417153Y-71078847D01*
X136392292Y-71048554D01*
X136373820Y-71013995D01*
X136362445Y-70976499D01*
X136358000Y-70931362D01*
X136358000Y-70292638D01*
X136362445Y-70247501D01*
X136373820Y-70210005D01*
X136392292Y-70175446D01*
X136417153Y-70145153D01*
X136447446Y-70120292D01*
X136482005Y-70101820D01*
X136519501Y-70090445D01*
X136564638Y-70086000D01*
X137303362Y-70086000D01*
X137348499Y-70090445D01*
X137348499Y-70090445D01*
G37*
G36*
X139098499Y-70090445D02*
G01*
X139135995Y-70101820D01*
X139170554Y-70120292D01*
X139200847Y-70145153D01*
X139225708Y-70175446D01*
X139244180Y-70210005D01*
X139255555Y-70247501D01*
X139260000Y-70292638D01*
X139260000Y-70931362D01*
X139255555Y-70976499D01*
X139244180Y-71013995D01*
X139225708Y-71048554D01*
X139200847Y-71078847D01*
X139170554Y-71103708D01*
X139135995Y-71122180D01*
X139098499Y-71133555D01*
X139053362Y-71138000D01*
X138314638Y-71138000D01*
X138269501Y-71133555D01*
X138232005Y-71122180D01*
X138197446Y-71103708D01*
X138167153Y-71078847D01*
X138142292Y-71048554D01*
X138123820Y-71013995D01*
X138112445Y-70976499D01*
X138108000Y-70931362D01*
X138108000Y-70292638D01*
X138112445Y-70247501D01*
X138123820Y-70210005D01*
X138142292Y-70175446D01*
X138167153Y-70145153D01*
X138197446Y-70120292D01*
X138232005Y-70101820D01*
X138269501Y-70090445D01*
X138314638Y-70086000D01*
X139053362Y-70086000D01*
X139098499Y-70090445D01*
X139098499Y-70090445D01*
G37*
G36*
X175778039Y-67380250D02*
G01*
X175967372Y-67458675D01*
X176101251Y-67514129D01*
X176392134Y-67708491D01*
X176639509Y-67955866D01*
X176833871Y-68246749D01*
X176833871Y-68246750D01*
X176967750Y-68569961D01*
X177036000Y-68913078D01*
X177036000Y-69262922D01*
X176967750Y-69606039D01*
X176917853Y-69726501D01*
X176833871Y-69929251D01*
X176639509Y-70220134D01*
X176392134Y-70467509D01*
X176101251Y-70661871D01*
X175967372Y-70717325D01*
X175778039Y-70795750D01*
X175434922Y-70864000D01*
X175085078Y-70864000D01*
X174741961Y-70795750D01*
X174552628Y-70717325D01*
X174418749Y-70661871D01*
X174127866Y-70467509D01*
X173880491Y-70220134D01*
X173686129Y-69929251D01*
X173602147Y-69726501D01*
X173552250Y-69606039D01*
X173484000Y-69262922D01*
X173484000Y-68913078D01*
X173552250Y-68569961D01*
X173686129Y-68246750D01*
X173686129Y-68246749D01*
X173880491Y-67955866D01*
X174127866Y-67708491D01*
X174418749Y-67514129D01*
X174552628Y-67458675D01*
X174741961Y-67380250D01*
X175085078Y-67312000D01*
X175434922Y-67312000D01*
X175778039Y-67380250D01*
X175778039Y-67380250D01*
G37*
G36*
X132607499Y-69328445D02*
G01*
X132644995Y-69339820D01*
X132679554Y-69358292D01*
X132709847Y-69383153D01*
X132734708Y-69413446D01*
X132753180Y-69448005D01*
X132764555Y-69485501D01*
X132769000Y-69530638D01*
X132769000Y-70169362D01*
X132764555Y-70214499D01*
X132753180Y-70251995D01*
X132734708Y-70286554D01*
X132709847Y-70316847D01*
X132679554Y-70341708D01*
X132644995Y-70360180D01*
X132607499Y-70371555D01*
X132562362Y-70376000D01*
X131823638Y-70376000D01*
X131778501Y-70371555D01*
X131741005Y-70360180D01*
X131706446Y-70341708D01*
X131676153Y-70316847D01*
X131651292Y-70286554D01*
X131632820Y-70251995D01*
X131621445Y-70214499D01*
X131617000Y-70169362D01*
X131617000Y-69530638D01*
X131621445Y-69485501D01*
X131632820Y-69448005D01*
X131651292Y-69413446D01*
X131676153Y-69383153D01*
X131706446Y-69358292D01*
X131741005Y-69339820D01*
X131778501Y-69328445D01*
X131823638Y-69324000D01*
X132562362Y-69324000D01*
X132607499Y-69328445D01*
X132607499Y-69328445D01*
G37*
G36*
X130857499Y-69328445D02*
G01*
X130894995Y-69339820D01*
X130929554Y-69358292D01*
X130959847Y-69383153D01*
X130984708Y-69413446D01*
X131003180Y-69448005D01*
X131014555Y-69485501D01*
X131019000Y-69530638D01*
X131019000Y-70169362D01*
X131014555Y-70214499D01*
X131003180Y-70251995D01*
X130984708Y-70286554D01*
X130959847Y-70316847D01*
X130929554Y-70341708D01*
X130894995Y-70360180D01*
X130857499Y-70371555D01*
X130812362Y-70376000D01*
X130073638Y-70376000D01*
X130028501Y-70371555D01*
X129991005Y-70360180D01*
X129956446Y-70341708D01*
X129926153Y-70316847D01*
X129901292Y-70286554D01*
X129882820Y-70251995D01*
X129871445Y-70214499D01*
X129867000Y-70169362D01*
X129867000Y-69530638D01*
X129871445Y-69485501D01*
X129882820Y-69448005D01*
X129901292Y-69413446D01*
X129926153Y-69383153D01*
X129956446Y-69358292D01*
X129991005Y-69339820D01*
X130028501Y-69328445D01*
X130073638Y-69324000D01*
X130812362Y-69324000D01*
X130857499Y-69328445D01*
X130857499Y-69328445D01*
G37*
G36*
X137348499Y-68312445D02*
G01*
X137385995Y-68323820D01*
X137420554Y-68342292D01*
X137450847Y-68367153D01*
X137475708Y-68397446D01*
X137494180Y-68432005D01*
X137505555Y-68469501D01*
X137510000Y-68514638D01*
X137510000Y-69153362D01*
X137505555Y-69198499D01*
X137494180Y-69235995D01*
X137475708Y-69270554D01*
X137450847Y-69300847D01*
X137420554Y-69325708D01*
X137385995Y-69344180D01*
X137348499Y-69355555D01*
X137303362Y-69360000D01*
X136564638Y-69360000D01*
X136519501Y-69355555D01*
X136482005Y-69344180D01*
X136447446Y-69325708D01*
X136417153Y-69300847D01*
X136392292Y-69270554D01*
X136373820Y-69235995D01*
X136362445Y-69198499D01*
X136358000Y-69153362D01*
X136358000Y-68514638D01*
X136362445Y-68469501D01*
X136373820Y-68432005D01*
X136392292Y-68397446D01*
X136417153Y-68367153D01*
X136447446Y-68342292D01*
X136482005Y-68323820D01*
X136519501Y-68312445D01*
X136564638Y-68308000D01*
X137303362Y-68308000D01*
X137348499Y-68312445D01*
X137348499Y-68312445D01*
G37*
G36*
X139098499Y-68312445D02*
G01*
X139135995Y-68323820D01*
X139170554Y-68342292D01*
X139200847Y-68367153D01*
X139225708Y-68397446D01*
X139244180Y-68432005D01*
X139255555Y-68469501D01*
X139260000Y-68514638D01*
X139260000Y-69153362D01*
X139255555Y-69198499D01*
X139244180Y-69235995D01*
X139225708Y-69270554D01*
X139200847Y-69300847D01*
X139170554Y-69325708D01*
X139135995Y-69344180D01*
X139098499Y-69355555D01*
X139053362Y-69360000D01*
X138314638Y-69360000D01*
X138269501Y-69355555D01*
X138232005Y-69344180D01*
X138197446Y-69325708D01*
X138167153Y-69300847D01*
X138142292Y-69270554D01*
X138123820Y-69235995D01*
X138112445Y-69198499D01*
X138108000Y-69153362D01*
X138108000Y-68514638D01*
X138112445Y-68469501D01*
X138123820Y-68432005D01*
X138142292Y-68397446D01*
X138167153Y-68367153D01*
X138197446Y-68342292D01*
X138232005Y-68323820D01*
X138269501Y-68312445D01*
X138314638Y-68308000D01*
X139053362Y-68308000D01*
X139098499Y-68312445D01*
X139098499Y-68312445D01*
G37*
G36*
X118855142Y-67290242D02*
G01*
X119003101Y-67351529D01*
X119136255Y-67440499D01*
X119249501Y-67553745D01*
X119338471Y-67686899D01*
X119399758Y-67834858D01*
X119431000Y-67991925D01*
X119431000Y-68152075D01*
X119399758Y-68309142D01*
X119338471Y-68457101D01*
X119249501Y-68590255D01*
X119136255Y-68703501D01*
X119003101Y-68792471D01*
X118855142Y-68853758D01*
X118698075Y-68885000D01*
X118537925Y-68885000D01*
X118380858Y-68853758D01*
X118232899Y-68792471D01*
X118099745Y-68703501D01*
X117986499Y-68590255D01*
X117897529Y-68457101D01*
X117836242Y-68309142D01*
X117805000Y-68152075D01*
X117805000Y-67991925D01*
X117836242Y-67834858D01*
X117897529Y-67686899D01*
X117986499Y-67553745D01*
X118099745Y-67440499D01*
X118232899Y-67351529D01*
X118380858Y-67290242D01*
X118537925Y-67259000D01*
X118698075Y-67259000D01*
X118855142Y-67290242D01*
X118855142Y-67290242D01*
G37*
G36*
X110500039Y-65221250D02*
G01*
X110606867Y-65265500D01*
X110823251Y-65355129D01*
X111114134Y-65549491D01*
X111361509Y-65796866D01*
X111555871Y-66087749D01*
X111555871Y-66087750D01*
X111689750Y-66410961D01*
X111758000Y-66754078D01*
X111758000Y-67103922D01*
X111689750Y-67447039D01*
X111624257Y-67605153D01*
X111555871Y-67770251D01*
X111361509Y-68061134D01*
X111114134Y-68308509D01*
X110823251Y-68502871D01*
X110779558Y-68520969D01*
X110500039Y-68636750D01*
X110156922Y-68705000D01*
X109807078Y-68705000D01*
X109463961Y-68636750D01*
X109184442Y-68520969D01*
X109140749Y-68502871D01*
X108849866Y-68308509D01*
X108602491Y-68061134D01*
X108408129Y-67770251D01*
X108339743Y-67605153D01*
X108274250Y-67447039D01*
X108206000Y-67103922D01*
X108206000Y-66754078D01*
X108274250Y-66410961D01*
X108408129Y-66087750D01*
X108408129Y-66087749D01*
X108602491Y-65796866D01*
X108849866Y-65549491D01*
X109140749Y-65355129D01*
X109357133Y-65265500D01*
X109463961Y-65221250D01*
X109807078Y-65153000D01*
X110156922Y-65153000D01*
X110500039Y-65221250D01*
X110500039Y-65221250D01*
G37*
G36*
X132621499Y-67550445D02*
G01*
X132658995Y-67561820D01*
X132693554Y-67580292D01*
X132723847Y-67605153D01*
X132748708Y-67635446D01*
X132767180Y-67670005D01*
X132778555Y-67707501D01*
X132783000Y-67752638D01*
X132783000Y-68391362D01*
X132778555Y-68436499D01*
X132767180Y-68473995D01*
X132748708Y-68508554D01*
X132723847Y-68538847D01*
X132693554Y-68563708D01*
X132658995Y-68582180D01*
X132621499Y-68593555D01*
X132576362Y-68598000D01*
X131837638Y-68598000D01*
X131792501Y-68593555D01*
X131755005Y-68582180D01*
X131720446Y-68563708D01*
X131690153Y-68538847D01*
X131665292Y-68508554D01*
X131646820Y-68473995D01*
X131635445Y-68436499D01*
X131631000Y-68391362D01*
X131631000Y-67752638D01*
X131635445Y-67707501D01*
X131646820Y-67670005D01*
X131665292Y-67635446D01*
X131690153Y-67605153D01*
X131720446Y-67580292D01*
X131755005Y-67561820D01*
X131792501Y-67550445D01*
X131837638Y-67546000D01*
X132576362Y-67546000D01*
X132621499Y-67550445D01*
X132621499Y-67550445D01*
G37*
G36*
X130871499Y-67550445D02*
G01*
X130908995Y-67561820D01*
X130943554Y-67580292D01*
X130973847Y-67605153D01*
X130998708Y-67635446D01*
X131017180Y-67670005D01*
X131028555Y-67707501D01*
X131033000Y-67752638D01*
X131033000Y-68391362D01*
X131028555Y-68436499D01*
X131017180Y-68473995D01*
X130998708Y-68508554D01*
X130973847Y-68538847D01*
X130943554Y-68563708D01*
X130908995Y-68582180D01*
X130871499Y-68593555D01*
X130826362Y-68598000D01*
X130087638Y-68598000D01*
X130042501Y-68593555D01*
X130005005Y-68582180D01*
X129970446Y-68563708D01*
X129940153Y-68538847D01*
X129915292Y-68508554D01*
X129896820Y-68473995D01*
X129885445Y-68436499D01*
X129881000Y-68391362D01*
X129881000Y-67752638D01*
X129885445Y-67707501D01*
X129896820Y-67670005D01*
X129915292Y-67635446D01*
X129940153Y-67605153D01*
X129970446Y-67580292D01*
X130005005Y-67561820D01*
X130042501Y-67550445D01*
X130087638Y-67546000D01*
X130826362Y-67546000D01*
X130871499Y-67550445D01*
X130871499Y-67550445D01*
G37*
G36*
X163812560Y-64752166D02*
G01*
X163960153Y-64813301D01*
X164092439Y-64901692D01*
X164092982Y-64902055D01*
X164205945Y-65015018D01*
X164294700Y-65147849D01*
X164325104Y-65221250D01*
X164355834Y-65295440D01*
X164387000Y-65452123D01*
X164387000Y-65611877D01*
X164355834Y-65768560D01*
X164294699Y-65916153D01*
X164205945Y-66048982D01*
X164092982Y-66161945D01*
X163960153Y-66250699D01*
X163960152Y-66250700D01*
X163960151Y-66250700D01*
X163812560Y-66311834D01*
X163655878Y-66343000D01*
X163496122Y-66343000D01*
X163339440Y-66311834D01*
X163191849Y-66250700D01*
X163191848Y-66250700D01*
X163191847Y-66250699D01*
X163059018Y-66161945D01*
X162946055Y-66048982D01*
X162857301Y-65916153D01*
X162796166Y-65768560D01*
X162765000Y-65611877D01*
X162765000Y-65452123D01*
X162796166Y-65295440D01*
X162826896Y-65221250D01*
X162857300Y-65147849D01*
X162946055Y-65015018D01*
X163059018Y-64902055D01*
X163059561Y-64901692D01*
X163191847Y-64813301D01*
X163339440Y-64752166D01*
X163496122Y-64721000D01*
X163655878Y-64721000D01*
X163812560Y-64752166D01*
X163812560Y-64752166D01*
G37*
G36*
X171432560Y-64752166D02*
G01*
X171580153Y-64813301D01*
X171712439Y-64901692D01*
X171712982Y-64902055D01*
X171825945Y-65015018D01*
X171914700Y-65147849D01*
X171945104Y-65221250D01*
X171975834Y-65295440D01*
X172007000Y-65452123D01*
X172007000Y-65611877D01*
X171975834Y-65768560D01*
X171914699Y-65916153D01*
X171825945Y-66048982D01*
X171712982Y-66161945D01*
X171580153Y-66250699D01*
X171580152Y-66250700D01*
X171580151Y-66250700D01*
X171432560Y-66311834D01*
X171275878Y-66343000D01*
X171116122Y-66343000D01*
X170959440Y-66311834D01*
X170811849Y-66250700D01*
X170811848Y-66250700D01*
X170811847Y-66250699D01*
X170679018Y-66161945D01*
X170566055Y-66048982D01*
X170477301Y-65916153D01*
X170416166Y-65768560D01*
X170385000Y-65611877D01*
X170385000Y-65452123D01*
X170416166Y-65295440D01*
X170446896Y-65221250D01*
X170477300Y-65147849D01*
X170566055Y-65015018D01*
X170679018Y-64902055D01*
X170679561Y-64901692D01*
X170811847Y-64813301D01*
X170959440Y-64752166D01*
X171116122Y-64721000D01*
X171275878Y-64721000D01*
X171432560Y-64752166D01*
X171432560Y-64752166D01*
G37*
G36*
X168892560Y-64752166D02*
G01*
X169040153Y-64813301D01*
X169172439Y-64901692D01*
X169172982Y-64902055D01*
X169285945Y-65015018D01*
X169374700Y-65147849D01*
X169405104Y-65221250D01*
X169435834Y-65295440D01*
X169467000Y-65452123D01*
X169467000Y-65611877D01*
X169435834Y-65768560D01*
X169374699Y-65916153D01*
X169285945Y-66048982D01*
X169172982Y-66161945D01*
X169040153Y-66250699D01*
X169040152Y-66250700D01*
X169040151Y-66250700D01*
X168892560Y-66311834D01*
X168735878Y-66343000D01*
X168576122Y-66343000D01*
X168419440Y-66311834D01*
X168271849Y-66250700D01*
X168271848Y-66250700D01*
X168271847Y-66250699D01*
X168139018Y-66161945D01*
X168026055Y-66048982D01*
X167937301Y-65916153D01*
X167876166Y-65768560D01*
X167845000Y-65611877D01*
X167845000Y-65452123D01*
X167876166Y-65295440D01*
X167906896Y-65221250D01*
X167937300Y-65147849D01*
X168026055Y-65015018D01*
X168139018Y-64902055D01*
X168139561Y-64901692D01*
X168271847Y-64813301D01*
X168419440Y-64752166D01*
X168576122Y-64721000D01*
X168735878Y-64721000D01*
X168892560Y-64752166D01*
X168892560Y-64752166D01*
G37*
G36*
X166352560Y-64752166D02*
G01*
X166500153Y-64813301D01*
X166632439Y-64901692D01*
X166632982Y-64902055D01*
X166745945Y-65015018D01*
X166834700Y-65147849D01*
X166865104Y-65221250D01*
X166895834Y-65295440D01*
X166927000Y-65452123D01*
X166927000Y-65611877D01*
X166895834Y-65768560D01*
X166834699Y-65916153D01*
X166745945Y-66048982D01*
X166632982Y-66161945D01*
X166500153Y-66250699D01*
X166500152Y-66250700D01*
X166500151Y-66250700D01*
X166352560Y-66311834D01*
X166195878Y-66343000D01*
X166036122Y-66343000D01*
X165879440Y-66311834D01*
X165731849Y-66250700D01*
X165731848Y-66250700D01*
X165731847Y-66250699D01*
X165599018Y-66161945D01*
X165486055Y-66048982D01*
X165397301Y-65916153D01*
X165336166Y-65768560D01*
X165305000Y-65611877D01*
X165305000Y-65452123D01*
X165336166Y-65295440D01*
X165366896Y-65221250D01*
X165397300Y-65147849D01*
X165486055Y-65015018D01*
X165599018Y-64902055D01*
X165599561Y-64901692D01*
X165731847Y-64813301D01*
X165879440Y-64752166D01*
X166036122Y-64721000D01*
X166195878Y-64721000D01*
X166352560Y-64752166D01*
X166352560Y-64752166D01*
G37*
G36*
X158732560Y-64752166D02*
G01*
X158880153Y-64813301D01*
X159012439Y-64901692D01*
X159012982Y-64902055D01*
X159125945Y-65015018D01*
X159214700Y-65147849D01*
X159245104Y-65221250D01*
X159275834Y-65295440D01*
X159307000Y-65452123D01*
X159307000Y-65611877D01*
X159275834Y-65768560D01*
X159214699Y-65916153D01*
X159125945Y-66048982D01*
X159012982Y-66161945D01*
X158880153Y-66250699D01*
X158880152Y-66250700D01*
X158880151Y-66250700D01*
X158732560Y-66311834D01*
X158575878Y-66343000D01*
X158416122Y-66343000D01*
X158259440Y-66311834D01*
X158111849Y-66250700D01*
X158111848Y-66250700D01*
X158111847Y-66250699D01*
X157979018Y-66161945D01*
X157866055Y-66048982D01*
X157777301Y-65916153D01*
X157716166Y-65768560D01*
X157685000Y-65611877D01*
X157685000Y-65452123D01*
X157716166Y-65295440D01*
X157746896Y-65221250D01*
X157777300Y-65147849D01*
X157866055Y-65015018D01*
X157979018Y-64902055D01*
X157979561Y-64901692D01*
X158111847Y-64813301D01*
X158259440Y-64752166D01*
X158416122Y-64721000D01*
X158575878Y-64721000D01*
X158732560Y-64752166D01*
X158732560Y-64752166D01*
G37*
G36*
X161272560Y-64752166D02*
G01*
X161420153Y-64813301D01*
X161552439Y-64901692D01*
X161552982Y-64902055D01*
X161665945Y-65015018D01*
X161754700Y-65147849D01*
X161785104Y-65221250D01*
X161815834Y-65295440D01*
X161847000Y-65452123D01*
X161847000Y-65611877D01*
X161815834Y-65768560D01*
X161754699Y-65916153D01*
X161665945Y-66048982D01*
X161552982Y-66161945D01*
X161420153Y-66250699D01*
X161420152Y-66250700D01*
X161420151Y-66250700D01*
X161272560Y-66311834D01*
X161115878Y-66343000D01*
X160956122Y-66343000D01*
X160799440Y-66311834D01*
X160651849Y-66250700D01*
X160651848Y-66250700D01*
X160651847Y-66250699D01*
X160519018Y-66161945D01*
X160406055Y-66048982D01*
X160317301Y-65916153D01*
X160256166Y-65768560D01*
X160225000Y-65611877D01*
X160225000Y-65452123D01*
X160256166Y-65295440D01*
X160286896Y-65221250D01*
X160317300Y-65147849D01*
X160406055Y-65015018D01*
X160519018Y-64902055D01*
X160519561Y-64901692D01*
X160651847Y-64813301D01*
X160799440Y-64752166D01*
X160956122Y-64721000D01*
X161115878Y-64721000D01*
X161272560Y-64752166D01*
X161272560Y-64752166D01*
G37*
G36*
X143492560Y-64752166D02*
G01*
X143640153Y-64813301D01*
X143772439Y-64901692D01*
X143772982Y-64902055D01*
X143885945Y-65015018D01*
X143974700Y-65147849D01*
X144005104Y-65221250D01*
X144035834Y-65295440D01*
X144067000Y-65452123D01*
X144067000Y-65611877D01*
X144035834Y-65768560D01*
X143974699Y-65916153D01*
X143885945Y-66048982D01*
X143772982Y-66161945D01*
X143640153Y-66250699D01*
X143640152Y-66250700D01*
X143640151Y-66250700D01*
X143492560Y-66311834D01*
X143335878Y-66343000D01*
X143176122Y-66343000D01*
X143019440Y-66311834D01*
X142871849Y-66250700D01*
X142871848Y-66250700D01*
X142871847Y-66250699D01*
X142739018Y-66161945D01*
X142626055Y-66048982D01*
X142537301Y-65916153D01*
X142476166Y-65768560D01*
X142445000Y-65611877D01*
X142445000Y-65452123D01*
X142476166Y-65295440D01*
X142506896Y-65221250D01*
X142537300Y-65147849D01*
X142626055Y-65015018D01*
X142739018Y-64902055D01*
X142739561Y-64901692D01*
X142871847Y-64813301D01*
X143019440Y-64752166D01*
X143176122Y-64721000D01*
X143335878Y-64721000D01*
X143492560Y-64752166D01*
X143492560Y-64752166D01*
G37*
G36*
X140952560Y-64752166D02*
G01*
X141100153Y-64813301D01*
X141232439Y-64901692D01*
X141232982Y-64902055D01*
X141345945Y-65015018D01*
X141434700Y-65147849D01*
X141465104Y-65221250D01*
X141495834Y-65295440D01*
X141527000Y-65452123D01*
X141527000Y-65611877D01*
X141495834Y-65768560D01*
X141434699Y-65916153D01*
X141345945Y-66048982D01*
X141232982Y-66161945D01*
X141100153Y-66250699D01*
X141100152Y-66250700D01*
X141100151Y-66250700D01*
X140952560Y-66311834D01*
X140795878Y-66343000D01*
X140636122Y-66343000D01*
X140479440Y-66311834D01*
X140331849Y-66250700D01*
X140331848Y-66250700D01*
X140331847Y-66250699D01*
X140199018Y-66161945D01*
X140086055Y-66048982D01*
X139997301Y-65916153D01*
X139936166Y-65768560D01*
X139905000Y-65611877D01*
X139905000Y-65452123D01*
X139936166Y-65295440D01*
X139966896Y-65221250D01*
X139997300Y-65147849D01*
X140086055Y-65015018D01*
X140199018Y-64902055D01*
X140199561Y-64901692D01*
X140331847Y-64813301D01*
X140479440Y-64752166D01*
X140636122Y-64721000D01*
X140795878Y-64721000D01*
X140952560Y-64752166D01*
X140952560Y-64752166D01*
G37*
G36*
X138412560Y-64752166D02*
G01*
X138560153Y-64813301D01*
X138692439Y-64901692D01*
X138692982Y-64902055D01*
X138805945Y-65015018D01*
X138894700Y-65147849D01*
X138925104Y-65221250D01*
X138955834Y-65295440D01*
X138987000Y-65452123D01*
X138987000Y-65611877D01*
X138955834Y-65768560D01*
X138894699Y-65916153D01*
X138805945Y-66048982D01*
X138692982Y-66161945D01*
X138560153Y-66250699D01*
X138560152Y-66250700D01*
X138560151Y-66250700D01*
X138412560Y-66311834D01*
X138255878Y-66343000D01*
X138096122Y-66343000D01*
X137939440Y-66311834D01*
X137791849Y-66250700D01*
X137791848Y-66250700D01*
X137791847Y-66250699D01*
X137659018Y-66161945D01*
X137546055Y-66048982D01*
X137457301Y-65916153D01*
X137396166Y-65768560D01*
X137365000Y-65611877D01*
X137365000Y-65452123D01*
X137396166Y-65295440D01*
X137426896Y-65221250D01*
X137457300Y-65147849D01*
X137546055Y-65015018D01*
X137659018Y-64902055D01*
X137659561Y-64901692D01*
X137791847Y-64813301D01*
X137939440Y-64752166D01*
X138096122Y-64721000D01*
X138255878Y-64721000D01*
X138412560Y-64752166D01*
X138412560Y-64752166D01*
G37*
G36*
X148572560Y-64752166D02*
G01*
X148720153Y-64813301D01*
X148852439Y-64901692D01*
X148852982Y-64902055D01*
X148965945Y-65015018D01*
X149054700Y-65147849D01*
X149085104Y-65221250D01*
X149115834Y-65295440D01*
X149147000Y-65452123D01*
X149147000Y-65611877D01*
X149115834Y-65768560D01*
X149054699Y-65916153D01*
X148965945Y-66048982D01*
X148852982Y-66161945D01*
X148720153Y-66250699D01*
X148720152Y-66250700D01*
X148720151Y-66250700D01*
X148572560Y-66311834D01*
X148415878Y-66343000D01*
X148256122Y-66343000D01*
X148099440Y-66311834D01*
X147951849Y-66250700D01*
X147951848Y-66250700D01*
X147951847Y-66250699D01*
X147819018Y-66161945D01*
X147706055Y-66048982D01*
X147617301Y-65916153D01*
X147556166Y-65768560D01*
X147525000Y-65611877D01*
X147525000Y-65452123D01*
X147556166Y-65295440D01*
X147586896Y-65221250D01*
X147617300Y-65147849D01*
X147706055Y-65015018D01*
X147819018Y-64902055D01*
X147819561Y-64901692D01*
X147951847Y-64813301D01*
X148099440Y-64752166D01*
X148256122Y-64721000D01*
X148415878Y-64721000D01*
X148572560Y-64752166D01*
X148572560Y-64752166D01*
G37*
G36*
X153652560Y-64752166D02*
G01*
X153800153Y-64813301D01*
X153932439Y-64901692D01*
X153932982Y-64902055D01*
X154045945Y-65015018D01*
X154134700Y-65147849D01*
X154165104Y-65221250D01*
X154195834Y-65295440D01*
X154227000Y-65452123D01*
X154227000Y-65611877D01*
X154195834Y-65768560D01*
X154134699Y-65916153D01*
X154045945Y-66048982D01*
X153932982Y-66161945D01*
X153800153Y-66250699D01*
X153800152Y-66250700D01*
X153800151Y-66250700D01*
X153652560Y-66311834D01*
X153495878Y-66343000D01*
X153336122Y-66343000D01*
X153179440Y-66311834D01*
X153031849Y-66250700D01*
X153031848Y-66250700D01*
X153031847Y-66250699D01*
X152899018Y-66161945D01*
X152786055Y-66048982D01*
X152697301Y-65916153D01*
X152636166Y-65768560D01*
X152605000Y-65611877D01*
X152605000Y-65452123D01*
X152636166Y-65295440D01*
X152666896Y-65221250D01*
X152697300Y-65147849D01*
X152786055Y-65015018D01*
X152899018Y-64902055D01*
X152899561Y-64901692D01*
X153031847Y-64813301D01*
X153179440Y-64752166D01*
X153336122Y-64721000D01*
X153495878Y-64721000D01*
X153652560Y-64752166D01*
X153652560Y-64752166D01*
G37*
G36*
X156192560Y-64752166D02*
G01*
X156340153Y-64813301D01*
X156472439Y-64901692D01*
X156472982Y-64902055D01*
X156585945Y-65015018D01*
X156674700Y-65147849D01*
X156705104Y-65221250D01*
X156735834Y-65295440D01*
X156767000Y-65452123D01*
X156767000Y-65611877D01*
X156735834Y-65768560D01*
X156674699Y-65916153D01*
X156585945Y-66048982D01*
X156472982Y-66161945D01*
X156340153Y-66250699D01*
X156340152Y-66250700D01*
X156340151Y-66250700D01*
X156192560Y-66311834D01*
X156035878Y-66343000D01*
X155876122Y-66343000D01*
X155719440Y-66311834D01*
X155571849Y-66250700D01*
X155571848Y-66250700D01*
X155571847Y-66250699D01*
X155439018Y-66161945D01*
X155326055Y-66048982D01*
X155237301Y-65916153D01*
X155176166Y-65768560D01*
X155145000Y-65611877D01*
X155145000Y-65452123D01*
X155176166Y-65295440D01*
X155206896Y-65221250D01*
X155237300Y-65147849D01*
X155326055Y-65015018D01*
X155439018Y-64902055D01*
X155439561Y-64901692D01*
X155571847Y-64813301D01*
X155719440Y-64752166D01*
X155876122Y-64721000D01*
X156035878Y-64721000D01*
X156192560Y-64752166D01*
X156192560Y-64752166D01*
G37*
G36*
X135872560Y-64752166D02*
G01*
X136020153Y-64813301D01*
X136152439Y-64901692D01*
X136152982Y-64902055D01*
X136265945Y-65015018D01*
X136354700Y-65147849D01*
X136385104Y-65221250D01*
X136415834Y-65295440D01*
X136447000Y-65452123D01*
X136447000Y-65611877D01*
X136415834Y-65768560D01*
X136354699Y-65916153D01*
X136265945Y-66048982D01*
X136152982Y-66161945D01*
X136020153Y-66250699D01*
X136020152Y-66250700D01*
X136020151Y-66250700D01*
X135872560Y-66311834D01*
X135715878Y-66343000D01*
X135556122Y-66343000D01*
X135399440Y-66311834D01*
X135251849Y-66250700D01*
X135251848Y-66250700D01*
X135251847Y-66250699D01*
X135119018Y-66161945D01*
X135006055Y-66048982D01*
X134917301Y-65916153D01*
X134856166Y-65768560D01*
X134825000Y-65611877D01*
X134825000Y-65452123D01*
X134856166Y-65295440D01*
X134886896Y-65221250D01*
X134917300Y-65147849D01*
X135006055Y-65015018D01*
X135119018Y-64902055D01*
X135119561Y-64901692D01*
X135251847Y-64813301D01*
X135399440Y-64752166D01*
X135556122Y-64721000D01*
X135715878Y-64721000D01*
X135872560Y-64752166D01*
X135872560Y-64752166D01*
G37*
G36*
X133332560Y-64752166D02*
G01*
X133480153Y-64813301D01*
X133612439Y-64901692D01*
X133612982Y-64902055D01*
X133725945Y-65015018D01*
X133814700Y-65147849D01*
X133845104Y-65221250D01*
X133875834Y-65295440D01*
X133907000Y-65452123D01*
X133907000Y-65611877D01*
X133875834Y-65768560D01*
X133814699Y-65916153D01*
X133725945Y-66048982D01*
X133612982Y-66161945D01*
X133480153Y-66250699D01*
X133480152Y-66250700D01*
X133480151Y-66250700D01*
X133332560Y-66311834D01*
X133175878Y-66343000D01*
X133016122Y-66343000D01*
X132859440Y-66311834D01*
X132711849Y-66250700D01*
X132711848Y-66250700D01*
X132711847Y-66250699D01*
X132579018Y-66161945D01*
X132466055Y-66048982D01*
X132377301Y-65916153D01*
X132316166Y-65768560D01*
X132285000Y-65611877D01*
X132285000Y-65452123D01*
X132316166Y-65295440D01*
X132346896Y-65221250D01*
X132377300Y-65147849D01*
X132466055Y-65015018D01*
X132579018Y-64902055D01*
X132579561Y-64901692D01*
X132711847Y-64813301D01*
X132859440Y-64752166D01*
X133016122Y-64721000D01*
X133175878Y-64721000D01*
X133332560Y-64752166D01*
X133332560Y-64752166D01*
G37*
G36*
X130792560Y-64752166D02*
G01*
X130940153Y-64813301D01*
X131072439Y-64901692D01*
X131072982Y-64902055D01*
X131185945Y-65015018D01*
X131274700Y-65147849D01*
X131305104Y-65221250D01*
X131335834Y-65295440D01*
X131367000Y-65452123D01*
X131367000Y-65611877D01*
X131335834Y-65768560D01*
X131274699Y-65916153D01*
X131185945Y-66048982D01*
X131072982Y-66161945D01*
X130940153Y-66250699D01*
X130940152Y-66250700D01*
X130940151Y-66250700D01*
X130792560Y-66311834D01*
X130635878Y-66343000D01*
X130476122Y-66343000D01*
X130319440Y-66311834D01*
X130171849Y-66250700D01*
X130171848Y-66250700D01*
X130171847Y-66250699D01*
X130039018Y-66161945D01*
X129926055Y-66048982D01*
X129837301Y-65916153D01*
X129776166Y-65768560D01*
X129745000Y-65611877D01*
X129745000Y-65452123D01*
X129776166Y-65295440D01*
X129806896Y-65221250D01*
X129837300Y-65147849D01*
X129926055Y-65015018D01*
X130039018Y-64902055D01*
X130039561Y-64901692D01*
X130171847Y-64813301D01*
X130319440Y-64752166D01*
X130476122Y-64721000D01*
X130635878Y-64721000D01*
X130792560Y-64752166D01*
X130792560Y-64752166D01*
G37*
G36*
X128252560Y-64752166D02*
G01*
X128400153Y-64813301D01*
X128532439Y-64901692D01*
X128532982Y-64902055D01*
X128645945Y-65015018D01*
X128734700Y-65147849D01*
X128765104Y-65221250D01*
X128795834Y-65295440D01*
X128827000Y-65452123D01*
X128827000Y-65611877D01*
X128795834Y-65768560D01*
X128734699Y-65916153D01*
X128645945Y-66048982D01*
X128532982Y-66161945D01*
X128400153Y-66250699D01*
X128400152Y-66250700D01*
X128400151Y-66250700D01*
X128252560Y-66311834D01*
X128095878Y-66343000D01*
X127936122Y-66343000D01*
X127779440Y-66311834D01*
X127631849Y-66250700D01*
X127631848Y-66250700D01*
X127631847Y-66250699D01*
X127499018Y-66161945D01*
X127386055Y-66048982D01*
X127297301Y-65916153D01*
X127236166Y-65768560D01*
X127205000Y-65611877D01*
X127205000Y-65452123D01*
X127236166Y-65295440D01*
X127266896Y-65221250D01*
X127297300Y-65147849D01*
X127386055Y-65015018D01*
X127499018Y-64902055D01*
X127499561Y-64901692D01*
X127631847Y-64813301D01*
X127779440Y-64752166D01*
X127936122Y-64721000D01*
X128095878Y-64721000D01*
X128252560Y-64752166D01*
X128252560Y-64752166D01*
G37*
G36*
X125712560Y-64752166D02*
G01*
X125860153Y-64813301D01*
X125992439Y-64901692D01*
X125992982Y-64902055D01*
X126105945Y-65015018D01*
X126194700Y-65147849D01*
X126225104Y-65221250D01*
X126255834Y-65295440D01*
X126287000Y-65452123D01*
X126287000Y-65611877D01*
X126255834Y-65768560D01*
X126194699Y-65916153D01*
X126105945Y-66048982D01*
X125992982Y-66161945D01*
X125860153Y-66250699D01*
X125860152Y-66250700D01*
X125860151Y-66250700D01*
X125712560Y-66311834D01*
X125555878Y-66343000D01*
X125396122Y-66343000D01*
X125239440Y-66311834D01*
X125091849Y-66250700D01*
X125091848Y-66250700D01*
X125091847Y-66250699D01*
X124959018Y-66161945D01*
X124846055Y-66048982D01*
X124757301Y-65916153D01*
X124696166Y-65768560D01*
X124665000Y-65611877D01*
X124665000Y-65452123D01*
X124696166Y-65295440D01*
X124726896Y-65221250D01*
X124757300Y-65147849D01*
X124846055Y-65015018D01*
X124959018Y-64902055D01*
X124959561Y-64901692D01*
X125091847Y-64813301D01*
X125239440Y-64752166D01*
X125396122Y-64721000D01*
X125555878Y-64721000D01*
X125712560Y-64752166D01*
X125712560Y-64752166D01*
G37*
G36*
X146032560Y-64752166D02*
G01*
X146180153Y-64813301D01*
X146312439Y-64901692D01*
X146312982Y-64902055D01*
X146425945Y-65015018D01*
X146514700Y-65147849D01*
X146545104Y-65221250D01*
X146575834Y-65295440D01*
X146607000Y-65452123D01*
X146607000Y-65611877D01*
X146575834Y-65768560D01*
X146514699Y-65916153D01*
X146425945Y-66048982D01*
X146312982Y-66161945D01*
X146180153Y-66250699D01*
X146180152Y-66250700D01*
X146180151Y-66250700D01*
X146032560Y-66311834D01*
X145875878Y-66343000D01*
X145716122Y-66343000D01*
X145559440Y-66311834D01*
X145411849Y-66250700D01*
X145411848Y-66250700D01*
X145411847Y-66250699D01*
X145279018Y-66161945D01*
X145166055Y-66048982D01*
X145077301Y-65916153D01*
X145016166Y-65768560D01*
X144985000Y-65611877D01*
X144985000Y-65452123D01*
X145016166Y-65295440D01*
X145046896Y-65221250D01*
X145077300Y-65147849D01*
X145166055Y-65015018D01*
X145279018Y-64902055D01*
X145279561Y-64901692D01*
X145411847Y-64813301D01*
X145559440Y-64752166D01*
X145716122Y-64721000D01*
X145875878Y-64721000D01*
X146032560Y-64752166D01*
X146032560Y-64752166D01*
G37*
G36*
X123747000Y-66343000D02*
G01*
X122125000Y-66343000D01*
X122125000Y-64721000D01*
X123747000Y-64721000D01*
X123747000Y-66343000D01*
X123747000Y-66343000D01*
G37*
G36*
X151112560Y-64752166D02*
G01*
X151260153Y-64813301D01*
X151392439Y-64901692D01*
X151392982Y-64902055D01*
X151505945Y-65015018D01*
X151594700Y-65147849D01*
X151625104Y-65221250D01*
X151655834Y-65295440D01*
X151687000Y-65452123D01*
X151687000Y-65611877D01*
X151655834Y-65768560D01*
X151594699Y-65916153D01*
X151505945Y-66048982D01*
X151392982Y-66161945D01*
X151260153Y-66250699D01*
X151260152Y-66250700D01*
X151260151Y-66250700D01*
X151112560Y-66311834D01*
X150955878Y-66343000D01*
X150796122Y-66343000D01*
X150639440Y-66311834D01*
X150491849Y-66250700D01*
X150491848Y-66250700D01*
X150491847Y-66250699D01*
X150359018Y-66161945D01*
X150246055Y-66048982D01*
X150157301Y-65916153D01*
X150096166Y-65768560D01*
X150065000Y-65611877D01*
X150065000Y-65452123D01*
X150096166Y-65295440D01*
X150126896Y-65221250D01*
X150157300Y-65147849D01*
X150246055Y-65015018D01*
X150359018Y-64902055D01*
X150359561Y-64901692D01*
X150491847Y-64813301D01*
X150639440Y-64752166D01*
X150796122Y-64721000D01*
X150955878Y-64721000D01*
X151112560Y-64752166D01*
X151112560Y-64752166D01*
G37*
G36*
X176148425Y-63263988D02*
G01*
X176314710Y-63297063D01*
X176497336Y-63372709D01*
X176661694Y-63482530D01*
X176801470Y-63622306D01*
X176911291Y-63786664D01*
X176986937Y-63969290D01*
X177025500Y-64163164D01*
X177025500Y-64360836D01*
X176986937Y-64554710D01*
X176911291Y-64737336D01*
X176801470Y-64901694D01*
X176661694Y-65041470D01*
X176497336Y-65151291D01*
X176314710Y-65226937D01*
X176148425Y-65260012D01*
X176120837Y-65265500D01*
X175923163Y-65265500D01*
X175895575Y-65260012D01*
X175729290Y-65226937D01*
X175546664Y-65151291D01*
X175382306Y-65041470D01*
X175242530Y-64901694D01*
X175132709Y-64737336D01*
X175057063Y-64554710D01*
X175018500Y-64360836D01*
X175018500Y-64163164D01*
X175057063Y-63969290D01*
X175132709Y-63786664D01*
X175242530Y-63622306D01*
X175382306Y-63482530D01*
X175546664Y-63372709D01*
X175729290Y-63297063D01*
X175895575Y-63263988D01*
X175923163Y-63258500D01*
X176120837Y-63258500D01*
X176148425Y-63263988D01*
X176148425Y-63263988D01*
G37*
G36*
X130792560Y-62212166D02*
G01*
X130940153Y-62273301D01*
X131072982Y-62362055D01*
X131185945Y-62475018D01*
X131274699Y-62607847D01*
X131335834Y-62755440D01*
X131367000Y-62912123D01*
X131367000Y-63071877D01*
X131335834Y-63228560D01*
X131274699Y-63376153D01*
X131185945Y-63508982D01*
X131072982Y-63621945D01*
X130940153Y-63710699D01*
X130940152Y-63710700D01*
X130940151Y-63710700D01*
X130792560Y-63771834D01*
X130635878Y-63803000D01*
X130476122Y-63803000D01*
X130319440Y-63771834D01*
X130171849Y-63710700D01*
X130171848Y-63710700D01*
X130171847Y-63710699D01*
X130039018Y-63621945D01*
X129926055Y-63508982D01*
X129837301Y-63376153D01*
X129776166Y-63228560D01*
X129745000Y-63071877D01*
X129745000Y-62912123D01*
X129776166Y-62755440D01*
X129837301Y-62607847D01*
X129926055Y-62475018D01*
X130039018Y-62362055D01*
X130171847Y-62273301D01*
X130319440Y-62212166D01*
X130476122Y-62181000D01*
X130635878Y-62181000D01*
X130792560Y-62212166D01*
X130792560Y-62212166D01*
G37*
G36*
X158732560Y-62212166D02*
G01*
X158880153Y-62273301D01*
X159012982Y-62362055D01*
X159125945Y-62475018D01*
X159214699Y-62607847D01*
X159275834Y-62755440D01*
X159307000Y-62912123D01*
X159307000Y-63071877D01*
X159275834Y-63228560D01*
X159214699Y-63376153D01*
X159125945Y-63508982D01*
X159012982Y-63621945D01*
X158880153Y-63710699D01*
X158880152Y-63710700D01*
X158880151Y-63710700D01*
X158732560Y-63771834D01*
X158575878Y-63803000D01*
X158416122Y-63803000D01*
X158259440Y-63771834D01*
X158111849Y-63710700D01*
X158111848Y-63710700D01*
X158111847Y-63710699D01*
X157979018Y-63621945D01*
X157866055Y-63508982D01*
X157777301Y-63376153D01*
X157716166Y-63228560D01*
X157685000Y-63071877D01*
X157685000Y-62912123D01*
X157716166Y-62755440D01*
X157777301Y-62607847D01*
X157866055Y-62475018D01*
X157979018Y-62362055D01*
X158111847Y-62273301D01*
X158259440Y-62212166D01*
X158416122Y-62181000D01*
X158575878Y-62181000D01*
X158732560Y-62212166D01*
X158732560Y-62212166D01*
G37*
G36*
X153652560Y-62212166D02*
G01*
X153800153Y-62273301D01*
X153932982Y-62362055D01*
X154045945Y-62475018D01*
X154134699Y-62607847D01*
X154195834Y-62755440D01*
X154227000Y-62912123D01*
X154227000Y-63071877D01*
X154195834Y-63228560D01*
X154134699Y-63376153D01*
X154045945Y-63508982D01*
X153932982Y-63621945D01*
X153800153Y-63710699D01*
X153800152Y-63710700D01*
X153800151Y-63710700D01*
X153652560Y-63771834D01*
X153495878Y-63803000D01*
X153336122Y-63803000D01*
X153179440Y-63771834D01*
X153031849Y-63710700D01*
X153031848Y-63710700D01*
X153031847Y-63710699D01*
X152899018Y-63621945D01*
X152786055Y-63508982D01*
X152697301Y-63376153D01*
X152636166Y-63228560D01*
X152605000Y-63071877D01*
X152605000Y-62912123D01*
X152636166Y-62755440D01*
X152697301Y-62607847D01*
X152786055Y-62475018D01*
X152899018Y-62362055D01*
X153031847Y-62273301D01*
X153179440Y-62212166D01*
X153336122Y-62181000D01*
X153495878Y-62181000D01*
X153652560Y-62212166D01*
X153652560Y-62212166D01*
G37*
G36*
X161272560Y-62212166D02*
G01*
X161420153Y-62273301D01*
X161552982Y-62362055D01*
X161665945Y-62475018D01*
X161754699Y-62607847D01*
X161815834Y-62755440D01*
X161847000Y-62912123D01*
X161847000Y-63071877D01*
X161815834Y-63228560D01*
X161754699Y-63376153D01*
X161665945Y-63508982D01*
X161552982Y-63621945D01*
X161420153Y-63710699D01*
X161420152Y-63710700D01*
X161420151Y-63710700D01*
X161272560Y-63771834D01*
X161115878Y-63803000D01*
X160956122Y-63803000D01*
X160799440Y-63771834D01*
X160651849Y-63710700D01*
X160651848Y-63710700D01*
X160651847Y-63710699D01*
X160519018Y-63621945D01*
X160406055Y-63508982D01*
X160317301Y-63376153D01*
X160256166Y-63228560D01*
X160225000Y-63071877D01*
X160225000Y-62912123D01*
X160256166Y-62755440D01*
X160317301Y-62607847D01*
X160406055Y-62475018D01*
X160519018Y-62362055D01*
X160651847Y-62273301D01*
X160799440Y-62212166D01*
X160956122Y-62181000D01*
X161115878Y-62181000D01*
X161272560Y-62212166D01*
X161272560Y-62212166D01*
G37*
G36*
X163812560Y-62212166D02*
G01*
X163960153Y-62273301D01*
X164092982Y-62362055D01*
X164205945Y-62475018D01*
X164294699Y-62607847D01*
X164355834Y-62755440D01*
X164387000Y-62912123D01*
X164387000Y-63071877D01*
X164355834Y-63228560D01*
X164294699Y-63376153D01*
X164205945Y-63508982D01*
X164092982Y-63621945D01*
X163960153Y-63710699D01*
X163960152Y-63710700D01*
X163960151Y-63710700D01*
X163812560Y-63771834D01*
X163655878Y-63803000D01*
X163496122Y-63803000D01*
X163339440Y-63771834D01*
X163191849Y-63710700D01*
X163191848Y-63710700D01*
X163191847Y-63710699D01*
X163059018Y-63621945D01*
X162946055Y-63508982D01*
X162857301Y-63376153D01*
X162796166Y-63228560D01*
X162765000Y-63071877D01*
X162765000Y-62912123D01*
X162796166Y-62755440D01*
X162857301Y-62607847D01*
X162946055Y-62475018D01*
X163059018Y-62362055D01*
X163191847Y-62273301D01*
X163339440Y-62212166D01*
X163496122Y-62181000D01*
X163655878Y-62181000D01*
X163812560Y-62212166D01*
X163812560Y-62212166D01*
G37*
G36*
X148572560Y-62212166D02*
G01*
X148720153Y-62273301D01*
X148852982Y-62362055D01*
X148965945Y-62475018D01*
X149054699Y-62607847D01*
X149115834Y-62755440D01*
X149147000Y-62912123D01*
X149147000Y-63071877D01*
X149115834Y-63228560D01*
X149054699Y-63376153D01*
X148965945Y-63508982D01*
X148852982Y-63621945D01*
X148720153Y-63710699D01*
X148720152Y-63710700D01*
X148720151Y-63710700D01*
X148572560Y-63771834D01*
X148415878Y-63803000D01*
X148256122Y-63803000D01*
X148099440Y-63771834D01*
X147951849Y-63710700D01*
X147951848Y-63710700D01*
X147951847Y-63710699D01*
X147819018Y-63621945D01*
X147706055Y-63508982D01*
X147617301Y-63376153D01*
X147556166Y-63228560D01*
X147525000Y-63071877D01*
X147525000Y-62912123D01*
X147556166Y-62755440D01*
X147617301Y-62607847D01*
X147706055Y-62475018D01*
X147819018Y-62362055D01*
X147951847Y-62273301D01*
X148099440Y-62212166D01*
X148256122Y-62181000D01*
X148415878Y-62181000D01*
X148572560Y-62212166D01*
X148572560Y-62212166D01*
G37*
G36*
X166352560Y-62212166D02*
G01*
X166500153Y-62273301D01*
X166632982Y-62362055D01*
X166745945Y-62475018D01*
X166834699Y-62607847D01*
X166895834Y-62755440D01*
X166927000Y-62912123D01*
X166927000Y-63071877D01*
X166895834Y-63228560D01*
X166834699Y-63376153D01*
X166745945Y-63508982D01*
X166632982Y-63621945D01*
X166500153Y-63710699D01*
X166500152Y-63710700D01*
X166500151Y-63710700D01*
X166352560Y-63771834D01*
X166195878Y-63803000D01*
X166036122Y-63803000D01*
X165879440Y-63771834D01*
X165731849Y-63710700D01*
X165731848Y-63710700D01*
X165731847Y-63710699D01*
X165599018Y-63621945D01*
X165486055Y-63508982D01*
X165397301Y-63376153D01*
X165336166Y-63228560D01*
X165305000Y-63071877D01*
X165305000Y-62912123D01*
X165336166Y-62755440D01*
X165397301Y-62607847D01*
X165486055Y-62475018D01*
X165599018Y-62362055D01*
X165731847Y-62273301D01*
X165879440Y-62212166D01*
X166036122Y-62181000D01*
X166195878Y-62181000D01*
X166352560Y-62212166D01*
X166352560Y-62212166D01*
G37*
G36*
X168892560Y-62212166D02*
G01*
X169040153Y-62273301D01*
X169172982Y-62362055D01*
X169285945Y-62475018D01*
X169374699Y-62607847D01*
X169435834Y-62755440D01*
X169467000Y-62912123D01*
X169467000Y-63071877D01*
X169435834Y-63228560D01*
X169374699Y-63376153D01*
X169285945Y-63508982D01*
X169172982Y-63621945D01*
X169040153Y-63710699D01*
X169040152Y-63710700D01*
X169040151Y-63710700D01*
X168892560Y-63771834D01*
X168735878Y-63803000D01*
X168576122Y-63803000D01*
X168419440Y-63771834D01*
X168271849Y-63710700D01*
X168271848Y-63710700D01*
X168271847Y-63710699D01*
X168139018Y-63621945D01*
X168026055Y-63508982D01*
X167937301Y-63376153D01*
X167876166Y-63228560D01*
X167845000Y-63071877D01*
X167845000Y-62912123D01*
X167876166Y-62755440D01*
X167937301Y-62607847D01*
X168026055Y-62475018D01*
X168139018Y-62362055D01*
X168271847Y-62273301D01*
X168419440Y-62212166D01*
X168576122Y-62181000D01*
X168735878Y-62181000D01*
X168892560Y-62212166D01*
X168892560Y-62212166D01*
G37*
G36*
X151112560Y-62212166D02*
G01*
X151260153Y-62273301D01*
X151392982Y-62362055D01*
X151505945Y-62475018D01*
X151594699Y-62607847D01*
X151655834Y-62755440D01*
X151687000Y-62912123D01*
X151687000Y-63071877D01*
X151655834Y-63228560D01*
X151594699Y-63376153D01*
X151505945Y-63508982D01*
X151392982Y-63621945D01*
X151260153Y-63710699D01*
X151260152Y-63710700D01*
X151260151Y-63710700D01*
X151112560Y-63771834D01*
X150955878Y-63803000D01*
X150796122Y-63803000D01*
X150639440Y-63771834D01*
X150491849Y-63710700D01*
X150491848Y-63710700D01*
X150491847Y-63710699D01*
X150359018Y-63621945D01*
X150246055Y-63508982D01*
X150157301Y-63376153D01*
X150096166Y-63228560D01*
X150065000Y-63071877D01*
X150065000Y-62912123D01*
X150096166Y-62755440D01*
X150157301Y-62607847D01*
X150246055Y-62475018D01*
X150359018Y-62362055D01*
X150491847Y-62273301D01*
X150639440Y-62212166D01*
X150796122Y-62181000D01*
X150955878Y-62181000D01*
X151112560Y-62212166D01*
X151112560Y-62212166D01*
G37*
G36*
X146032560Y-62212166D02*
G01*
X146180153Y-62273301D01*
X146312982Y-62362055D01*
X146425945Y-62475018D01*
X146514699Y-62607847D01*
X146575834Y-62755440D01*
X146607000Y-62912123D01*
X146607000Y-63071877D01*
X146575834Y-63228560D01*
X146514699Y-63376153D01*
X146425945Y-63508982D01*
X146312982Y-63621945D01*
X146180153Y-63710699D01*
X146180152Y-63710700D01*
X146180151Y-63710700D01*
X146032560Y-63771834D01*
X145875878Y-63803000D01*
X145716122Y-63803000D01*
X145559440Y-63771834D01*
X145411849Y-63710700D01*
X145411848Y-63710700D01*
X145411847Y-63710699D01*
X145279018Y-63621945D01*
X145166055Y-63508982D01*
X145077301Y-63376153D01*
X145016166Y-63228560D01*
X144985000Y-63071877D01*
X144985000Y-62912123D01*
X145016166Y-62755440D01*
X145077301Y-62607847D01*
X145166055Y-62475018D01*
X145279018Y-62362055D01*
X145411847Y-62273301D01*
X145559440Y-62212166D01*
X145716122Y-62181000D01*
X145875878Y-62181000D01*
X146032560Y-62212166D01*
X146032560Y-62212166D01*
G37*
G36*
X171432560Y-62212166D02*
G01*
X171580153Y-62273301D01*
X171712982Y-62362055D01*
X171825945Y-62475018D01*
X171914699Y-62607847D01*
X171975834Y-62755440D01*
X172007000Y-62912123D01*
X172007000Y-63071877D01*
X171975834Y-63228560D01*
X171914699Y-63376153D01*
X171825945Y-63508982D01*
X171712982Y-63621945D01*
X171580153Y-63710699D01*
X171580152Y-63710700D01*
X171580151Y-63710700D01*
X171432560Y-63771834D01*
X171275878Y-63803000D01*
X171116122Y-63803000D01*
X170959440Y-63771834D01*
X170811849Y-63710700D01*
X170811848Y-63710700D01*
X170811847Y-63710699D01*
X170679018Y-63621945D01*
X170566055Y-63508982D01*
X170477301Y-63376153D01*
X170416166Y-63228560D01*
X170385000Y-63071877D01*
X170385000Y-62912123D01*
X170416166Y-62755440D01*
X170477301Y-62607847D01*
X170566055Y-62475018D01*
X170679018Y-62362055D01*
X170811847Y-62273301D01*
X170959440Y-62212166D01*
X171116122Y-62181000D01*
X171275878Y-62181000D01*
X171432560Y-62212166D01*
X171432560Y-62212166D01*
G37*
G36*
X123172560Y-62212166D02*
G01*
X123320153Y-62273301D01*
X123452982Y-62362055D01*
X123565945Y-62475018D01*
X123654699Y-62607847D01*
X123715834Y-62755440D01*
X123747000Y-62912123D01*
X123747000Y-63071877D01*
X123715834Y-63228560D01*
X123654699Y-63376153D01*
X123565945Y-63508982D01*
X123452982Y-63621945D01*
X123320153Y-63710699D01*
X123320152Y-63710700D01*
X123320151Y-63710700D01*
X123172560Y-63771834D01*
X123015878Y-63803000D01*
X122856122Y-63803000D01*
X122699440Y-63771834D01*
X122551849Y-63710700D01*
X122551848Y-63710700D01*
X122551847Y-63710699D01*
X122419018Y-63621945D01*
X122306055Y-63508982D01*
X122217301Y-63376153D01*
X122156166Y-63228560D01*
X122125000Y-63071877D01*
X122125000Y-62912123D01*
X122156166Y-62755440D01*
X122217301Y-62607847D01*
X122306055Y-62475018D01*
X122419018Y-62362055D01*
X122551847Y-62273301D01*
X122699440Y-62212166D01*
X122856122Y-62181000D01*
X123015878Y-62181000D01*
X123172560Y-62212166D01*
X123172560Y-62212166D01*
G37*
G36*
X128252560Y-62212166D02*
G01*
X128400153Y-62273301D01*
X128532982Y-62362055D01*
X128645945Y-62475018D01*
X128734699Y-62607847D01*
X128795834Y-62755440D01*
X128827000Y-62912123D01*
X128827000Y-63071877D01*
X128795834Y-63228560D01*
X128734699Y-63376153D01*
X128645945Y-63508982D01*
X128532982Y-63621945D01*
X128400153Y-63710699D01*
X128400152Y-63710700D01*
X128400151Y-63710700D01*
X128252560Y-63771834D01*
X128095878Y-63803000D01*
X127936122Y-63803000D01*
X127779440Y-63771834D01*
X127631849Y-63710700D01*
X127631848Y-63710700D01*
X127631847Y-63710699D01*
X127499018Y-63621945D01*
X127386055Y-63508982D01*
X127297301Y-63376153D01*
X127236166Y-63228560D01*
X127205000Y-63071877D01*
X127205000Y-62912123D01*
X127236166Y-62755440D01*
X127297301Y-62607847D01*
X127386055Y-62475018D01*
X127499018Y-62362055D01*
X127631847Y-62273301D01*
X127779440Y-62212166D01*
X127936122Y-62181000D01*
X128095878Y-62181000D01*
X128252560Y-62212166D01*
X128252560Y-62212166D01*
G37*
G36*
X133332560Y-62212166D02*
G01*
X133480153Y-62273301D01*
X133612982Y-62362055D01*
X133725945Y-62475018D01*
X133814699Y-62607847D01*
X133875834Y-62755440D01*
X133907000Y-62912123D01*
X133907000Y-63071877D01*
X133875834Y-63228560D01*
X133814699Y-63376153D01*
X133725945Y-63508982D01*
X133612982Y-63621945D01*
X133480153Y-63710699D01*
X133480152Y-63710700D01*
X133480151Y-63710700D01*
X133332560Y-63771834D01*
X133175878Y-63803000D01*
X133016122Y-63803000D01*
X132859440Y-63771834D01*
X132711849Y-63710700D01*
X132711848Y-63710700D01*
X132711847Y-63710699D01*
X132579018Y-63621945D01*
X132466055Y-63508982D01*
X132377301Y-63376153D01*
X132316166Y-63228560D01*
X132285000Y-63071877D01*
X132285000Y-62912123D01*
X132316166Y-62755440D01*
X132377301Y-62607847D01*
X132466055Y-62475018D01*
X132579018Y-62362055D01*
X132711847Y-62273301D01*
X132859440Y-62212166D01*
X133016122Y-62181000D01*
X133175878Y-62181000D01*
X133332560Y-62212166D01*
X133332560Y-62212166D01*
G37*
G36*
X135872560Y-62212166D02*
G01*
X136020153Y-62273301D01*
X136152982Y-62362055D01*
X136265945Y-62475018D01*
X136354699Y-62607847D01*
X136415834Y-62755440D01*
X136447000Y-62912123D01*
X136447000Y-63071877D01*
X136415834Y-63228560D01*
X136354699Y-63376153D01*
X136265945Y-63508982D01*
X136152982Y-63621945D01*
X136020153Y-63710699D01*
X136020152Y-63710700D01*
X136020151Y-63710700D01*
X135872560Y-63771834D01*
X135715878Y-63803000D01*
X135556122Y-63803000D01*
X135399440Y-63771834D01*
X135251849Y-63710700D01*
X135251848Y-63710700D01*
X135251847Y-63710699D01*
X135119018Y-63621945D01*
X135006055Y-63508982D01*
X134917301Y-63376153D01*
X134856166Y-63228560D01*
X134825000Y-63071877D01*
X134825000Y-62912123D01*
X134856166Y-62755440D01*
X134917301Y-62607847D01*
X135006055Y-62475018D01*
X135119018Y-62362055D01*
X135251847Y-62273301D01*
X135399440Y-62212166D01*
X135556122Y-62181000D01*
X135715878Y-62181000D01*
X135872560Y-62212166D01*
X135872560Y-62212166D01*
G37*
G36*
X138412560Y-62212166D02*
G01*
X138560153Y-62273301D01*
X138692982Y-62362055D01*
X138805945Y-62475018D01*
X138894699Y-62607847D01*
X138955834Y-62755440D01*
X138987000Y-62912123D01*
X138987000Y-63071877D01*
X138955834Y-63228560D01*
X138894699Y-63376153D01*
X138805945Y-63508982D01*
X138692982Y-63621945D01*
X138560153Y-63710699D01*
X138560152Y-63710700D01*
X138560151Y-63710700D01*
X138412560Y-63771834D01*
X138255878Y-63803000D01*
X138096122Y-63803000D01*
X137939440Y-63771834D01*
X137791849Y-63710700D01*
X137791848Y-63710700D01*
X137791847Y-63710699D01*
X137659018Y-63621945D01*
X137546055Y-63508982D01*
X137457301Y-63376153D01*
X137396166Y-63228560D01*
X137365000Y-63071877D01*
X137365000Y-62912123D01*
X137396166Y-62755440D01*
X137457301Y-62607847D01*
X137546055Y-62475018D01*
X137659018Y-62362055D01*
X137791847Y-62273301D01*
X137939440Y-62212166D01*
X138096122Y-62181000D01*
X138255878Y-62181000D01*
X138412560Y-62212166D01*
X138412560Y-62212166D01*
G37*
G36*
X140952560Y-62212166D02*
G01*
X141100153Y-62273301D01*
X141232982Y-62362055D01*
X141345945Y-62475018D01*
X141434699Y-62607847D01*
X141495834Y-62755440D01*
X141527000Y-62912123D01*
X141527000Y-63071877D01*
X141495834Y-63228560D01*
X141434699Y-63376153D01*
X141345945Y-63508982D01*
X141232982Y-63621945D01*
X141100153Y-63710699D01*
X141100152Y-63710700D01*
X141100151Y-63710700D01*
X140952560Y-63771834D01*
X140795878Y-63803000D01*
X140636122Y-63803000D01*
X140479440Y-63771834D01*
X140331849Y-63710700D01*
X140331848Y-63710700D01*
X140331847Y-63710699D01*
X140199018Y-63621945D01*
X140086055Y-63508982D01*
X139997301Y-63376153D01*
X139936166Y-63228560D01*
X139905000Y-63071877D01*
X139905000Y-62912123D01*
X139936166Y-62755440D01*
X139997301Y-62607847D01*
X140086055Y-62475018D01*
X140199018Y-62362055D01*
X140331847Y-62273301D01*
X140479440Y-62212166D01*
X140636122Y-62181000D01*
X140795878Y-62181000D01*
X140952560Y-62212166D01*
X140952560Y-62212166D01*
G37*
G36*
X143492560Y-62212166D02*
G01*
X143640153Y-62273301D01*
X143772982Y-62362055D01*
X143885945Y-62475018D01*
X143974699Y-62607847D01*
X144035834Y-62755440D01*
X144067000Y-62912123D01*
X144067000Y-63071877D01*
X144035834Y-63228560D01*
X143974699Y-63376153D01*
X143885945Y-63508982D01*
X143772982Y-63621945D01*
X143640153Y-63710699D01*
X143640152Y-63710700D01*
X143640151Y-63710700D01*
X143492560Y-63771834D01*
X143335878Y-63803000D01*
X143176122Y-63803000D01*
X143019440Y-63771834D01*
X142871849Y-63710700D01*
X142871848Y-63710700D01*
X142871847Y-63710699D01*
X142739018Y-63621945D01*
X142626055Y-63508982D01*
X142537301Y-63376153D01*
X142476166Y-63228560D01*
X142445000Y-63071877D01*
X142445000Y-62912123D01*
X142476166Y-62755440D01*
X142537301Y-62607847D01*
X142626055Y-62475018D01*
X142739018Y-62362055D01*
X142871847Y-62273301D01*
X143019440Y-62212166D01*
X143176122Y-62181000D01*
X143335878Y-62181000D01*
X143492560Y-62212166D01*
X143492560Y-62212166D01*
G37*
G36*
X125712560Y-62212166D02*
G01*
X125860153Y-62273301D01*
X125992982Y-62362055D01*
X126105945Y-62475018D01*
X126194699Y-62607847D01*
X126255834Y-62755440D01*
X126287000Y-62912123D01*
X126287000Y-63071877D01*
X126255834Y-63228560D01*
X126194699Y-63376153D01*
X126105945Y-63508982D01*
X125992982Y-63621945D01*
X125860153Y-63710699D01*
X125860152Y-63710700D01*
X125860151Y-63710700D01*
X125712560Y-63771834D01*
X125555878Y-63803000D01*
X125396122Y-63803000D01*
X125239440Y-63771834D01*
X125091849Y-63710700D01*
X125091848Y-63710700D01*
X125091847Y-63710699D01*
X124959018Y-63621945D01*
X124846055Y-63508982D01*
X124757301Y-63376153D01*
X124696166Y-63228560D01*
X124665000Y-63071877D01*
X124665000Y-62912123D01*
X124696166Y-62755440D01*
X124757301Y-62607847D01*
X124846055Y-62475018D01*
X124959018Y-62362055D01*
X125091847Y-62273301D01*
X125239440Y-62212166D01*
X125396122Y-62181000D01*
X125555878Y-62181000D01*
X125712560Y-62212166D01*
X125712560Y-62212166D01*
G37*
G36*
X156192560Y-62212166D02*
G01*
X156340153Y-62273301D01*
X156472982Y-62362055D01*
X156585945Y-62475018D01*
X156674699Y-62607847D01*
X156735834Y-62755440D01*
X156767000Y-62912123D01*
X156767000Y-63071877D01*
X156735834Y-63228560D01*
X156674699Y-63376153D01*
X156585945Y-63508982D01*
X156472982Y-63621945D01*
X156340153Y-63710699D01*
X156340152Y-63710700D01*
X156340151Y-63710700D01*
X156192560Y-63771834D01*
X156035878Y-63803000D01*
X155876122Y-63803000D01*
X155719440Y-63771834D01*
X155571849Y-63710700D01*
X155571848Y-63710700D01*
X155571847Y-63710699D01*
X155439018Y-63621945D01*
X155326055Y-63508982D01*
X155237301Y-63376153D01*
X155176166Y-63228560D01*
X155145000Y-63071877D01*
X155145000Y-62912123D01*
X155176166Y-62755440D01*
X155237301Y-62607847D01*
X155326055Y-62475018D01*
X155439018Y-62362055D01*
X155571847Y-62273301D01*
X155719440Y-62212166D01*
X155876122Y-62181000D01*
X156035878Y-62181000D01*
X156192560Y-62212166D01*
X156192560Y-62212166D01*
G37*
M02*
