G04 #@! TF.GenerationSoftware,KiCad,Pcbnew,(5.1.2)-1*
G04 #@! TF.CreationDate,2020-10-04T17:45:05-05:00*
G04 #@! TF.ProjectId,Senior Design,53656e69-6f72-4204-9465-7369676e2e6b,rev?*
G04 #@! TF.SameCoordinates,Original*
G04 #@! TF.FileFunction,Copper,L1,Top*
G04 #@! TF.FilePolarity,Positive*
%FSLAX46Y46*%
G04 Gerber Fmt 4.6, Leading zero omitted, Abs format (unit mm)*
G04 Created by KiCad (PCBNEW (5.1.2)-1) date 2020-10-04 17:45:05*
%MOMM*%
%LPD*%
G04 APERTURE LIST*
%ADD10C,1.905000*%
%ADD11C,1.520000*%
%ADD12R,1.520000X1.520000*%
%ADD13R,1.100000X0.400000*%
%ADD14C,1.524000*%
%ADD15C,3.810000*%
%ADD16R,1.750000X0.550000*%
%ADD17R,1.300000X2.000000*%
%ADD18R,2.000000X2.000000*%
%ADD19C,0.100000*%
%ADD20C,0.950000*%
%ADD21C,0.800000*%
%ADD22C,0.508000*%
%ADD23C,0.381000*%
%ADD24C,0.762000*%
%ADD25C,0.254000*%
G04 APERTURE END LIST*
D10*
X176022000Y-64262000D03*
D11*
X158496000Y-62992000D03*
X153416000Y-62992000D03*
X161036000Y-62992000D03*
X163576000Y-62992000D03*
X148336000Y-62992000D03*
X166116000Y-62992000D03*
X168656000Y-62992000D03*
X148336000Y-65532000D03*
X163576000Y-65532000D03*
X155956000Y-65532000D03*
X158496000Y-65532000D03*
X150876000Y-62992000D03*
X155956000Y-62992000D03*
X153416000Y-65532000D03*
X166116000Y-65532000D03*
X168656000Y-65532000D03*
X171196000Y-65532000D03*
X150876000Y-65532000D03*
X161036000Y-65532000D03*
X171196000Y-62992000D03*
X122936000Y-62992000D03*
X128016000Y-62992000D03*
X133096000Y-62992000D03*
X135636000Y-62992000D03*
X138176000Y-62992000D03*
X140716000Y-62992000D03*
X143256000Y-62992000D03*
D12*
X122936000Y-65532000D03*
D11*
X128016000Y-65532000D03*
X138176000Y-65532000D03*
X140716000Y-65532000D03*
X143256000Y-65532000D03*
X145796000Y-65532000D03*
X133096000Y-65532000D03*
X130556000Y-65532000D03*
X125476000Y-62992000D03*
X125476000Y-65532000D03*
X130556000Y-62992000D03*
X135636000Y-65532000D03*
X145796000Y-62992000D03*
D13*
X123444000Y-71800000D03*
X123444000Y-71150000D03*
X123444000Y-70500000D03*
X123444000Y-69850000D03*
X127744000Y-69850000D03*
X127744000Y-70500000D03*
X127744000Y-71150000D03*
X127744000Y-71800000D03*
D14*
X166624000Y-85598000D03*
X166624000Y-83058000D03*
X166624000Y-80518000D03*
X166624000Y-77978000D03*
X166624000Y-75438000D03*
X166624000Y-72898000D03*
X166624000Y-70358000D03*
D15*
X118618000Y-80518000D03*
X118618000Y-88392000D03*
D16*
X137558000Y-79883000D03*
X137558000Y-81153000D03*
X137558000Y-82423000D03*
X137558000Y-83693000D03*
X130158000Y-83693000D03*
X130158000Y-82423000D03*
X130158000Y-81153000D03*
X130158000Y-79883000D03*
D17*
X145422000Y-70676000D03*
D18*
X144272000Y-74676000D03*
D17*
X143122000Y-70676000D03*
D19*
G36*
X152456779Y-84870144D02*
G01*
X152479834Y-84873563D01*
X152502443Y-84879227D01*
X152524387Y-84887079D01*
X152545457Y-84897044D01*
X152565448Y-84909026D01*
X152584168Y-84922910D01*
X152601438Y-84938562D01*
X152617090Y-84955832D01*
X152630974Y-84974552D01*
X152642956Y-84994543D01*
X152652921Y-85015613D01*
X152660773Y-85037557D01*
X152666437Y-85060166D01*
X152669856Y-85083221D01*
X152671000Y-85106500D01*
X152671000Y-85581500D01*
X152669856Y-85604779D01*
X152666437Y-85627834D01*
X152660773Y-85650443D01*
X152652921Y-85672387D01*
X152642956Y-85693457D01*
X152630974Y-85713448D01*
X152617090Y-85732168D01*
X152601438Y-85749438D01*
X152584168Y-85765090D01*
X152565448Y-85778974D01*
X152545457Y-85790956D01*
X152524387Y-85800921D01*
X152502443Y-85808773D01*
X152479834Y-85814437D01*
X152456779Y-85817856D01*
X152433500Y-85819000D01*
X151858500Y-85819000D01*
X151835221Y-85817856D01*
X151812166Y-85814437D01*
X151789557Y-85808773D01*
X151767613Y-85800921D01*
X151746543Y-85790956D01*
X151726552Y-85778974D01*
X151707832Y-85765090D01*
X151690562Y-85749438D01*
X151674910Y-85732168D01*
X151661026Y-85713448D01*
X151649044Y-85693457D01*
X151639079Y-85672387D01*
X151631227Y-85650443D01*
X151625563Y-85627834D01*
X151622144Y-85604779D01*
X151621000Y-85581500D01*
X151621000Y-85106500D01*
X151622144Y-85083221D01*
X151625563Y-85060166D01*
X151631227Y-85037557D01*
X151639079Y-85015613D01*
X151649044Y-84994543D01*
X151661026Y-84974552D01*
X151674910Y-84955832D01*
X151690562Y-84938562D01*
X151707832Y-84922910D01*
X151726552Y-84909026D01*
X151746543Y-84897044D01*
X151767613Y-84887079D01*
X151789557Y-84879227D01*
X151812166Y-84873563D01*
X151835221Y-84870144D01*
X151858500Y-84869000D01*
X152433500Y-84869000D01*
X152456779Y-84870144D01*
X152456779Y-84870144D01*
G37*
D20*
X152146000Y-85344000D03*
D19*
G36*
X150706779Y-84870144D02*
G01*
X150729834Y-84873563D01*
X150752443Y-84879227D01*
X150774387Y-84887079D01*
X150795457Y-84897044D01*
X150815448Y-84909026D01*
X150834168Y-84922910D01*
X150851438Y-84938562D01*
X150867090Y-84955832D01*
X150880974Y-84974552D01*
X150892956Y-84994543D01*
X150902921Y-85015613D01*
X150910773Y-85037557D01*
X150916437Y-85060166D01*
X150919856Y-85083221D01*
X150921000Y-85106500D01*
X150921000Y-85581500D01*
X150919856Y-85604779D01*
X150916437Y-85627834D01*
X150910773Y-85650443D01*
X150902921Y-85672387D01*
X150892956Y-85693457D01*
X150880974Y-85713448D01*
X150867090Y-85732168D01*
X150851438Y-85749438D01*
X150834168Y-85765090D01*
X150815448Y-85778974D01*
X150795457Y-85790956D01*
X150774387Y-85800921D01*
X150752443Y-85808773D01*
X150729834Y-85814437D01*
X150706779Y-85817856D01*
X150683500Y-85819000D01*
X150108500Y-85819000D01*
X150085221Y-85817856D01*
X150062166Y-85814437D01*
X150039557Y-85808773D01*
X150017613Y-85800921D01*
X149996543Y-85790956D01*
X149976552Y-85778974D01*
X149957832Y-85765090D01*
X149940562Y-85749438D01*
X149924910Y-85732168D01*
X149911026Y-85713448D01*
X149899044Y-85693457D01*
X149889079Y-85672387D01*
X149881227Y-85650443D01*
X149875563Y-85627834D01*
X149872144Y-85604779D01*
X149871000Y-85581500D01*
X149871000Y-85106500D01*
X149872144Y-85083221D01*
X149875563Y-85060166D01*
X149881227Y-85037557D01*
X149889079Y-85015613D01*
X149899044Y-84994543D01*
X149911026Y-84974552D01*
X149924910Y-84955832D01*
X149940562Y-84938562D01*
X149957832Y-84922910D01*
X149976552Y-84909026D01*
X149996543Y-84897044D01*
X150017613Y-84887079D01*
X150039557Y-84879227D01*
X150062166Y-84873563D01*
X150085221Y-84870144D01*
X150108500Y-84869000D01*
X150683500Y-84869000D01*
X150706779Y-84870144D01*
X150706779Y-84870144D01*
G37*
D20*
X150396000Y-85344000D03*
D19*
G36*
X150706779Y-82965144D02*
G01*
X150729834Y-82968563D01*
X150752443Y-82974227D01*
X150774387Y-82982079D01*
X150795457Y-82992044D01*
X150815448Y-83004026D01*
X150834168Y-83017910D01*
X150851438Y-83033562D01*
X150867090Y-83050832D01*
X150880974Y-83069552D01*
X150892956Y-83089543D01*
X150902921Y-83110613D01*
X150910773Y-83132557D01*
X150916437Y-83155166D01*
X150919856Y-83178221D01*
X150921000Y-83201500D01*
X150921000Y-83676500D01*
X150919856Y-83699779D01*
X150916437Y-83722834D01*
X150910773Y-83745443D01*
X150902921Y-83767387D01*
X150892956Y-83788457D01*
X150880974Y-83808448D01*
X150867090Y-83827168D01*
X150851438Y-83844438D01*
X150834168Y-83860090D01*
X150815448Y-83873974D01*
X150795457Y-83885956D01*
X150774387Y-83895921D01*
X150752443Y-83903773D01*
X150729834Y-83909437D01*
X150706779Y-83912856D01*
X150683500Y-83914000D01*
X150108500Y-83914000D01*
X150085221Y-83912856D01*
X150062166Y-83909437D01*
X150039557Y-83903773D01*
X150017613Y-83895921D01*
X149996543Y-83885956D01*
X149976552Y-83873974D01*
X149957832Y-83860090D01*
X149940562Y-83844438D01*
X149924910Y-83827168D01*
X149911026Y-83808448D01*
X149899044Y-83788457D01*
X149889079Y-83767387D01*
X149881227Y-83745443D01*
X149875563Y-83722834D01*
X149872144Y-83699779D01*
X149871000Y-83676500D01*
X149871000Y-83201500D01*
X149872144Y-83178221D01*
X149875563Y-83155166D01*
X149881227Y-83132557D01*
X149889079Y-83110613D01*
X149899044Y-83089543D01*
X149911026Y-83069552D01*
X149924910Y-83050832D01*
X149940562Y-83033562D01*
X149957832Y-83017910D01*
X149976552Y-83004026D01*
X149996543Y-82992044D01*
X150017613Y-82982079D01*
X150039557Y-82974227D01*
X150062166Y-82968563D01*
X150085221Y-82965144D01*
X150108500Y-82964000D01*
X150683500Y-82964000D01*
X150706779Y-82965144D01*
X150706779Y-82965144D01*
G37*
D20*
X150396000Y-83439000D03*
D19*
G36*
X152456779Y-82965144D02*
G01*
X152479834Y-82968563D01*
X152502443Y-82974227D01*
X152524387Y-82982079D01*
X152545457Y-82992044D01*
X152565448Y-83004026D01*
X152584168Y-83017910D01*
X152601438Y-83033562D01*
X152617090Y-83050832D01*
X152630974Y-83069552D01*
X152642956Y-83089543D01*
X152652921Y-83110613D01*
X152660773Y-83132557D01*
X152666437Y-83155166D01*
X152669856Y-83178221D01*
X152671000Y-83201500D01*
X152671000Y-83676500D01*
X152669856Y-83699779D01*
X152666437Y-83722834D01*
X152660773Y-83745443D01*
X152652921Y-83767387D01*
X152642956Y-83788457D01*
X152630974Y-83808448D01*
X152617090Y-83827168D01*
X152601438Y-83844438D01*
X152584168Y-83860090D01*
X152565448Y-83873974D01*
X152545457Y-83885956D01*
X152524387Y-83895921D01*
X152502443Y-83903773D01*
X152479834Y-83909437D01*
X152456779Y-83912856D01*
X152433500Y-83914000D01*
X151858500Y-83914000D01*
X151835221Y-83912856D01*
X151812166Y-83909437D01*
X151789557Y-83903773D01*
X151767613Y-83895921D01*
X151746543Y-83885956D01*
X151726552Y-83873974D01*
X151707832Y-83860090D01*
X151690562Y-83844438D01*
X151674910Y-83827168D01*
X151661026Y-83808448D01*
X151649044Y-83788457D01*
X151639079Y-83767387D01*
X151631227Y-83745443D01*
X151625563Y-83722834D01*
X151622144Y-83699779D01*
X151621000Y-83676500D01*
X151621000Y-83201500D01*
X151622144Y-83178221D01*
X151625563Y-83155166D01*
X151631227Y-83132557D01*
X151639079Y-83110613D01*
X151649044Y-83089543D01*
X151661026Y-83069552D01*
X151674910Y-83050832D01*
X151690562Y-83033562D01*
X151707832Y-83017910D01*
X151726552Y-83004026D01*
X151746543Y-82992044D01*
X151767613Y-82982079D01*
X151789557Y-82974227D01*
X151812166Y-82968563D01*
X151835221Y-82965144D01*
X151858500Y-82964000D01*
X152433500Y-82964000D01*
X152456779Y-82965144D01*
X152456779Y-82965144D01*
G37*
D20*
X152146000Y-83439000D03*
D19*
G36*
X131854779Y-72932144D02*
G01*
X131877834Y-72935563D01*
X131900443Y-72941227D01*
X131922387Y-72949079D01*
X131943457Y-72959044D01*
X131963448Y-72971026D01*
X131982168Y-72984910D01*
X131999438Y-73000562D01*
X132015090Y-73017832D01*
X132028974Y-73036552D01*
X132040956Y-73056543D01*
X132050921Y-73077613D01*
X132058773Y-73099557D01*
X132064437Y-73122166D01*
X132067856Y-73145221D01*
X132069000Y-73168500D01*
X132069000Y-73643500D01*
X132067856Y-73666779D01*
X132064437Y-73689834D01*
X132058773Y-73712443D01*
X132050921Y-73734387D01*
X132040956Y-73755457D01*
X132028974Y-73775448D01*
X132015090Y-73794168D01*
X131999438Y-73811438D01*
X131982168Y-73827090D01*
X131963448Y-73840974D01*
X131943457Y-73852956D01*
X131922387Y-73862921D01*
X131900443Y-73870773D01*
X131877834Y-73876437D01*
X131854779Y-73879856D01*
X131831500Y-73881000D01*
X131256500Y-73881000D01*
X131233221Y-73879856D01*
X131210166Y-73876437D01*
X131187557Y-73870773D01*
X131165613Y-73862921D01*
X131144543Y-73852956D01*
X131124552Y-73840974D01*
X131105832Y-73827090D01*
X131088562Y-73811438D01*
X131072910Y-73794168D01*
X131059026Y-73775448D01*
X131047044Y-73755457D01*
X131037079Y-73734387D01*
X131029227Y-73712443D01*
X131023563Y-73689834D01*
X131020144Y-73666779D01*
X131019000Y-73643500D01*
X131019000Y-73168500D01*
X131020144Y-73145221D01*
X131023563Y-73122166D01*
X131029227Y-73099557D01*
X131037079Y-73077613D01*
X131047044Y-73056543D01*
X131059026Y-73036552D01*
X131072910Y-73017832D01*
X131088562Y-73000562D01*
X131105832Y-72984910D01*
X131124552Y-72971026D01*
X131144543Y-72959044D01*
X131165613Y-72949079D01*
X131187557Y-72941227D01*
X131210166Y-72935563D01*
X131233221Y-72932144D01*
X131256500Y-72931000D01*
X131831500Y-72931000D01*
X131854779Y-72932144D01*
X131854779Y-72932144D01*
G37*
D20*
X131544000Y-73406000D03*
D19*
G36*
X130104779Y-72932144D02*
G01*
X130127834Y-72935563D01*
X130150443Y-72941227D01*
X130172387Y-72949079D01*
X130193457Y-72959044D01*
X130213448Y-72971026D01*
X130232168Y-72984910D01*
X130249438Y-73000562D01*
X130265090Y-73017832D01*
X130278974Y-73036552D01*
X130290956Y-73056543D01*
X130300921Y-73077613D01*
X130308773Y-73099557D01*
X130314437Y-73122166D01*
X130317856Y-73145221D01*
X130319000Y-73168500D01*
X130319000Y-73643500D01*
X130317856Y-73666779D01*
X130314437Y-73689834D01*
X130308773Y-73712443D01*
X130300921Y-73734387D01*
X130290956Y-73755457D01*
X130278974Y-73775448D01*
X130265090Y-73794168D01*
X130249438Y-73811438D01*
X130232168Y-73827090D01*
X130213448Y-73840974D01*
X130193457Y-73852956D01*
X130172387Y-73862921D01*
X130150443Y-73870773D01*
X130127834Y-73876437D01*
X130104779Y-73879856D01*
X130081500Y-73881000D01*
X129506500Y-73881000D01*
X129483221Y-73879856D01*
X129460166Y-73876437D01*
X129437557Y-73870773D01*
X129415613Y-73862921D01*
X129394543Y-73852956D01*
X129374552Y-73840974D01*
X129355832Y-73827090D01*
X129338562Y-73811438D01*
X129322910Y-73794168D01*
X129309026Y-73775448D01*
X129297044Y-73755457D01*
X129287079Y-73734387D01*
X129279227Y-73712443D01*
X129273563Y-73689834D01*
X129270144Y-73666779D01*
X129269000Y-73643500D01*
X129269000Y-73168500D01*
X129270144Y-73145221D01*
X129273563Y-73122166D01*
X129279227Y-73099557D01*
X129287079Y-73077613D01*
X129297044Y-73056543D01*
X129309026Y-73036552D01*
X129322910Y-73017832D01*
X129338562Y-73000562D01*
X129355832Y-72984910D01*
X129374552Y-72971026D01*
X129394543Y-72959044D01*
X129415613Y-72949079D01*
X129437557Y-72941227D01*
X129460166Y-72935563D01*
X129483221Y-72932144D01*
X129506500Y-72931000D01*
X130081500Y-72931000D01*
X130104779Y-72932144D01*
X130104779Y-72932144D01*
G37*
D20*
X129794000Y-73406000D03*
D19*
G36*
X132503779Y-69376144D02*
G01*
X132526834Y-69379563D01*
X132549443Y-69385227D01*
X132571387Y-69393079D01*
X132592457Y-69403044D01*
X132612448Y-69415026D01*
X132631168Y-69428910D01*
X132648438Y-69444562D01*
X132664090Y-69461832D01*
X132677974Y-69480552D01*
X132689956Y-69500543D01*
X132699921Y-69521613D01*
X132707773Y-69543557D01*
X132713437Y-69566166D01*
X132716856Y-69589221D01*
X132718000Y-69612500D01*
X132718000Y-70087500D01*
X132716856Y-70110779D01*
X132713437Y-70133834D01*
X132707773Y-70156443D01*
X132699921Y-70178387D01*
X132689956Y-70199457D01*
X132677974Y-70219448D01*
X132664090Y-70238168D01*
X132648438Y-70255438D01*
X132631168Y-70271090D01*
X132612448Y-70284974D01*
X132592457Y-70296956D01*
X132571387Y-70306921D01*
X132549443Y-70314773D01*
X132526834Y-70320437D01*
X132503779Y-70323856D01*
X132480500Y-70325000D01*
X131905500Y-70325000D01*
X131882221Y-70323856D01*
X131859166Y-70320437D01*
X131836557Y-70314773D01*
X131814613Y-70306921D01*
X131793543Y-70296956D01*
X131773552Y-70284974D01*
X131754832Y-70271090D01*
X131737562Y-70255438D01*
X131721910Y-70238168D01*
X131708026Y-70219448D01*
X131696044Y-70199457D01*
X131686079Y-70178387D01*
X131678227Y-70156443D01*
X131672563Y-70133834D01*
X131669144Y-70110779D01*
X131668000Y-70087500D01*
X131668000Y-69612500D01*
X131669144Y-69589221D01*
X131672563Y-69566166D01*
X131678227Y-69543557D01*
X131686079Y-69521613D01*
X131696044Y-69500543D01*
X131708026Y-69480552D01*
X131721910Y-69461832D01*
X131737562Y-69444562D01*
X131754832Y-69428910D01*
X131773552Y-69415026D01*
X131793543Y-69403044D01*
X131814613Y-69393079D01*
X131836557Y-69385227D01*
X131859166Y-69379563D01*
X131882221Y-69376144D01*
X131905500Y-69375000D01*
X132480500Y-69375000D01*
X132503779Y-69376144D01*
X132503779Y-69376144D01*
G37*
D20*
X132193000Y-69850000D03*
D19*
G36*
X130753779Y-69376144D02*
G01*
X130776834Y-69379563D01*
X130799443Y-69385227D01*
X130821387Y-69393079D01*
X130842457Y-69403044D01*
X130862448Y-69415026D01*
X130881168Y-69428910D01*
X130898438Y-69444562D01*
X130914090Y-69461832D01*
X130927974Y-69480552D01*
X130939956Y-69500543D01*
X130949921Y-69521613D01*
X130957773Y-69543557D01*
X130963437Y-69566166D01*
X130966856Y-69589221D01*
X130968000Y-69612500D01*
X130968000Y-70087500D01*
X130966856Y-70110779D01*
X130963437Y-70133834D01*
X130957773Y-70156443D01*
X130949921Y-70178387D01*
X130939956Y-70199457D01*
X130927974Y-70219448D01*
X130914090Y-70238168D01*
X130898438Y-70255438D01*
X130881168Y-70271090D01*
X130862448Y-70284974D01*
X130842457Y-70296956D01*
X130821387Y-70306921D01*
X130799443Y-70314773D01*
X130776834Y-70320437D01*
X130753779Y-70323856D01*
X130730500Y-70325000D01*
X130155500Y-70325000D01*
X130132221Y-70323856D01*
X130109166Y-70320437D01*
X130086557Y-70314773D01*
X130064613Y-70306921D01*
X130043543Y-70296956D01*
X130023552Y-70284974D01*
X130004832Y-70271090D01*
X129987562Y-70255438D01*
X129971910Y-70238168D01*
X129958026Y-70219448D01*
X129946044Y-70199457D01*
X129936079Y-70178387D01*
X129928227Y-70156443D01*
X129922563Y-70133834D01*
X129919144Y-70110779D01*
X129918000Y-70087500D01*
X129918000Y-69612500D01*
X129919144Y-69589221D01*
X129922563Y-69566166D01*
X129928227Y-69543557D01*
X129936079Y-69521613D01*
X129946044Y-69500543D01*
X129958026Y-69480552D01*
X129971910Y-69461832D01*
X129987562Y-69444562D01*
X130004832Y-69428910D01*
X130023552Y-69415026D01*
X130043543Y-69403044D01*
X130064613Y-69393079D01*
X130086557Y-69385227D01*
X130109166Y-69379563D01*
X130132221Y-69376144D01*
X130155500Y-69375000D01*
X130730500Y-69375000D01*
X130753779Y-69376144D01*
X130753779Y-69376144D01*
G37*
D20*
X130443000Y-69850000D03*
D19*
G36*
X133378779Y-71154144D02*
G01*
X133401834Y-71157563D01*
X133424443Y-71163227D01*
X133446387Y-71171079D01*
X133467457Y-71181044D01*
X133487448Y-71193026D01*
X133506168Y-71206910D01*
X133523438Y-71222562D01*
X133539090Y-71239832D01*
X133552974Y-71258552D01*
X133564956Y-71278543D01*
X133574921Y-71299613D01*
X133582773Y-71321557D01*
X133588437Y-71344166D01*
X133591856Y-71367221D01*
X133593000Y-71390500D01*
X133593000Y-71865500D01*
X133591856Y-71888779D01*
X133588437Y-71911834D01*
X133582773Y-71934443D01*
X133574921Y-71956387D01*
X133564956Y-71977457D01*
X133552974Y-71997448D01*
X133539090Y-72016168D01*
X133523438Y-72033438D01*
X133506168Y-72049090D01*
X133487448Y-72062974D01*
X133467457Y-72074956D01*
X133446387Y-72084921D01*
X133424443Y-72092773D01*
X133401834Y-72098437D01*
X133378779Y-72101856D01*
X133355500Y-72103000D01*
X132780500Y-72103000D01*
X132757221Y-72101856D01*
X132734166Y-72098437D01*
X132711557Y-72092773D01*
X132689613Y-72084921D01*
X132668543Y-72074956D01*
X132648552Y-72062974D01*
X132629832Y-72049090D01*
X132612562Y-72033438D01*
X132596910Y-72016168D01*
X132583026Y-71997448D01*
X132571044Y-71977457D01*
X132561079Y-71956387D01*
X132553227Y-71934443D01*
X132547563Y-71911834D01*
X132544144Y-71888779D01*
X132543000Y-71865500D01*
X132543000Y-71390500D01*
X132544144Y-71367221D01*
X132547563Y-71344166D01*
X132553227Y-71321557D01*
X132561079Y-71299613D01*
X132571044Y-71278543D01*
X132583026Y-71258552D01*
X132596910Y-71239832D01*
X132612562Y-71222562D01*
X132629832Y-71206910D01*
X132648552Y-71193026D01*
X132668543Y-71181044D01*
X132689613Y-71171079D01*
X132711557Y-71163227D01*
X132734166Y-71157563D01*
X132757221Y-71154144D01*
X132780500Y-71153000D01*
X133355500Y-71153000D01*
X133378779Y-71154144D01*
X133378779Y-71154144D01*
G37*
D20*
X133068000Y-71628000D03*
D19*
G36*
X131628779Y-71154144D02*
G01*
X131651834Y-71157563D01*
X131674443Y-71163227D01*
X131696387Y-71171079D01*
X131717457Y-71181044D01*
X131737448Y-71193026D01*
X131756168Y-71206910D01*
X131773438Y-71222562D01*
X131789090Y-71239832D01*
X131802974Y-71258552D01*
X131814956Y-71278543D01*
X131824921Y-71299613D01*
X131832773Y-71321557D01*
X131838437Y-71344166D01*
X131841856Y-71367221D01*
X131843000Y-71390500D01*
X131843000Y-71865500D01*
X131841856Y-71888779D01*
X131838437Y-71911834D01*
X131832773Y-71934443D01*
X131824921Y-71956387D01*
X131814956Y-71977457D01*
X131802974Y-71997448D01*
X131789090Y-72016168D01*
X131773438Y-72033438D01*
X131756168Y-72049090D01*
X131737448Y-72062974D01*
X131717457Y-72074956D01*
X131696387Y-72084921D01*
X131674443Y-72092773D01*
X131651834Y-72098437D01*
X131628779Y-72101856D01*
X131605500Y-72103000D01*
X131030500Y-72103000D01*
X131007221Y-72101856D01*
X130984166Y-72098437D01*
X130961557Y-72092773D01*
X130939613Y-72084921D01*
X130918543Y-72074956D01*
X130898552Y-72062974D01*
X130879832Y-72049090D01*
X130862562Y-72033438D01*
X130846910Y-72016168D01*
X130833026Y-71997448D01*
X130821044Y-71977457D01*
X130811079Y-71956387D01*
X130803227Y-71934443D01*
X130797563Y-71911834D01*
X130794144Y-71888779D01*
X130793000Y-71865500D01*
X130793000Y-71390500D01*
X130794144Y-71367221D01*
X130797563Y-71344166D01*
X130803227Y-71321557D01*
X130811079Y-71299613D01*
X130821044Y-71278543D01*
X130833026Y-71258552D01*
X130846910Y-71239832D01*
X130862562Y-71222562D01*
X130879832Y-71206910D01*
X130898552Y-71193026D01*
X130918543Y-71181044D01*
X130939613Y-71171079D01*
X130961557Y-71163227D01*
X130984166Y-71157563D01*
X131007221Y-71154144D01*
X131030500Y-71153000D01*
X131605500Y-71153000D01*
X131628779Y-71154144D01*
X131628779Y-71154144D01*
G37*
D20*
X131318000Y-71628000D03*
D19*
G36*
X137244779Y-70138144D02*
G01*
X137267834Y-70141563D01*
X137290443Y-70147227D01*
X137312387Y-70155079D01*
X137333457Y-70165044D01*
X137353448Y-70177026D01*
X137372168Y-70190910D01*
X137389438Y-70206562D01*
X137405090Y-70223832D01*
X137418974Y-70242552D01*
X137430956Y-70262543D01*
X137440921Y-70283613D01*
X137448773Y-70305557D01*
X137454437Y-70328166D01*
X137457856Y-70351221D01*
X137459000Y-70374500D01*
X137459000Y-70849500D01*
X137457856Y-70872779D01*
X137454437Y-70895834D01*
X137448773Y-70918443D01*
X137440921Y-70940387D01*
X137430956Y-70961457D01*
X137418974Y-70981448D01*
X137405090Y-71000168D01*
X137389438Y-71017438D01*
X137372168Y-71033090D01*
X137353448Y-71046974D01*
X137333457Y-71058956D01*
X137312387Y-71068921D01*
X137290443Y-71076773D01*
X137267834Y-71082437D01*
X137244779Y-71085856D01*
X137221500Y-71087000D01*
X136646500Y-71087000D01*
X136623221Y-71085856D01*
X136600166Y-71082437D01*
X136577557Y-71076773D01*
X136555613Y-71068921D01*
X136534543Y-71058956D01*
X136514552Y-71046974D01*
X136495832Y-71033090D01*
X136478562Y-71017438D01*
X136462910Y-71000168D01*
X136449026Y-70981448D01*
X136437044Y-70961457D01*
X136427079Y-70940387D01*
X136419227Y-70918443D01*
X136413563Y-70895834D01*
X136410144Y-70872779D01*
X136409000Y-70849500D01*
X136409000Y-70374500D01*
X136410144Y-70351221D01*
X136413563Y-70328166D01*
X136419227Y-70305557D01*
X136427079Y-70283613D01*
X136437044Y-70262543D01*
X136449026Y-70242552D01*
X136462910Y-70223832D01*
X136478562Y-70206562D01*
X136495832Y-70190910D01*
X136514552Y-70177026D01*
X136534543Y-70165044D01*
X136555613Y-70155079D01*
X136577557Y-70147227D01*
X136600166Y-70141563D01*
X136623221Y-70138144D01*
X136646500Y-70137000D01*
X137221500Y-70137000D01*
X137244779Y-70138144D01*
X137244779Y-70138144D01*
G37*
D20*
X136934000Y-70612000D03*
D19*
G36*
X138994779Y-70138144D02*
G01*
X139017834Y-70141563D01*
X139040443Y-70147227D01*
X139062387Y-70155079D01*
X139083457Y-70165044D01*
X139103448Y-70177026D01*
X139122168Y-70190910D01*
X139139438Y-70206562D01*
X139155090Y-70223832D01*
X139168974Y-70242552D01*
X139180956Y-70262543D01*
X139190921Y-70283613D01*
X139198773Y-70305557D01*
X139204437Y-70328166D01*
X139207856Y-70351221D01*
X139209000Y-70374500D01*
X139209000Y-70849500D01*
X139207856Y-70872779D01*
X139204437Y-70895834D01*
X139198773Y-70918443D01*
X139190921Y-70940387D01*
X139180956Y-70961457D01*
X139168974Y-70981448D01*
X139155090Y-71000168D01*
X139139438Y-71017438D01*
X139122168Y-71033090D01*
X139103448Y-71046974D01*
X139083457Y-71058956D01*
X139062387Y-71068921D01*
X139040443Y-71076773D01*
X139017834Y-71082437D01*
X138994779Y-71085856D01*
X138971500Y-71087000D01*
X138396500Y-71087000D01*
X138373221Y-71085856D01*
X138350166Y-71082437D01*
X138327557Y-71076773D01*
X138305613Y-71068921D01*
X138284543Y-71058956D01*
X138264552Y-71046974D01*
X138245832Y-71033090D01*
X138228562Y-71017438D01*
X138212910Y-71000168D01*
X138199026Y-70981448D01*
X138187044Y-70961457D01*
X138177079Y-70940387D01*
X138169227Y-70918443D01*
X138163563Y-70895834D01*
X138160144Y-70872779D01*
X138159000Y-70849500D01*
X138159000Y-70374500D01*
X138160144Y-70351221D01*
X138163563Y-70328166D01*
X138169227Y-70305557D01*
X138177079Y-70283613D01*
X138187044Y-70262543D01*
X138199026Y-70242552D01*
X138212910Y-70223832D01*
X138228562Y-70206562D01*
X138245832Y-70190910D01*
X138264552Y-70177026D01*
X138284543Y-70165044D01*
X138305613Y-70155079D01*
X138327557Y-70147227D01*
X138350166Y-70141563D01*
X138373221Y-70138144D01*
X138396500Y-70137000D01*
X138971500Y-70137000D01*
X138994779Y-70138144D01*
X138994779Y-70138144D01*
G37*
D20*
X138684000Y-70612000D03*
D19*
G36*
X138994779Y-68360144D02*
G01*
X139017834Y-68363563D01*
X139040443Y-68369227D01*
X139062387Y-68377079D01*
X139083457Y-68387044D01*
X139103448Y-68399026D01*
X139122168Y-68412910D01*
X139139438Y-68428562D01*
X139155090Y-68445832D01*
X139168974Y-68464552D01*
X139180956Y-68484543D01*
X139190921Y-68505613D01*
X139198773Y-68527557D01*
X139204437Y-68550166D01*
X139207856Y-68573221D01*
X139209000Y-68596500D01*
X139209000Y-69071500D01*
X139207856Y-69094779D01*
X139204437Y-69117834D01*
X139198773Y-69140443D01*
X139190921Y-69162387D01*
X139180956Y-69183457D01*
X139168974Y-69203448D01*
X139155090Y-69222168D01*
X139139438Y-69239438D01*
X139122168Y-69255090D01*
X139103448Y-69268974D01*
X139083457Y-69280956D01*
X139062387Y-69290921D01*
X139040443Y-69298773D01*
X139017834Y-69304437D01*
X138994779Y-69307856D01*
X138971500Y-69309000D01*
X138396500Y-69309000D01*
X138373221Y-69307856D01*
X138350166Y-69304437D01*
X138327557Y-69298773D01*
X138305613Y-69290921D01*
X138284543Y-69280956D01*
X138264552Y-69268974D01*
X138245832Y-69255090D01*
X138228562Y-69239438D01*
X138212910Y-69222168D01*
X138199026Y-69203448D01*
X138187044Y-69183457D01*
X138177079Y-69162387D01*
X138169227Y-69140443D01*
X138163563Y-69117834D01*
X138160144Y-69094779D01*
X138159000Y-69071500D01*
X138159000Y-68596500D01*
X138160144Y-68573221D01*
X138163563Y-68550166D01*
X138169227Y-68527557D01*
X138177079Y-68505613D01*
X138187044Y-68484543D01*
X138199026Y-68464552D01*
X138212910Y-68445832D01*
X138228562Y-68428562D01*
X138245832Y-68412910D01*
X138264552Y-68399026D01*
X138284543Y-68387044D01*
X138305613Y-68377079D01*
X138327557Y-68369227D01*
X138350166Y-68363563D01*
X138373221Y-68360144D01*
X138396500Y-68359000D01*
X138971500Y-68359000D01*
X138994779Y-68360144D01*
X138994779Y-68360144D01*
G37*
D20*
X138684000Y-68834000D03*
D19*
G36*
X137244779Y-68360144D02*
G01*
X137267834Y-68363563D01*
X137290443Y-68369227D01*
X137312387Y-68377079D01*
X137333457Y-68387044D01*
X137353448Y-68399026D01*
X137372168Y-68412910D01*
X137389438Y-68428562D01*
X137405090Y-68445832D01*
X137418974Y-68464552D01*
X137430956Y-68484543D01*
X137440921Y-68505613D01*
X137448773Y-68527557D01*
X137454437Y-68550166D01*
X137457856Y-68573221D01*
X137459000Y-68596500D01*
X137459000Y-69071500D01*
X137457856Y-69094779D01*
X137454437Y-69117834D01*
X137448773Y-69140443D01*
X137440921Y-69162387D01*
X137430956Y-69183457D01*
X137418974Y-69203448D01*
X137405090Y-69222168D01*
X137389438Y-69239438D01*
X137372168Y-69255090D01*
X137353448Y-69268974D01*
X137333457Y-69280956D01*
X137312387Y-69290921D01*
X137290443Y-69298773D01*
X137267834Y-69304437D01*
X137244779Y-69307856D01*
X137221500Y-69309000D01*
X136646500Y-69309000D01*
X136623221Y-69307856D01*
X136600166Y-69304437D01*
X136577557Y-69298773D01*
X136555613Y-69290921D01*
X136534543Y-69280956D01*
X136514552Y-69268974D01*
X136495832Y-69255090D01*
X136478562Y-69239438D01*
X136462910Y-69222168D01*
X136449026Y-69203448D01*
X136437044Y-69183457D01*
X136427079Y-69162387D01*
X136419227Y-69140443D01*
X136413563Y-69117834D01*
X136410144Y-69094779D01*
X136409000Y-69071500D01*
X136409000Y-68596500D01*
X136410144Y-68573221D01*
X136413563Y-68550166D01*
X136419227Y-68527557D01*
X136427079Y-68505613D01*
X136437044Y-68484543D01*
X136449026Y-68464552D01*
X136462910Y-68445832D01*
X136478562Y-68428562D01*
X136495832Y-68412910D01*
X136514552Y-68399026D01*
X136534543Y-68387044D01*
X136555613Y-68377079D01*
X136577557Y-68369227D01*
X136600166Y-68363563D01*
X136623221Y-68360144D01*
X136646500Y-68359000D01*
X137221500Y-68359000D01*
X137244779Y-68360144D01*
X137244779Y-68360144D01*
G37*
D20*
X136934000Y-68834000D03*
D19*
G36*
X124657779Y-83854144D02*
G01*
X124680834Y-83857563D01*
X124703443Y-83863227D01*
X124725387Y-83871079D01*
X124746457Y-83881044D01*
X124766448Y-83893026D01*
X124785168Y-83906910D01*
X124802438Y-83922562D01*
X124818090Y-83939832D01*
X124831974Y-83958552D01*
X124843956Y-83978543D01*
X124853921Y-83999613D01*
X124861773Y-84021557D01*
X124867437Y-84044166D01*
X124870856Y-84067221D01*
X124872000Y-84090500D01*
X124872000Y-84565500D01*
X124870856Y-84588779D01*
X124867437Y-84611834D01*
X124861773Y-84634443D01*
X124853921Y-84656387D01*
X124843956Y-84677457D01*
X124831974Y-84697448D01*
X124818090Y-84716168D01*
X124802438Y-84733438D01*
X124785168Y-84749090D01*
X124766448Y-84762974D01*
X124746457Y-84774956D01*
X124725387Y-84784921D01*
X124703443Y-84792773D01*
X124680834Y-84798437D01*
X124657779Y-84801856D01*
X124634500Y-84803000D01*
X124059500Y-84803000D01*
X124036221Y-84801856D01*
X124013166Y-84798437D01*
X123990557Y-84792773D01*
X123968613Y-84784921D01*
X123947543Y-84774956D01*
X123927552Y-84762974D01*
X123908832Y-84749090D01*
X123891562Y-84733438D01*
X123875910Y-84716168D01*
X123862026Y-84697448D01*
X123850044Y-84677457D01*
X123840079Y-84656387D01*
X123832227Y-84634443D01*
X123826563Y-84611834D01*
X123823144Y-84588779D01*
X123822000Y-84565500D01*
X123822000Y-84090500D01*
X123823144Y-84067221D01*
X123826563Y-84044166D01*
X123832227Y-84021557D01*
X123840079Y-83999613D01*
X123850044Y-83978543D01*
X123862026Y-83958552D01*
X123875910Y-83939832D01*
X123891562Y-83922562D01*
X123908832Y-83906910D01*
X123927552Y-83893026D01*
X123947543Y-83881044D01*
X123968613Y-83871079D01*
X123990557Y-83863227D01*
X124013166Y-83857563D01*
X124036221Y-83854144D01*
X124059500Y-83853000D01*
X124634500Y-83853000D01*
X124657779Y-83854144D01*
X124657779Y-83854144D01*
G37*
D20*
X124347000Y-84328000D03*
D19*
G36*
X126407779Y-83854144D02*
G01*
X126430834Y-83857563D01*
X126453443Y-83863227D01*
X126475387Y-83871079D01*
X126496457Y-83881044D01*
X126516448Y-83893026D01*
X126535168Y-83906910D01*
X126552438Y-83922562D01*
X126568090Y-83939832D01*
X126581974Y-83958552D01*
X126593956Y-83978543D01*
X126603921Y-83999613D01*
X126611773Y-84021557D01*
X126617437Y-84044166D01*
X126620856Y-84067221D01*
X126622000Y-84090500D01*
X126622000Y-84565500D01*
X126620856Y-84588779D01*
X126617437Y-84611834D01*
X126611773Y-84634443D01*
X126603921Y-84656387D01*
X126593956Y-84677457D01*
X126581974Y-84697448D01*
X126568090Y-84716168D01*
X126552438Y-84733438D01*
X126535168Y-84749090D01*
X126516448Y-84762974D01*
X126496457Y-84774956D01*
X126475387Y-84784921D01*
X126453443Y-84792773D01*
X126430834Y-84798437D01*
X126407779Y-84801856D01*
X126384500Y-84803000D01*
X125809500Y-84803000D01*
X125786221Y-84801856D01*
X125763166Y-84798437D01*
X125740557Y-84792773D01*
X125718613Y-84784921D01*
X125697543Y-84774956D01*
X125677552Y-84762974D01*
X125658832Y-84749090D01*
X125641562Y-84733438D01*
X125625910Y-84716168D01*
X125612026Y-84697448D01*
X125600044Y-84677457D01*
X125590079Y-84656387D01*
X125582227Y-84634443D01*
X125576563Y-84611834D01*
X125573144Y-84588779D01*
X125572000Y-84565500D01*
X125572000Y-84090500D01*
X125573144Y-84067221D01*
X125576563Y-84044166D01*
X125582227Y-84021557D01*
X125590079Y-83999613D01*
X125600044Y-83978543D01*
X125612026Y-83958552D01*
X125625910Y-83939832D01*
X125641562Y-83922562D01*
X125658832Y-83906910D01*
X125677552Y-83893026D01*
X125697543Y-83881044D01*
X125718613Y-83871079D01*
X125740557Y-83863227D01*
X125763166Y-83857563D01*
X125786221Y-83854144D01*
X125809500Y-83853000D01*
X126384500Y-83853000D01*
X126407779Y-83854144D01*
X126407779Y-83854144D01*
G37*
D20*
X126097000Y-84328000D03*
D19*
G36*
X124544779Y-81822144D02*
G01*
X124567834Y-81825563D01*
X124590443Y-81831227D01*
X124612387Y-81839079D01*
X124633457Y-81849044D01*
X124653448Y-81861026D01*
X124672168Y-81874910D01*
X124689438Y-81890562D01*
X124705090Y-81907832D01*
X124718974Y-81926552D01*
X124730956Y-81946543D01*
X124740921Y-81967613D01*
X124748773Y-81989557D01*
X124754437Y-82012166D01*
X124757856Y-82035221D01*
X124759000Y-82058500D01*
X124759000Y-82533500D01*
X124757856Y-82556779D01*
X124754437Y-82579834D01*
X124748773Y-82602443D01*
X124740921Y-82624387D01*
X124730956Y-82645457D01*
X124718974Y-82665448D01*
X124705090Y-82684168D01*
X124689438Y-82701438D01*
X124672168Y-82717090D01*
X124653448Y-82730974D01*
X124633457Y-82742956D01*
X124612387Y-82752921D01*
X124590443Y-82760773D01*
X124567834Y-82766437D01*
X124544779Y-82769856D01*
X124521500Y-82771000D01*
X123946500Y-82771000D01*
X123923221Y-82769856D01*
X123900166Y-82766437D01*
X123877557Y-82760773D01*
X123855613Y-82752921D01*
X123834543Y-82742956D01*
X123814552Y-82730974D01*
X123795832Y-82717090D01*
X123778562Y-82701438D01*
X123762910Y-82684168D01*
X123749026Y-82665448D01*
X123737044Y-82645457D01*
X123727079Y-82624387D01*
X123719227Y-82602443D01*
X123713563Y-82579834D01*
X123710144Y-82556779D01*
X123709000Y-82533500D01*
X123709000Y-82058500D01*
X123710144Y-82035221D01*
X123713563Y-82012166D01*
X123719227Y-81989557D01*
X123727079Y-81967613D01*
X123737044Y-81946543D01*
X123749026Y-81926552D01*
X123762910Y-81907832D01*
X123778562Y-81890562D01*
X123795832Y-81874910D01*
X123814552Y-81861026D01*
X123834543Y-81849044D01*
X123855613Y-81839079D01*
X123877557Y-81831227D01*
X123900166Y-81825563D01*
X123923221Y-81822144D01*
X123946500Y-81821000D01*
X124521500Y-81821000D01*
X124544779Y-81822144D01*
X124544779Y-81822144D01*
G37*
D20*
X124234000Y-82296000D03*
D19*
G36*
X126294779Y-81822144D02*
G01*
X126317834Y-81825563D01*
X126340443Y-81831227D01*
X126362387Y-81839079D01*
X126383457Y-81849044D01*
X126403448Y-81861026D01*
X126422168Y-81874910D01*
X126439438Y-81890562D01*
X126455090Y-81907832D01*
X126468974Y-81926552D01*
X126480956Y-81946543D01*
X126490921Y-81967613D01*
X126498773Y-81989557D01*
X126504437Y-82012166D01*
X126507856Y-82035221D01*
X126509000Y-82058500D01*
X126509000Y-82533500D01*
X126507856Y-82556779D01*
X126504437Y-82579834D01*
X126498773Y-82602443D01*
X126490921Y-82624387D01*
X126480956Y-82645457D01*
X126468974Y-82665448D01*
X126455090Y-82684168D01*
X126439438Y-82701438D01*
X126422168Y-82717090D01*
X126403448Y-82730974D01*
X126383457Y-82742956D01*
X126362387Y-82752921D01*
X126340443Y-82760773D01*
X126317834Y-82766437D01*
X126294779Y-82769856D01*
X126271500Y-82771000D01*
X125696500Y-82771000D01*
X125673221Y-82769856D01*
X125650166Y-82766437D01*
X125627557Y-82760773D01*
X125605613Y-82752921D01*
X125584543Y-82742956D01*
X125564552Y-82730974D01*
X125545832Y-82717090D01*
X125528562Y-82701438D01*
X125512910Y-82684168D01*
X125499026Y-82665448D01*
X125487044Y-82645457D01*
X125477079Y-82624387D01*
X125469227Y-82602443D01*
X125463563Y-82579834D01*
X125460144Y-82556779D01*
X125459000Y-82533500D01*
X125459000Y-82058500D01*
X125460144Y-82035221D01*
X125463563Y-82012166D01*
X125469227Y-81989557D01*
X125477079Y-81967613D01*
X125487044Y-81946543D01*
X125499026Y-81926552D01*
X125512910Y-81907832D01*
X125528562Y-81890562D01*
X125545832Y-81874910D01*
X125564552Y-81861026D01*
X125584543Y-81849044D01*
X125605613Y-81839079D01*
X125627557Y-81831227D01*
X125650166Y-81825563D01*
X125673221Y-81822144D01*
X125696500Y-81821000D01*
X126271500Y-81821000D01*
X126294779Y-81822144D01*
X126294779Y-81822144D01*
G37*
D20*
X125984000Y-82296000D03*
D14*
X118618000Y-70612000D03*
X118618000Y-68072000D03*
D19*
G36*
X152442779Y-80933144D02*
G01*
X152465834Y-80936563D01*
X152488443Y-80942227D01*
X152510387Y-80950079D01*
X152531457Y-80960044D01*
X152551448Y-80972026D01*
X152570168Y-80985910D01*
X152587438Y-81001562D01*
X152603090Y-81018832D01*
X152616974Y-81037552D01*
X152628956Y-81057543D01*
X152638921Y-81078613D01*
X152646773Y-81100557D01*
X152652437Y-81123166D01*
X152655856Y-81146221D01*
X152657000Y-81169500D01*
X152657000Y-81644500D01*
X152655856Y-81667779D01*
X152652437Y-81690834D01*
X152646773Y-81713443D01*
X152638921Y-81735387D01*
X152628956Y-81756457D01*
X152616974Y-81776448D01*
X152603090Y-81795168D01*
X152587438Y-81812438D01*
X152570168Y-81828090D01*
X152551448Y-81841974D01*
X152531457Y-81853956D01*
X152510387Y-81863921D01*
X152488443Y-81871773D01*
X152465834Y-81877437D01*
X152442779Y-81880856D01*
X152419500Y-81882000D01*
X151844500Y-81882000D01*
X151821221Y-81880856D01*
X151798166Y-81877437D01*
X151775557Y-81871773D01*
X151753613Y-81863921D01*
X151732543Y-81853956D01*
X151712552Y-81841974D01*
X151693832Y-81828090D01*
X151676562Y-81812438D01*
X151660910Y-81795168D01*
X151647026Y-81776448D01*
X151635044Y-81756457D01*
X151625079Y-81735387D01*
X151617227Y-81713443D01*
X151611563Y-81690834D01*
X151608144Y-81667779D01*
X151607000Y-81644500D01*
X151607000Y-81169500D01*
X151608144Y-81146221D01*
X151611563Y-81123166D01*
X151617227Y-81100557D01*
X151625079Y-81078613D01*
X151635044Y-81057543D01*
X151647026Y-81037552D01*
X151660910Y-81018832D01*
X151676562Y-81001562D01*
X151693832Y-80985910D01*
X151712552Y-80972026D01*
X151732543Y-80960044D01*
X151753613Y-80950079D01*
X151775557Y-80942227D01*
X151798166Y-80936563D01*
X151821221Y-80933144D01*
X151844500Y-80932000D01*
X152419500Y-80932000D01*
X152442779Y-80933144D01*
X152442779Y-80933144D01*
G37*
D20*
X152132000Y-81407000D03*
D19*
G36*
X150692779Y-80933144D02*
G01*
X150715834Y-80936563D01*
X150738443Y-80942227D01*
X150760387Y-80950079D01*
X150781457Y-80960044D01*
X150801448Y-80972026D01*
X150820168Y-80985910D01*
X150837438Y-81001562D01*
X150853090Y-81018832D01*
X150866974Y-81037552D01*
X150878956Y-81057543D01*
X150888921Y-81078613D01*
X150896773Y-81100557D01*
X150902437Y-81123166D01*
X150905856Y-81146221D01*
X150907000Y-81169500D01*
X150907000Y-81644500D01*
X150905856Y-81667779D01*
X150902437Y-81690834D01*
X150896773Y-81713443D01*
X150888921Y-81735387D01*
X150878956Y-81756457D01*
X150866974Y-81776448D01*
X150853090Y-81795168D01*
X150837438Y-81812438D01*
X150820168Y-81828090D01*
X150801448Y-81841974D01*
X150781457Y-81853956D01*
X150760387Y-81863921D01*
X150738443Y-81871773D01*
X150715834Y-81877437D01*
X150692779Y-81880856D01*
X150669500Y-81882000D01*
X150094500Y-81882000D01*
X150071221Y-81880856D01*
X150048166Y-81877437D01*
X150025557Y-81871773D01*
X150003613Y-81863921D01*
X149982543Y-81853956D01*
X149962552Y-81841974D01*
X149943832Y-81828090D01*
X149926562Y-81812438D01*
X149910910Y-81795168D01*
X149897026Y-81776448D01*
X149885044Y-81756457D01*
X149875079Y-81735387D01*
X149867227Y-81713443D01*
X149861563Y-81690834D01*
X149858144Y-81667779D01*
X149857000Y-81644500D01*
X149857000Y-81169500D01*
X149858144Y-81146221D01*
X149861563Y-81123166D01*
X149867227Y-81100557D01*
X149875079Y-81078613D01*
X149885044Y-81057543D01*
X149897026Y-81037552D01*
X149910910Y-81018832D01*
X149926562Y-81001562D01*
X149943832Y-80985910D01*
X149962552Y-80972026D01*
X149982543Y-80960044D01*
X150003613Y-80950079D01*
X150025557Y-80942227D01*
X150048166Y-80936563D01*
X150071221Y-80933144D01*
X150094500Y-80932000D01*
X150669500Y-80932000D01*
X150692779Y-80933144D01*
X150692779Y-80933144D01*
G37*
D20*
X150382000Y-81407000D03*
D19*
G36*
X150692779Y-78901144D02*
G01*
X150715834Y-78904563D01*
X150738443Y-78910227D01*
X150760387Y-78918079D01*
X150781457Y-78928044D01*
X150801448Y-78940026D01*
X150820168Y-78953910D01*
X150837438Y-78969562D01*
X150853090Y-78986832D01*
X150866974Y-79005552D01*
X150878956Y-79025543D01*
X150888921Y-79046613D01*
X150896773Y-79068557D01*
X150902437Y-79091166D01*
X150905856Y-79114221D01*
X150907000Y-79137500D01*
X150907000Y-79612500D01*
X150905856Y-79635779D01*
X150902437Y-79658834D01*
X150896773Y-79681443D01*
X150888921Y-79703387D01*
X150878956Y-79724457D01*
X150866974Y-79744448D01*
X150853090Y-79763168D01*
X150837438Y-79780438D01*
X150820168Y-79796090D01*
X150801448Y-79809974D01*
X150781457Y-79821956D01*
X150760387Y-79831921D01*
X150738443Y-79839773D01*
X150715834Y-79845437D01*
X150692779Y-79848856D01*
X150669500Y-79850000D01*
X150094500Y-79850000D01*
X150071221Y-79848856D01*
X150048166Y-79845437D01*
X150025557Y-79839773D01*
X150003613Y-79831921D01*
X149982543Y-79821956D01*
X149962552Y-79809974D01*
X149943832Y-79796090D01*
X149926562Y-79780438D01*
X149910910Y-79763168D01*
X149897026Y-79744448D01*
X149885044Y-79724457D01*
X149875079Y-79703387D01*
X149867227Y-79681443D01*
X149861563Y-79658834D01*
X149858144Y-79635779D01*
X149857000Y-79612500D01*
X149857000Y-79137500D01*
X149858144Y-79114221D01*
X149861563Y-79091166D01*
X149867227Y-79068557D01*
X149875079Y-79046613D01*
X149885044Y-79025543D01*
X149897026Y-79005552D01*
X149910910Y-78986832D01*
X149926562Y-78969562D01*
X149943832Y-78953910D01*
X149962552Y-78940026D01*
X149982543Y-78928044D01*
X150003613Y-78918079D01*
X150025557Y-78910227D01*
X150048166Y-78904563D01*
X150071221Y-78901144D01*
X150094500Y-78900000D01*
X150669500Y-78900000D01*
X150692779Y-78901144D01*
X150692779Y-78901144D01*
G37*
D20*
X150382000Y-79375000D03*
D19*
G36*
X152442779Y-78901144D02*
G01*
X152465834Y-78904563D01*
X152488443Y-78910227D01*
X152510387Y-78918079D01*
X152531457Y-78928044D01*
X152551448Y-78940026D01*
X152570168Y-78953910D01*
X152587438Y-78969562D01*
X152603090Y-78986832D01*
X152616974Y-79005552D01*
X152628956Y-79025543D01*
X152638921Y-79046613D01*
X152646773Y-79068557D01*
X152652437Y-79091166D01*
X152655856Y-79114221D01*
X152657000Y-79137500D01*
X152657000Y-79612500D01*
X152655856Y-79635779D01*
X152652437Y-79658834D01*
X152646773Y-79681443D01*
X152638921Y-79703387D01*
X152628956Y-79724457D01*
X152616974Y-79744448D01*
X152603090Y-79763168D01*
X152587438Y-79780438D01*
X152570168Y-79796090D01*
X152551448Y-79809974D01*
X152531457Y-79821956D01*
X152510387Y-79831921D01*
X152488443Y-79839773D01*
X152465834Y-79845437D01*
X152442779Y-79848856D01*
X152419500Y-79850000D01*
X151844500Y-79850000D01*
X151821221Y-79848856D01*
X151798166Y-79845437D01*
X151775557Y-79839773D01*
X151753613Y-79831921D01*
X151732543Y-79821956D01*
X151712552Y-79809974D01*
X151693832Y-79796090D01*
X151676562Y-79780438D01*
X151660910Y-79763168D01*
X151647026Y-79744448D01*
X151635044Y-79724457D01*
X151625079Y-79703387D01*
X151617227Y-79681443D01*
X151611563Y-79658834D01*
X151608144Y-79635779D01*
X151607000Y-79612500D01*
X151607000Y-79137500D01*
X151608144Y-79114221D01*
X151611563Y-79091166D01*
X151617227Y-79068557D01*
X151625079Y-79046613D01*
X151635044Y-79025543D01*
X151647026Y-79005552D01*
X151660910Y-78986832D01*
X151676562Y-78969562D01*
X151693832Y-78953910D01*
X151712552Y-78940026D01*
X151732543Y-78928044D01*
X151753613Y-78918079D01*
X151775557Y-78910227D01*
X151798166Y-78904563D01*
X151821221Y-78901144D01*
X151844500Y-78900000D01*
X152419500Y-78900000D01*
X152442779Y-78901144D01*
X152442779Y-78901144D01*
G37*
D20*
X152132000Y-79375000D03*
D19*
G36*
X126774779Y-73059144D02*
G01*
X126797834Y-73062563D01*
X126820443Y-73068227D01*
X126842387Y-73076079D01*
X126863457Y-73086044D01*
X126883448Y-73098026D01*
X126902168Y-73111910D01*
X126919438Y-73127562D01*
X126935090Y-73144832D01*
X126948974Y-73163552D01*
X126960956Y-73183543D01*
X126970921Y-73204613D01*
X126978773Y-73226557D01*
X126984437Y-73249166D01*
X126987856Y-73272221D01*
X126989000Y-73295500D01*
X126989000Y-73770500D01*
X126987856Y-73793779D01*
X126984437Y-73816834D01*
X126978773Y-73839443D01*
X126970921Y-73861387D01*
X126960956Y-73882457D01*
X126948974Y-73902448D01*
X126935090Y-73921168D01*
X126919438Y-73938438D01*
X126902168Y-73954090D01*
X126883448Y-73967974D01*
X126863457Y-73979956D01*
X126842387Y-73989921D01*
X126820443Y-73997773D01*
X126797834Y-74003437D01*
X126774779Y-74006856D01*
X126751500Y-74008000D01*
X126176500Y-74008000D01*
X126153221Y-74006856D01*
X126130166Y-74003437D01*
X126107557Y-73997773D01*
X126085613Y-73989921D01*
X126064543Y-73979956D01*
X126044552Y-73967974D01*
X126025832Y-73954090D01*
X126008562Y-73938438D01*
X125992910Y-73921168D01*
X125979026Y-73902448D01*
X125967044Y-73882457D01*
X125957079Y-73861387D01*
X125949227Y-73839443D01*
X125943563Y-73816834D01*
X125940144Y-73793779D01*
X125939000Y-73770500D01*
X125939000Y-73295500D01*
X125940144Y-73272221D01*
X125943563Y-73249166D01*
X125949227Y-73226557D01*
X125957079Y-73204613D01*
X125967044Y-73183543D01*
X125979026Y-73163552D01*
X125992910Y-73144832D01*
X126008562Y-73127562D01*
X126025832Y-73111910D01*
X126044552Y-73098026D01*
X126064543Y-73086044D01*
X126085613Y-73076079D01*
X126107557Y-73068227D01*
X126130166Y-73062563D01*
X126153221Y-73059144D01*
X126176500Y-73058000D01*
X126751500Y-73058000D01*
X126774779Y-73059144D01*
X126774779Y-73059144D01*
G37*
D20*
X126464000Y-73533000D03*
D19*
G36*
X125024779Y-73059144D02*
G01*
X125047834Y-73062563D01*
X125070443Y-73068227D01*
X125092387Y-73076079D01*
X125113457Y-73086044D01*
X125133448Y-73098026D01*
X125152168Y-73111910D01*
X125169438Y-73127562D01*
X125185090Y-73144832D01*
X125198974Y-73163552D01*
X125210956Y-73183543D01*
X125220921Y-73204613D01*
X125228773Y-73226557D01*
X125234437Y-73249166D01*
X125237856Y-73272221D01*
X125239000Y-73295500D01*
X125239000Y-73770500D01*
X125237856Y-73793779D01*
X125234437Y-73816834D01*
X125228773Y-73839443D01*
X125220921Y-73861387D01*
X125210956Y-73882457D01*
X125198974Y-73902448D01*
X125185090Y-73921168D01*
X125169438Y-73938438D01*
X125152168Y-73954090D01*
X125133448Y-73967974D01*
X125113457Y-73979956D01*
X125092387Y-73989921D01*
X125070443Y-73997773D01*
X125047834Y-74003437D01*
X125024779Y-74006856D01*
X125001500Y-74008000D01*
X124426500Y-74008000D01*
X124403221Y-74006856D01*
X124380166Y-74003437D01*
X124357557Y-73997773D01*
X124335613Y-73989921D01*
X124314543Y-73979956D01*
X124294552Y-73967974D01*
X124275832Y-73954090D01*
X124258562Y-73938438D01*
X124242910Y-73921168D01*
X124229026Y-73902448D01*
X124217044Y-73882457D01*
X124207079Y-73861387D01*
X124199227Y-73839443D01*
X124193563Y-73816834D01*
X124190144Y-73793779D01*
X124189000Y-73770500D01*
X124189000Y-73295500D01*
X124190144Y-73272221D01*
X124193563Y-73249166D01*
X124199227Y-73226557D01*
X124207079Y-73204613D01*
X124217044Y-73183543D01*
X124229026Y-73163552D01*
X124242910Y-73144832D01*
X124258562Y-73127562D01*
X124275832Y-73111910D01*
X124294552Y-73098026D01*
X124314543Y-73086044D01*
X124335613Y-73076079D01*
X124357557Y-73068227D01*
X124380166Y-73062563D01*
X124403221Y-73059144D01*
X124426500Y-73058000D01*
X125001500Y-73058000D01*
X125024779Y-73059144D01*
X125024779Y-73059144D01*
G37*
D20*
X124714000Y-73533000D03*
D19*
G36*
X126802779Y-74964144D02*
G01*
X126825834Y-74967563D01*
X126848443Y-74973227D01*
X126870387Y-74981079D01*
X126891457Y-74991044D01*
X126911448Y-75003026D01*
X126930168Y-75016910D01*
X126947438Y-75032562D01*
X126963090Y-75049832D01*
X126976974Y-75068552D01*
X126988956Y-75088543D01*
X126998921Y-75109613D01*
X127006773Y-75131557D01*
X127012437Y-75154166D01*
X127015856Y-75177221D01*
X127017000Y-75200500D01*
X127017000Y-75675500D01*
X127015856Y-75698779D01*
X127012437Y-75721834D01*
X127006773Y-75744443D01*
X126998921Y-75766387D01*
X126988956Y-75787457D01*
X126976974Y-75807448D01*
X126963090Y-75826168D01*
X126947438Y-75843438D01*
X126930168Y-75859090D01*
X126911448Y-75872974D01*
X126891457Y-75884956D01*
X126870387Y-75894921D01*
X126848443Y-75902773D01*
X126825834Y-75908437D01*
X126802779Y-75911856D01*
X126779500Y-75913000D01*
X126204500Y-75913000D01*
X126181221Y-75911856D01*
X126158166Y-75908437D01*
X126135557Y-75902773D01*
X126113613Y-75894921D01*
X126092543Y-75884956D01*
X126072552Y-75872974D01*
X126053832Y-75859090D01*
X126036562Y-75843438D01*
X126020910Y-75826168D01*
X126007026Y-75807448D01*
X125995044Y-75787457D01*
X125985079Y-75766387D01*
X125977227Y-75744443D01*
X125971563Y-75721834D01*
X125968144Y-75698779D01*
X125967000Y-75675500D01*
X125967000Y-75200500D01*
X125968144Y-75177221D01*
X125971563Y-75154166D01*
X125977227Y-75131557D01*
X125985079Y-75109613D01*
X125995044Y-75088543D01*
X126007026Y-75068552D01*
X126020910Y-75049832D01*
X126036562Y-75032562D01*
X126053832Y-75016910D01*
X126072552Y-75003026D01*
X126092543Y-74991044D01*
X126113613Y-74981079D01*
X126135557Y-74973227D01*
X126158166Y-74967563D01*
X126181221Y-74964144D01*
X126204500Y-74963000D01*
X126779500Y-74963000D01*
X126802779Y-74964144D01*
X126802779Y-74964144D01*
G37*
D20*
X126492000Y-75438000D03*
D19*
G36*
X125052779Y-74964144D02*
G01*
X125075834Y-74967563D01*
X125098443Y-74973227D01*
X125120387Y-74981079D01*
X125141457Y-74991044D01*
X125161448Y-75003026D01*
X125180168Y-75016910D01*
X125197438Y-75032562D01*
X125213090Y-75049832D01*
X125226974Y-75068552D01*
X125238956Y-75088543D01*
X125248921Y-75109613D01*
X125256773Y-75131557D01*
X125262437Y-75154166D01*
X125265856Y-75177221D01*
X125267000Y-75200500D01*
X125267000Y-75675500D01*
X125265856Y-75698779D01*
X125262437Y-75721834D01*
X125256773Y-75744443D01*
X125248921Y-75766387D01*
X125238956Y-75787457D01*
X125226974Y-75807448D01*
X125213090Y-75826168D01*
X125197438Y-75843438D01*
X125180168Y-75859090D01*
X125161448Y-75872974D01*
X125141457Y-75884956D01*
X125120387Y-75894921D01*
X125098443Y-75902773D01*
X125075834Y-75908437D01*
X125052779Y-75911856D01*
X125029500Y-75913000D01*
X124454500Y-75913000D01*
X124431221Y-75911856D01*
X124408166Y-75908437D01*
X124385557Y-75902773D01*
X124363613Y-75894921D01*
X124342543Y-75884956D01*
X124322552Y-75872974D01*
X124303832Y-75859090D01*
X124286562Y-75843438D01*
X124270910Y-75826168D01*
X124257026Y-75807448D01*
X124245044Y-75787457D01*
X124235079Y-75766387D01*
X124227227Y-75744443D01*
X124221563Y-75721834D01*
X124218144Y-75698779D01*
X124217000Y-75675500D01*
X124217000Y-75200500D01*
X124218144Y-75177221D01*
X124221563Y-75154166D01*
X124227227Y-75131557D01*
X124235079Y-75109613D01*
X124245044Y-75088543D01*
X124257026Y-75068552D01*
X124270910Y-75049832D01*
X124286562Y-75032562D01*
X124303832Y-75016910D01*
X124322552Y-75003026D01*
X124342543Y-74991044D01*
X124363613Y-74981079D01*
X124385557Y-74973227D01*
X124408166Y-74967563D01*
X124431221Y-74964144D01*
X124454500Y-74963000D01*
X125029500Y-74963000D01*
X125052779Y-74964144D01*
X125052779Y-74964144D01*
G37*
D20*
X124742000Y-75438000D03*
D19*
G36*
X126393779Y-85886144D02*
G01*
X126416834Y-85889563D01*
X126439443Y-85895227D01*
X126461387Y-85903079D01*
X126482457Y-85913044D01*
X126502448Y-85925026D01*
X126521168Y-85938910D01*
X126538438Y-85954562D01*
X126554090Y-85971832D01*
X126567974Y-85990552D01*
X126579956Y-86010543D01*
X126589921Y-86031613D01*
X126597773Y-86053557D01*
X126603437Y-86076166D01*
X126606856Y-86099221D01*
X126608000Y-86122500D01*
X126608000Y-86597500D01*
X126606856Y-86620779D01*
X126603437Y-86643834D01*
X126597773Y-86666443D01*
X126589921Y-86688387D01*
X126579956Y-86709457D01*
X126567974Y-86729448D01*
X126554090Y-86748168D01*
X126538438Y-86765438D01*
X126521168Y-86781090D01*
X126502448Y-86794974D01*
X126482457Y-86806956D01*
X126461387Y-86816921D01*
X126439443Y-86824773D01*
X126416834Y-86830437D01*
X126393779Y-86833856D01*
X126370500Y-86835000D01*
X125795500Y-86835000D01*
X125772221Y-86833856D01*
X125749166Y-86830437D01*
X125726557Y-86824773D01*
X125704613Y-86816921D01*
X125683543Y-86806956D01*
X125663552Y-86794974D01*
X125644832Y-86781090D01*
X125627562Y-86765438D01*
X125611910Y-86748168D01*
X125598026Y-86729448D01*
X125586044Y-86709457D01*
X125576079Y-86688387D01*
X125568227Y-86666443D01*
X125562563Y-86643834D01*
X125559144Y-86620779D01*
X125558000Y-86597500D01*
X125558000Y-86122500D01*
X125559144Y-86099221D01*
X125562563Y-86076166D01*
X125568227Y-86053557D01*
X125576079Y-86031613D01*
X125586044Y-86010543D01*
X125598026Y-85990552D01*
X125611910Y-85971832D01*
X125627562Y-85954562D01*
X125644832Y-85938910D01*
X125663552Y-85925026D01*
X125683543Y-85913044D01*
X125704613Y-85903079D01*
X125726557Y-85895227D01*
X125749166Y-85889563D01*
X125772221Y-85886144D01*
X125795500Y-85885000D01*
X126370500Y-85885000D01*
X126393779Y-85886144D01*
X126393779Y-85886144D01*
G37*
D20*
X126083000Y-86360000D03*
D19*
G36*
X124643779Y-85886144D02*
G01*
X124666834Y-85889563D01*
X124689443Y-85895227D01*
X124711387Y-85903079D01*
X124732457Y-85913044D01*
X124752448Y-85925026D01*
X124771168Y-85938910D01*
X124788438Y-85954562D01*
X124804090Y-85971832D01*
X124817974Y-85990552D01*
X124829956Y-86010543D01*
X124839921Y-86031613D01*
X124847773Y-86053557D01*
X124853437Y-86076166D01*
X124856856Y-86099221D01*
X124858000Y-86122500D01*
X124858000Y-86597500D01*
X124856856Y-86620779D01*
X124853437Y-86643834D01*
X124847773Y-86666443D01*
X124839921Y-86688387D01*
X124829956Y-86709457D01*
X124817974Y-86729448D01*
X124804090Y-86748168D01*
X124788438Y-86765438D01*
X124771168Y-86781090D01*
X124752448Y-86794974D01*
X124732457Y-86806956D01*
X124711387Y-86816921D01*
X124689443Y-86824773D01*
X124666834Y-86830437D01*
X124643779Y-86833856D01*
X124620500Y-86835000D01*
X124045500Y-86835000D01*
X124022221Y-86833856D01*
X123999166Y-86830437D01*
X123976557Y-86824773D01*
X123954613Y-86816921D01*
X123933543Y-86806956D01*
X123913552Y-86794974D01*
X123894832Y-86781090D01*
X123877562Y-86765438D01*
X123861910Y-86748168D01*
X123848026Y-86729448D01*
X123836044Y-86709457D01*
X123826079Y-86688387D01*
X123818227Y-86666443D01*
X123812563Y-86643834D01*
X123809144Y-86620779D01*
X123808000Y-86597500D01*
X123808000Y-86122500D01*
X123809144Y-86099221D01*
X123812563Y-86076166D01*
X123818227Y-86053557D01*
X123826079Y-86031613D01*
X123836044Y-86010543D01*
X123848026Y-85990552D01*
X123861910Y-85971832D01*
X123877562Y-85954562D01*
X123894832Y-85938910D01*
X123913552Y-85925026D01*
X123933543Y-85913044D01*
X123954613Y-85903079D01*
X123976557Y-85895227D01*
X123999166Y-85889563D01*
X124022221Y-85886144D01*
X124045500Y-85885000D01*
X124620500Y-85885000D01*
X124643779Y-85886144D01*
X124643779Y-85886144D01*
G37*
D20*
X124333000Y-86360000D03*
D19*
G36*
X130767779Y-67598144D02*
G01*
X130790834Y-67601563D01*
X130813443Y-67607227D01*
X130835387Y-67615079D01*
X130856457Y-67625044D01*
X130876448Y-67637026D01*
X130895168Y-67650910D01*
X130912438Y-67666562D01*
X130928090Y-67683832D01*
X130941974Y-67702552D01*
X130953956Y-67722543D01*
X130963921Y-67743613D01*
X130971773Y-67765557D01*
X130977437Y-67788166D01*
X130980856Y-67811221D01*
X130982000Y-67834500D01*
X130982000Y-68309500D01*
X130980856Y-68332779D01*
X130977437Y-68355834D01*
X130971773Y-68378443D01*
X130963921Y-68400387D01*
X130953956Y-68421457D01*
X130941974Y-68441448D01*
X130928090Y-68460168D01*
X130912438Y-68477438D01*
X130895168Y-68493090D01*
X130876448Y-68506974D01*
X130856457Y-68518956D01*
X130835387Y-68528921D01*
X130813443Y-68536773D01*
X130790834Y-68542437D01*
X130767779Y-68545856D01*
X130744500Y-68547000D01*
X130169500Y-68547000D01*
X130146221Y-68545856D01*
X130123166Y-68542437D01*
X130100557Y-68536773D01*
X130078613Y-68528921D01*
X130057543Y-68518956D01*
X130037552Y-68506974D01*
X130018832Y-68493090D01*
X130001562Y-68477438D01*
X129985910Y-68460168D01*
X129972026Y-68441448D01*
X129960044Y-68421457D01*
X129950079Y-68400387D01*
X129942227Y-68378443D01*
X129936563Y-68355834D01*
X129933144Y-68332779D01*
X129932000Y-68309500D01*
X129932000Y-67834500D01*
X129933144Y-67811221D01*
X129936563Y-67788166D01*
X129942227Y-67765557D01*
X129950079Y-67743613D01*
X129960044Y-67722543D01*
X129972026Y-67702552D01*
X129985910Y-67683832D01*
X130001562Y-67666562D01*
X130018832Y-67650910D01*
X130037552Y-67637026D01*
X130057543Y-67625044D01*
X130078613Y-67615079D01*
X130100557Y-67607227D01*
X130123166Y-67601563D01*
X130146221Y-67598144D01*
X130169500Y-67597000D01*
X130744500Y-67597000D01*
X130767779Y-67598144D01*
X130767779Y-67598144D01*
G37*
D20*
X130457000Y-68072000D03*
D19*
G36*
X132517779Y-67598144D02*
G01*
X132540834Y-67601563D01*
X132563443Y-67607227D01*
X132585387Y-67615079D01*
X132606457Y-67625044D01*
X132626448Y-67637026D01*
X132645168Y-67650910D01*
X132662438Y-67666562D01*
X132678090Y-67683832D01*
X132691974Y-67702552D01*
X132703956Y-67722543D01*
X132713921Y-67743613D01*
X132721773Y-67765557D01*
X132727437Y-67788166D01*
X132730856Y-67811221D01*
X132732000Y-67834500D01*
X132732000Y-68309500D01*
X132730856Y-68332779D01*
X132727437Y-68355834D01*
X132721773Y-68378443D01*
X132713921Y-68400387D01*
X132703956Y-68421457D01*
X132691974Y-68441448D01*
X132678090Y-68460168D01*
X132662438Y-68477438D01*
X132645168Y-68493090D01*
X132626448Y-68506974D01*
X132606457Y-68518956D01*
X132585387Y-68528921D01*
X132563443Y-68536773D01*
X132540834Y-68542437D01*
X132517779Y-68545856D01*
X132494500Y-68547000D01*
X131919500Y-68547000D01*
X131896221Y-68545856D01*
X131873166Y-68542437D01*
X131850557Y-68536773D01*
X131828613Y-68528921D01*
X131807543Y-68518956D01*
X131787552Y-68506974D01*
X131768832Y-68493090D01*
X131751562Y-68477438D01*
X131735910Y-68460168D01*
X131722026Y-68441448D01*
X131710044Y-68421457D01*
X131700079Y-68400387D01*
X131692227Y-68378443D01*
X131686563Y-68355834D01*
X131683144Y-68332779D01*
X131682000Y-68309500D01*
X131682000Y-67834500D01*
X131683144Y-67811221D01*
X131686563Y-67788166D01*
X131692227Y-67765557D01*
X131700079Y-67743613D01*
X131710044Y-67722543D01*
X131722026Y-67702552D01*
X131735910Y-67683832D01*
X131751562Y-67666562D01*
X131768832Y-67650910D01*
X131787552Y-67637026D01*
X131807543Y-67625044D01*
X131828613Y-67615079D01*
X131850557Y-67607227D01*
X131873166Y-67601563D01*
X131896221Y-67598144D01*
X131919500Y-67597000D01*
X132494500Y-67597000D01*
X132517779Y-67598144D01*
X132517779Y-67598144D01*
G37*
D20*
X132207000Y-68072000D03*
D19*
G36*
X138994779Y-74202144D02*
G01*
X139017834Y-74205563D01*
X139040443Y-74211227D01*
X139062387Y-74219079D01*
X139083457Y-74229044D01*
X139103448Y-74241026D01*
X139122168Y-74254910D01*
X139139438Y-74270562D01*
X139155090Y-74287832D01*
X139168974Y-74306552D01*
X139180956Y-74326543D01*
X139190921Y-74347613D01*
X139198773Y-74369557D01*
X139204437Y-74392166D01*
X139207856Y-74415221D01*
X139209000Y-74438500D01*
X139209000Y-74913500D01*
X139207856Y-74936779D01*
X139204437Y-74959834D01*
X139198773Y-74982443D01*
X139190921Y-75004387D01*
X139180956Y-75025457D01*
X139168974Y-75045448D01*
X139155090Y-75064168D01*
X139139438Y-75081438D01*
X139122168Y-75097090D01*
X139103448Y-75110974D01*
X139083457Y-75122956D01*
X139062387Y-75132921D01*
X139040443Y-75140773D01*
X139017834Y-75146437D01*
X138994779Y-75149856D01*
X138971500Y-75151000D01*
X138396500Y-75151000D01*
X138373221Y-75149856D01*
X138350166Y-75146437D01*
X138327557Y-75140773D01*
X138305613Y-75132921D01*
X138284543Y-75122956D01*
X138264552Y-75110974D01*
X138245832Y-75097090D01*
X138228562Y-75081438D01*
X138212910Y-75064168D01*
X138199026Y-75045448D01*
X138187044Y-75025457D01*
X138177079Y-75004387D01*
X138169227Y-74982443D01*
X138163563Y-74959834D01*
X138160144Y-74936779D01*
X138159000Y-74913500D01*
X138159000Y-74438500D01*
X138160144Y-74415221D01*
X138163563Y-74392166D01*
X138169227Y-74369557D01*
X138177079Y-74347613D01*
X138187044Y-74326543D01*
X138199026Y-74306552D01*
X138212910Y-74287832D01*
X138228562Y-74270562D01*
X138245832Y-74254910D01*
X138264552Y-74241026D01*
X138284543Y-74229044D01*
X138305613Y-74219079D01*
X138327557Y-74211227D01*
X138350166Y-74205563D01*
X138373221Y-74202144D01*
X138396500Y-74201000D01*
X138971500Y-74201000D01*
X138994779Y-74202144D01*
X138994779Y-74202144D01*
G37*
D20*
X138684000Y-74676000D03*
D19*
G36*
X137244779Y-74202144D02*
G01*
X137267834Y-74205563D01*
X137290443Y-74211227D01*
X137312387Y-74219079D01*
X137333457Y-74229044D01*
X137353448Y-74241026D01*
X137372168Y-74254910D01*
X137389438Y-74270562D01*
X137405090Y-74287832D01*
X137418974Y-74306552D01*
X137430956Y-74326543D01*
X137440921Y-74347613D01*
X137448773Y-74369557D01*
X137454437Y-74392166D01*
X137457856Y-74415221D01*
X137459000Y-74438500D01*
X137459000Y-74913500D01*
X137457856Y-74936779D01*
X137454437Y-74959834D01*
X137448773Y-74982443D01*
X137440921Y-75004387D01*
X137430956Y-75025457D01*
X137418974Y-75045448D01*
X137405090Y-75064168D01*
X137389438Y-75081438D01*
X137372168Y-75097090D01*
X137353448Y-75110974D01*
X137333457Y-75122956D01*
X137312387Y-75132921D01*
X137290443Y-75140773D01*
X137267834Y-75146437D01*
X137244779Y-75149856D01*
X137221500Y-75151000D01*
X136646500Y-75151000D01*
X136623221Y-75149856D01*
X136600166Y-75146437D01*
X136577557Y-75140773D01*
X136555613Y-75132921D01*
X136534543Y-75122956D01*
X136514552Y-75110974D01*
X136495832Y-75097090D01*
X136478562Y-75081438D01*
X136462910Y-75064168D01*
X136449026Y-75045448D01*
X136437044Y-75025457D01*
X136427079Y-75004387D01*
X136419227Y-74982443D01*
X136413563Y-74959834D01*
X136410144Y-74936779D01*
X136409000Y-74913500D01*
X136409000Y-74438500D01*
X136410144Y-74415221D01*
X136413563Y-74392166D01*
X136419227Y-74369557D01*
X136427079Y-74347613D01*
X136437044Y-74326543D01*
X136449026Y-74306552D01*
X136462910Y-74287832D01*
X136478562Y-74270562D01*
X136495832Y-74254910D01*
X136514552Y-74241026D01*
X136534543Y-74229044D01*
X136555613Y-74219079D01*
X136577557Y-74211227D01*
X136600166Y-74205563D01*
X136623221Y-74202144D01*
X136646500Y-74201000D01*
X137221500Y-74201000D01*
X137244779Y-74202144D01*
X137244779Y-74202144D01*
G37*
D20*
X136934000Y-74676000D03*
D19*
G36*
X138994779Y-71916144D02*
G01*
X139017834Y-71919563D01*
X139040443Y-71925227D01*
X139062387Y-71933079D01*
X139083457Y-71943044D01*
X139103448Y-71955026D01*
X139122168Y-71968910D01*
X139139438Y-71984562D01*
X139155090Y-72001832D01*
X139168974Y-72020552D01*
X139180956Y-72040543D01*
X139190921Y-72061613D01*
X139198773Y-72083557D01*
X139204437Y-72106166D01*
X139207856Y-72129221D01*
X139209000Y-72152500D01*
X139209000Y-72627500D01*
X139207856Y-72650779D01*
X139204437Y-72673834D01*
X139198773Y-72696443D01*
X139190921Y-72718387D01*
X139180956Y-72739457D01*
X139168974Y-72759448D01*
X139155090Y-72778168D01*
X139139438Y-72795438D01*
X139122168Y-72811090D01*
X139103448Y-72824974D01*
X139083457Y-72836956D01*
X139062387Y-72846921D01*
X139040443Y-72854773D01*
X139017834Y-72860437D01*
X138994779Y-72863856D01*
X138971500Y-72865000D01*
X138396500Y-72865000D01*
X138373221Y-72863856D01*
X138350166Y-72860437D01*
X138327557Y-72854773D01*
X138305613Y-72846921D01*
X138284543Y-72836956D01*
X138264552Y-72824974D01*
X138245832Y-72811090D01*
X138228562Y-72795438D01*
X138212910Y-72778168D01*
X138199026Y-72759448D01*
X138187044Y-72739457D01*
X138177079Y-72718387D01*
X138169227Y-72696443D01*
X138163563Y-72673834D01*
X138160144Y-72650779D01*
X138159000Y-72627500D01*
X138159000Y-72152500D01*
X138160144Y-72129221D01*
X138163563Y-72106166D01*
X138169227Y-72083557D01*
X138177079Y-72061613D01*
X138187044Y-72040543D01*
X138199026Y-72020552D01*
X138212910Y-72001832D01*
X138228562Y-71984562D01*
X138245832Y-71968910D01*
X138264552Y-71955026D01*
X138284543Y-71943044D01*
X138305613Y-71933079D01*
X138327557Y-71925227D01*
X138350166Y-71919563D01*
X138373221Y-71916144D01*
X138396500Y-71915000D01*
X138971500Y-71915000D01*
X138994779Y-71916144D01*
X138994779Y-71916144D01*
G37*
D20*
X138684000Y-72390000D03*
D19*
G36*
X137244779Y-71916144D02*
G01*
X137267834Y-71919563D01*
X137290443Y-71925227D01*
X137312387Y-71933079D01*
X137333457Y-71943044D01*
X137353448Y-71955026D01*
X137372168Y-71968910D01*
X137389438Y-71984562D01*
X137405090Y-72001832D01*
X137418974Y-72020552D01*
X137430956Y-72040543D01*
X137440921Y-72061613D01*
X137448773Y-72083557D01*
X137454437Y-72106166D01*
X137457856Y-72129221D01*
X137459000Y-72152500D01*
X137459000Y-72627500D01*
X137457856Y-72650779D01*
X137454437Y-72673834D01*
X137448773Y-72696443D01*
X137440921Y-72718387D01*
X137430956Y-72739457D01*
X137418974Y-72759448D01*
X137405090Y-72778168D01*
X137389438Y-72795438D01*
X137372168Y-72811090D01*
X137353448Y-72824974D01*
X137333457Y-72836956D01*
X137312387Y-72846921D01*
X137290443Y-72854773D01*
X137267834Y-72860437D01*
X137244779Y-72863856D01*
X137221500Y-72865000D01*
X136646500Y-72865000D01*
X136623221Y-72863856D01*
X136600166Y-72860437D01*
X136577557Y-72854773D01*
X136555613Y-72846921D01*
X136534543Y-72836956D01*
X136514552Y-72824974D01*
X136495832Y-72811090D01*
X136478562Y-72795438D01*
X136462910Y-72778168D01*
X136449026Y-72759448D01*
X136437044Y-72739457D01*
X136427079Y-72718387D01*
X136419227Y-72696443D01*
X136413563Y-72673834D01*
X136410144Y-72650779D01*
X136409000Y-72627500D01*
X136409000Y-72152500D01*
X136410144Y-72129221D01*
X136413563Y-72106166D01*
X136419227Y-72083557D01*
X136427079Y-72061613D01*
X136437044Y-72040543D01*
X136449026Y-72020552D01*
X136462910Y-72001832D01*
X136478562Y-71984562D01*
X136495832Y-71968910D01*
X136514552Y-71955026D01*
X136534543Y-71943044D01*
X136555613Y-71933079D01*
X136577557Y-71925227D01*
X136600166Y-71919563D01*
X136623221Y-71916144D01*
X136646500Y-71915000D01*
X137221500Y-71915000D01*
X137244779Y-71916144D01*
X137244779Y-71916144D01*
G37*
D20*
X136934000Y-72390000D03*
D19*
G36*
X124544779Y-79409144D02*
G01*
X124567834Y-79412563D01*
X124590443Y-79418227D01*
X124612387Y-79426079D01*
X124633457Y-79436044D01*
X124653448Y-79448026D01*
X124672168Y-79461910D01*
X124689438Y-79477562D01*
X124705090Y-79494832D01*
X124718974Y-79513552D01*
X124730956Y-79533543D01*
X124740921Y-79554613D01*
X124748773Y-79576557D01*
X124754437Y-79599166D01*
X124757856Y-79622221D01*
X124759000Y-79645500D01*
X124759000Y-80120500D01*
X124757856Y-80143779D01*
X124754437Y-80166834D01*
X124748773Y-80189443D01*
X124740921Y-80211387D01*
X124730956Y-80232457D01*
X124718974Y-80252448D01*
X124705090Y-80271168D01*
X124689438Y-80288438D01*
X124672168Y-80304090D01*
X124653448Y-80317974D01*
X124633457Y-80329956D01*
X124612387Y-80339921D01*
X124590443Y-80347773D01*
X124567834Y-80353437D01*
X124544779Y-80356856D01*
X124521500Y-80358000D01*
X123946500Y-80358000D01*
X123923221Y-80356856D01*
X123900166Y-80353437D01*
X123877557Y-80347773D01*
X123855613Y-80339921D01*
X123834543Y-80329956D01*
X123814552Y-80317974D01*
X123795832Y-80304090D01*
X123778562Y-80288438D01*
X123762910Y-80271168D01*
X123749026Y-80252448D01*
X123737044Y-80232457D01*
X123727079Y-80211387D01*
X123719227Y-80189443D01*
X123713563Y-80166834D01*
X123710144Y-80143779D01*
X123709000Y-80120500D01*
X123709000Y-79645500D01*
X123710144Y-79622221D01*
X123713563Y-79599166D01*
X123719227Y-79576557D01*
X123727079Y-79554613D01*
X123737044Y-79533543D01*
X123749026Y-79513552D01*
X123762910Y-79494832D01*
X123778562Y-79477562D01*
X123795832Y-79461910D01*
X123814552Y-79448026D01*
X123834543Y-79436044D01*
X123855613Y-79426079D01*
X123877557Y-79418227D01*
X123900166Y-79412563D01*
X123923221Y-79409144D01*
X123946500Y-79408000D01*
X124521500Y-79408000D01*
X124544779Y-79409144D01*
X124544779Y-79409144D01*
G37*
D20*
X124234000Y-79883000D03*
D19*
G36*
X126294779Y-79409144D02*
G01*
X126317834Y-79412563D01*
X126340443Y-79418227D01*
X126362387Y-79426079D01*
X126383457Y-79436044D01*
X126403448Y-79448026D01*
X126422168Y-79461910D01*
X126439438Y-79477562D01*
X126455090Y-79494832D01*
X126468974Y-79513552D01*
X126480956Y-79533543D01*
X126490921Y-79554613D01*
X126498773Y-79576557D01*
X126504437Y-79599166D01*
X126507856Y-79622221D01*
X126509000Y-79645500D01*
X126509000Y-80120500D01*
X126507856Y-80143779D01*
X126504437Y-80166834D01*
X126498773Y-80189443D01*
X126490921Y-80211387D01*
X126480956Y-80232457D01*
X126468974Y-80252448D01*
X126455090Y-80271168D01*
X126439438Y-80288438D01*
X126422168Y-80304090D01*
X126403448Y-80317974D01*
X126383457Y-80329956D01*
X126362387Y-80339921D01*
X126340443Y-80347773D01*
X126317834Y-80353437D01*
X126294779Y-80356856D01*
X126271500Y-80358000D01*
X125696500Y-80358000D01*
X125673221Y-80356856D01*
X125650166Y-80353437D01*
X125627557Y-80347773D01*
X125605613Y-80339921D01*
X125584543Y-80329956D01*
X125564552Y-80317974D01*
X125545832Y-80304090D01*
X125528562Y-80288438D01*
X125512910Y-80271168D01*
X125499026Y-80252448D01*
X125487044Y-80232457D01*
X125477079Y-80211387D01*
X125469227Y-80189443D01*
X125463563Y-80166834D01*
X125460144Y-80143779D01*
X125459000Y-80120500D01*
X125459000Y-79645500D01*
X125460144Y-79622221D01*
X125463563Y-79599166D01*
X125469227Y-79576557D01*
X125477079Y-79554613D01*
X125487044Y-79533543D01*
X125499026Y-79513552D01*
X125512910Y-79494832D01*
X125528562Y-79477562D01*
X125545832Y-79461910D01*
X125564552Y-79448026D01*
X125584543Y-79436044D01*
X125605613Y-79426079D01*
X125627557Y-79418227D01*
X125650166Y-79412563D01*
X125673221Y-79409144D01*
X125696500Y-79408000D01*
X126271500Y-79408000D01*
X126294779Y-79409144D01*
X126294779Y-79409144D01*
G37*
D20*
X125984000Y-79883000D03*
D21*
X127635000Y-81153000D03*
X135382000Y-74676000D03*
X133096000Y-73406000D03*
X151130000Y-75692000D03*
X153416000Y-77724000D03*
X160020000Y-85598000D03*
X160528000Y-83058000D03*
X160782000Y-80518000D03*
X156718000Y-75184000D03*
X156718000Y-72898000D03*
X150622000Y-67564000D03*
X146812000Y-67564000D03*
X122682000Y-84328000D03*
X122682000Y-86360000D03*
X152146000Y-75692000D03*
X128016000Y-75438000D03*
X128016000Y-73533000D03*
X131572000Y-74930000D03*
D22*
X157281999Y-64206001D02*
X157281999Y-66857999D01*
X158496000Y-62992000D02*
X157281999Y-64206001D01*
X163576000Y-62992000D02*
X164846000Y-64262000D01*
X164846000Y-64262000D02*
X164846000Y-65024000D01*
X164846000Y-65024000D02*
X164846000Y-68199000D01*
X145796000Y-62992000D02*
X144526000Y-64262000D01*
X144526000Y-64262000D02*
X144526000Y-67310000D01*
D23*
X123444000Y-71150000D02*
X124490000Y-71150000D01*
X124714000Y-71374000D02*
X124714000Y-73533000D01*
X124490000Y-71150000D02*
X124714000Y-71374000D01*
D24*
X130158000Y-79883000D02*
X127889000Y-79883000D01*
X127889000Y-79883000D02*
X125984000Y-79883000D01*
X127635000Y-80137000D02*
X127889000Y-79883000D01*
X127635000Y-81153000D02*
X127635000Y-80137000D01*
X150396000Y-87348000D02*
X150396000Y-85344000D01*
X118618000Y-88392000D02*
X149352000Y-88392000D01*
X149352000Y-88392000D02*
X150396000Y-87348000D01*
D23*
X136934000Y-68834000D02*
X136934000Y-70612000D01*
X136934000Y-70612000D02*
X136934000Y-72390000D01*
D22*
X138684000Y-74676000D02*
X144272000Y-74676000D01*
D23*
X136934000Y-74676000D02*
X135382000Y-74676000D01*
X133096000Y-71910000D02*
X133068000Y-71882000D01*
X133096000Y-73406000D02*
X133096000Y-71910000D01*
X132207000Y-69836000D02*
X132193000Y-69850000D01*
X132193000Y-68086000D02*
X132207000Y-68072000D01*
X132193000Y-69850000D02*
X132193000Y-68086000D01*
D22*
X150382000Y-83425000D02*
X150396000Y-83439000D01*
X150382000Y-79375000D02*
X150382000Y-83425000D01*
D23*
X151130000Y-78627000D02*
X150382000Y-79375000D01*
X151130000Y-75692000D02*
X151130000Y-78627000D01*
D22*
X152146000Y-81421000D02*
X152132000Y-81407000D01*
X152146000Y-85344000D02*
X152146000Y-81421000D01*
D23*
X152132000Y-81407000D02*
X153543000Y-81407000D01*
X153543000Y-81407000D02*
X153924000Y-81026000D01*
X153924000Y-81026000D02*
X153924000Y-78232000D01*
X153924000Y-78232000D02*
X153416000Y-77724000D01*
X159004000Y-84582000D02*
X160020000Y-85598000D01*
X159004000Y-67114802D02*
X159004000Y-84582000D01*
X158496000Y-65532000D02*
X158496000Y-66606802D01*
X158496000Y-66606802D02*
X159004000Y-67114802D01*
X159766000Y-82296000D02*
X160528000Y-83058000D01*
X161036000Y-62992000D02*
X159766000Y-64262000D01*
X159766000Y-64262000D02*
X159766000Y-82296000D01*
X160528000Y-80264000D02*
X160782000Y-80518000D01*
X163576000Y-65532000D02*
X160528000Y-68580000D01*
X160528000Y-68580000D02*
X160528000Y-80264000D01*
X154686000Y-64262000D02*
X155956000Y-62992000D01*
X154686000Y-65964742D02*
X154686000Y-64262000D01*
X154686000Y-65964742D02*
X154686000Y-68072000D01*
X154686000Y-68072000D02*
X154686000Y-71882000D01*
X154686000Y-71882000D02*
X154686000Y-73152000D01*
X154686000Y-73152000D02*
X156718000Y-75184000D01*
X155956000Y-65532000D02*
X155956000Y-66606802D01*
X155956000Y-66606802D02*
X155956000Y-71628000D01*
X155956000Y-71628000D02*
X155956000Y-72136000D01*
X155956000Y-72136000D02*
X156718000Y-72898000D01*
X118618000Y-68072000D02*
X120396000Y-68072000D01*
X122174000Y-69850000D02*
X122428000Y-69850000D01*
X120396000Y-68072000D02*
X122174000Y-69850000D01*
X123444000Y-69850000D02*
X122428000Y-69850000D01*
X123444000Y-71800000D02*
X121240000Y-71800000D01*
X120052000Y-70612000D02*
X121240000Y-71800000D01*
X118618000Y-70612000D02*
X120052000Y-70612000D01*
X126083000Y-84060000D02*
X126097000Y-84074000D01*
D22*
X126097000Y-82409000D02*
X125984000Y-82296000D01*
X126097000Y-84328000D02*
X126097000Y-82409000D01*
X126609000Y-82296000D02*
X125984000Y-82296000D01*
X127755922Y-82296000D02*
X126609000Y-82296000D01*
X128898922Y-81153000D02*
X127755922Y-82296000D01*
X130158000Y-81153000D02*
X128898922Y-81153000D01*
D23*
X135636000Y-62992000D02*
X136906000Y-64262000D01*
X136906000Y-64262000D02*
X136906000Y-67056000D01*
X138684000Y-68834000D02*
X138684000Y-67818000D01*
X138176000Y-67310000D02*
X137160000Y-67310000D01*
X138684000Y-67818000D02*
X138176000Y-67310000D01*
X136906000Y-67056000D02*
X137160000Y-67310000D01*
D22*
X143058000Y-70612000D02*
X143122000Y-70676000D01*
X138684000Y-70612000D02*
X143058000Y-70612000D01*
D23*
X128675000Y-70500000D02*
X129286000Y-71111000D01*
X127744000Y-70500000D02*
X128675000Y-70500000D01*
X129286000Y-71111000D02*
X129286000Y-71120000D01*
X130801000Y-71111000D02*
X131318000Y-71628000D01*
X129286000Y-71111000D02*
X130801000Y-71111000D01*
X127744000Y-69850000D02*
X130443000Y-69850000D01*
X127744000Y-71800000D02*
X129458000Y-71800000D01*
X129794000Y-72136000D02*
X129794000Y-73406000D01*
X129458000Y-71800000D02*
X129794000Y-72136000D01*
X150622000Y-67564000D02*
X146812000Y-67564000D01*
D22*
X124347000Y-86346000D02*
X124333000Y-86360000D01*
X124460000Y-85344000D02*
X124347000Y-85457000D01*
X127762000Y-85344000D02*
X124460000Y-85344000D01*
X124347000Y-85457000D02*
X124347000Y-86346000D01*
X124347000Y-84328000D02*
X124347000Y-85457000D01*
X130158000Y-82423000D02*
X128775000Y-82423000D01*
X128775000Y-82423000D02*
X128016000Y-83182000D01*
X128016000Y-85090000D02*
X127762000Y-85344000D01*
X128016000Y-83182000D02*
X128016000Y-85090000D01*
X124347000Y-84328000D02*
X122682000Y-84328000D01*
X124333000Y-86360000D02*
X122682000Y-86360000D01*
D23*
X152146000Y-79361000D02*
X152132000Y-79375000D01*
X152146000Y-75692000D02*
X152146000Y-79361000D01*
X123444000Y-70500000D02*
X126126000Y-70500000D01*
X126464000Y-70838000D02*
X126464000Y-73533000D01*
X126126000Y-70500000D02*
X126464000Y-70838000D01*
X126464000Y-75410000D02*
X126492000Y-75438000D01*
X126464000Y-73533000D02*
X126464000Y-75410000D01*
X126492000Y-75438000D02*
X128016000Y-75438000D01*
X126464000Y-73533000D02*
X128016000Y-73533000D01*
X131544000Y-73406000D02*
X131544000Y-74902000D01*
X131544000Y-74902000D02*
X131572000Y-74930000D01*
D25*
G36*
X121594609Y-62585093D02*
G01*
X121541000Y-62854604D01*
X121541000Y-63129396D01*
X121594609Y-63398907D01*
X121699767Y-63652780D01*
X121852433Y-63881261D01*
X122046739Y-64075567D01*
X122139467Y-64137526D01*
X122051518Y-64146188D01*
X121931820Y-64182498D01*
X121821506Y-64241463D01*
X121724815Y-64320815D01*
X121645463Y-64417506D01*
X121586498Y-64527820D01*
X121550188Y-64647518D01*
X121537928Y-64772000D01*
X121537928Y-66292000D01*
X121550188Y-66416482D01*
X121586498Y-66536180D01*
X121645463Y-66646494D01*
X121724815Y-66743185D01*
X121821506Y-66822537D01*
X121931820Y-66881502D01*
X122051518Y-66917812D01*
X122176000Y-66930072D01*
X123696000Y-66930072D01*
X123820482Y-66917812D01*
X123940180Y-66881502D01*
X124050494Y-66822537D01*
X124147185Y-66743185D01*
X124226537Y-66646494D01*
X124285502Y-66536180D01*
X124321812Y-66416482D01*
X124330474Y-66328533D01*
X124392433Y-66421261D01*
X124586739Y-66615567D01*
X124815220Y-66768233D01*
X125069093Y-66873391D01*
X125338604Y-66927000D01*
X125613396Y-66927000D01*
X125882907Y-66873391D01*
X126136780Y-66768233D01*
X126365261Y-66615567D01*
X126559567Y-66421261D01*
X126712233Y-66192780D01*
X126746000Y-66111260D01*
X126779767Y-66192780D01*
X126932433Y-66421261D01*
X127126739Y-66615567D01*
X127355220Y-66768233D01*
X127609093Y-66873391D01*
X127878604Y-66927000D01*
X128153396Y-66927000D01*
X128422907Y-66873391D01*
X128676780Y-66768233D01*
X128905261Y-66615567D01*
X129099567Y-66421261D01*
X129252233Y-66192780D01*
X129286000Y-66111260D01*
X129319767Y-66192780D01*
X129472433Y-66421261D01*
X129666739Y-66615567D01*
X129895220Y-66768233D01*
X130149093Y-66873391D01*
X130418604Y-66927000D01*
X130693396Y-66927000D01*
X130962907Y-66873391D01*
X131216780Y-66768233D01*
X131445261Y-66615567D01*
X131639567Y-66421261D01*
X131792233Y-66192780D01*
X131897391Y-65938907D01*
X131951000Y-65669396D01*
X131951000Y-65394604D01*
X131897391Y-65125093D01*
X131792233Y-64871220D01*
X131639567Y-64642739D01*
X131445261Y-64448433D01*
X131216780Y-64295767D01*
X131135260Y-64262000D01*
X131216780Y-64228233D01*
X131445261Y-64075567D01*
X131639567Y-63881261D01*
X131792233Y-63652780D01*
X131826000Y-63571260D01*
X131859767Y-63652780D01*
X132012433Y-63881261D01*
X132206739Y-64075567D01*
X132435220Y-64228233D01*
X132689093Y-64333391D01*
X132958604Y-64387000D01*
X133233396Y-64387000D01*
X133502907Y-64333391D01*
X133756780Y-64228233D01*
X133985261Y-64075567D01*
X134179567Y-63881261D01*
X134332233Y-63652780D01*
X134366000Y-63571260D01*
X134399767Y-63652780D01*
X134552433Y-63881261D01*
X134746739Y-64075567D01*
X134975220Y-64228233D01*
X135056740Y-64262000D01*
X134975220Y-64295767D01*
X134746739Y-64448433D01*
X134552433Y-64642739D01*
X134399767Y-64871220D01*
X134294609Y-65125093D01*
X134241000Y-65394604D01*
X134241000Y-65669396D01*
X134294609Y-65938907D01*
X134399767Y-66192780D01*
X134552433Y-66421261D01*
X134746739Y-66615567D01*
X134975220Y-66768233D01*
X135229093Y-66873391D01*
X135498604Y-66927000D01*
X135773396Y-66927000D01*
X136042907Y-66873391D01*
X136080501Y-66857819D01*
X136080501Y-67015440D01*
X136076506Y-67056000D01*
X136092445Y-67217826D01*
X136139647Y-67373433D01*
X136216301Y-67516842D01*
X136227887Y-67530959D01*
X136319460Y-67642541D01*
X136350961Y-67668393D01*
X136433206Y-67750638D01*
X136311433Y-67787577D01*
X136160058Y-67868488D01*
X136027377Y-67977377D01*
X135918488Y-68110058D01*
X135837577Y-68261433D01*
X135787752Y-68425684D01*
X135770928Y-68596500D01*
X135770928Y-69071500D01*
X135787752Y-69242316D01*
X135837577Y-69406567D01*
X135918488Y-69557942D01*
X136027377Y-69690623D01*
X136066828Y-69723000D01*
X136027377Y-69755377D01*
X135918488Y-69888058D01*
X135837577Y-70039433D01*
X135787752Y-70203684D01*
X135770928Y-70374500D01*
X135770928Y-70849500D01*
X135787752Y-71020316D01*
X135837577Y-71184567D01*
X135918488Y-71335942D01*
X136027377Y-71468623D01*
X136066828Y-71501000D01*
X136027377Y-71533377D01*
X135918488Y-71666058D01*
X135837577Y-71817433D01*
X135787752Y-71981684D01*
X135770928Y-72152500D01*
X135770928Y-72627500D01*
X135787752Y-72798316D01*
X135837577Y-72962567D01*
X135918488Y-73113942D01*
X136027377Y-73246623D01*
X136160058Y-73355512D01*
X136311433Y-73436423D01*
X136475684Y-73486248D01*
X136646500Y-73503072D01*
X137221500Y-73503072D01*
X137392316Y-73486248D01*
X137556567Y-73436423D01*
X137707942Y-73355512D01*
X137840623Y-73246623D01*
X137949512Y-73113942D01*
X138030423Y-72962567D01*
X138080248Y-72798316D01*
X138097072Y-72627500D01*
X138097072Y-72152500D01*
X138080248Y-71981684D01*
X138030423Y-71817433D01*
X137949512Y-71666058D01*
X137840623Y-71533377D01*
X137801172Y-71501000D01*
X137809000Y-71494575D01*
X137910058Y-71577512D01*
X138061433Y-71658423D01*
X138225684Y-71708248D01*
X138396500Y-71725072D01*
X138971500Y-71725072D01*
X139142316Y-71708248D01*
X139306567Y-71658423D01*
X139457942Y-71577512D01*
X139551172Y-71501000D01*
X141833928Y-71501000D01*
X141833928Y-71676000D01*
X141846188Y-71800482D01*
X141882498Y-71920180D01*
X141941463Y-72030494D01*
X142020815Y-72127185D01*
X142117506Y-72206537D01*
X142227820Y-72265502D01*
X142347518Y-72301812D01*
X142472000Y-72314072D01*
X143772000Y-72314072D01*
X143896482Y-72301812D01*
X144016180Y-72265502D01*
X144126494Y-72206537D01*
X144223185Y-72127185D01*
X144302537Y-72030494D01*
X144361502Y-71920180D01*
X144397812Y-71800482D01*
X144410072Y-71676000D01*
X144410072Y-69676000D01*
X144397812Y-69551518D01*
X144361502Y-69431820D01*
X144302537Y-69321506D01*
X144223185Y-69224815D01*
X144126494Y-69145463D01*
X144016180Y-69086498D01*
X143896482Y-69050188D01*
X143772000Y-69037928D01*
X142472000Y-69037928D01*
X142347518Y-69050188D01*
X142227820Y-69086498D01*
X142117506Y-69145463D01*
X142020815Y-69224815D01*
X141941463Y-69321506D01*
X141882498Y-69431820D01*
X141846188Y-69551518D01*
X141833928Y-69676000D01*
X141833928Y-69723000D01*
X139551172Y-69723000D01*
X139590623Y-69690623D01*
X139699512Y-69557942D01*
X139780423Y-69406567D01*
X139830248Y-69242316D01*
X139847072Y-69071500D01*
X139847072Y-68596500D01*
X139830248Y-68425684D01*
X139780423Y-68261433D01*
X139699512Y-68110058D01*
X139590623Y-67977377D01*
X139509500Y-67910801D01*
X139509500Y-67858539D01*
X139513493Y-67817999D01*
X139509500Y-67777459D01*
X139509500Y-67777447D01*
X139497556Y-67656174D01*
X139450353Y-67500566D01*
X139373699Y-67357158D01*
X139373698Y-67357156D01*
X139342915Y-67319647D01*
X139270541Y-67231459D01*
X139239034Y-67205602D01*
X138811950Y-66778518D01*
X138836780Y-66768233D01*
X139065261Y-66615567D01*
X139259567Y-66421261D01*
X139412233Y-66192780D01*
X139446000Y-66111260D01*
X139479767Y-66192780D01*
X139632433Y-66421261D01*
X139826739Y-66615567D01*
X140055220Y-66768233D01*
X140309093Y-66873391D01*
X140578604Y-66927000D01*
X140853396Y-66927000D01*
X141122907Y-66873391D01*
X141376780Y-66768233D01*
X141605261Y-66615567D01*
X141799567Y-66421261D01*
X141952233Y-66192780D01*
X141986000Y-66111260D01*
X142019767Y-66192780D01*
X142172433Y-66421261D01*
X142366739Y-66615567D01*
X142595220Y-66768233D01*
X142849093Y-66873391D01*
X143118604Y-66927000D01*
X143393396Y-66927000D01*
X143662907Y-66873391D01*
X143916780Y-66768233D01*
X144145261Y-66615567D01*
X144339567Y-66421261D01*
X144492233Y-66192780D01*
X144526000Y-66111260D01*
X144559767Y-66192780D01*
X144712433Y-66421261D01*
X144906739Y-66615567D01*
X145135220Y-66768233D01*
X145389093Y-66873391D01*
X145658604Y-66927000D01*
X145933396Y-66927000D01*
X146001958Y-66913362D01*
X145894795Y-67073744D01*
X145816774Y-67262102D01*
X145777000Y-67462061D01*
X145777000Y-67665939D01*
X145816774Y-67865898D01*
X145894795Y-68054256D01*
X146008063Y-68223774D01*
X146152226Y-68367937D01*
X146321744Y-68481205D01*
X146510102Y-68559226D01*
X146710061Y-68599000D01*
X146913939Y-68599000D01*
X147113898Y-68559226D01*
X147302256Y-68481205D01*
X147439503Y-68389500D01*
X149994497Y-68389500D01*
X150131744Y-68481205D01*
X150320102Y-68559226D01*
X150520061Y-68599000D01*
X150723939Y-68599000D01*
X150923898Y-68559226D01*
X151112256Y-68481205D01*
X151281774Y-68367937D01*
X151425937Y-68223774D01*
X151539205Y-68054256D01*
X151617226Y-67865898D01*
X151657000Y-67665939D01*
X151657000Y-67462061D01*
X151617226Y-67262102D01*
X151539205Y-67073744D01*
X151425937Y-66904226D01*
X151362241Y-66840530D01*
X151536780Y-66768233D01*
X151765261Y-66615567D01*
X151959567Y-66421261D01*
X152112233Y-66192780D01*
X152217391Y-65938907D01*
X152271000Y-65669396D01*
X152271000Y-65394604D01*
X152217391Y-65125093D01*
X152112233Y-64871220D01*
X151959567Y-64642739D01*
X151765261Y-64448433D01*
X151536780Y-64295767D01*
X151455260Y-64262000D01*
X151536780Y-64228233D01*
X151765261Y-64075567D01*
X151959567Y-63881261D01*
X152112233Y-63652780D01*
X152146000Y-63571260D01*
X152179767Y-63652780D01*
X152332433Y-63881261D01*
X152526739Y-64075567D01*
X152755220Y-64228233D01*
X153009093Y-64333391D01*
X153278604Y-64387000D01*
X153553396Y-64387000D01*
X153822907Y-64333391D01*
X153860501Y-64317819D01*
X153860500Y-65924189D01*
X153860500Y-65924190D01*
X153860501Y-68031438D01*
X153860500Y-68031448D01*
X153860501Y-71841438D01*
X153860500Y-71841448D01*
X153860501Y-73111440D01*
X153856506Y-73152000D01*
X153872445Y-73313826D01*
X153919647Y-73469433D01*
X153996301Y-73612842D01*
X154048134Y-73676000D01*
X154099460Y-73738541D01*
X154130961Y-73764393D01*
X155690572Y-75324004D01*
X155722774Y-75485898D01*
X155800795Y-75674256D01*
X155914063Y-75843774D01*
X156058226Y-75987937D01*
X156227744Y-76101205D01*
X156416102Y-76179226D01*
X156616061Y-76219000D01*
X156819939Y-76219000D01*
X157019898Y-76179226D01*
X157208256Y-76101205D01*
X157377774Y-75987937D01*
X157521937Y-75843774D01*
X157635205Y-75674256D01*
X157713226Y-75485898D01*
X157753000Y-75285939D01*
X157753000Y-75082061D01*
X157713226Y-74882102D01*
X157635205Y-74693744D01*
X157521937Y-74524226D01*
X157377774Y-74380063D01*
X157208256Y-74266795D01*
X157019898Y-74188774D01*
X156858004Y-74156572D01*
X156634433Y-73933000D01*
X156819939Y-73933000D01*
X157019898Y-73893226D01*
X157208256Y-73815205D01*
X157377774Y-73701937D01*
X157521937Y-73557774D01*
X157635205Y-73388256D01*
X157713226Y-73199898D01*
X157753000Y-72999939D01*
X157753000Y-72796061D01*
X157713226Y-72596102D01*
X157635205Y-72407744D01*
X157521937Y-72238226D01*
X157377774Y-72094063D01*
X157208256Y-71980795D01*
X157019898Y-71902774D01*
X156858004Y-71870572D01*
X156781500Y-71794067D01*
X156781500Y-66658171D01*
X156845261Y-66615567D01*
X157039567Y-66421261D01*
X157192233Y-66192780D01*
X157226000Y-66111260D01*
X157259767Y-66192780D01*
X157412433Y-66421261D01*
X157606739Y-66615567D01*
X157671641Y-66658933D01*
X157682445Y-66768628D01*
X157729647Y-66924235D01*
X157806301Y-67067644D01*
X157867863Y-67142656D01*
X157909460Y-67193343D01*
X157940961Y-67219195D01*
X158178500Y-67456734D01*
X158178501Y-84541439D01*
X158174506Y-84582000D01*
X158190445Y-84743826D01*
X158237647Y-84899433D01*
X158314301Y-85042842D01*
X158373643Y-85115150D01*
X158417460Y-85168541D01*
X158448961Y-85194393D01*
X158992572Y-85738004D01*
X159024774Y-85899898D01*
X159102795Y-86088256D01*
X159216063Y-86257774D01*
X159360226Y-86401937D01*
X159529744Y-86515205D01*
X159718102Y-86593226D01*
X159918061Y-86633000D01*
X160121939Y-86633000D01*
X160321898Y-86593226D01*
X160510256Y-86515205D01*
X160679774Y-86401937D01*
X160823937Y-86257774D01*
X160937205Y-86088256D01*
X161015226Y-85899898D01*
X161055000Y-85699939D01*
X161055000Y-85496061D01*
X161015226Y-85296102D01*
X160937205Y-85107744D01*
X160823937Y-84938226D01*
X160679774Y-84794063D01*
X160510256Y-84680795D01*
X160321898Y-84602774D01*
X160160004Y-84570572D01*
X159829500Y-84240068D01*
X159829500Y-83823211D01*
X159868226Y-83861937D01*
X160037744Y-83975205D01*
X160226102Y-84053226D01*
X160426061Y-84093000D01*
X160629939Y-84093000D01*
X160829898Y-84053226D01*
X161018256Y-83975205D01*
X161187774Y-83861937D01*
X161331937Y-83717774D01*
X161445205Y-83548256D01*
X161523226Y-83359898D01*
X161563000Y-83159939D01*
X161563000Y-82956061D01*
X161523226Y-82756102D01*
X161445205Y-82567744D01*
X161331937Y-82398226D01*
X161187774Y-82254063D01*
X161018256Y-82140795D01*
X160829898Y-82062774D01*
X160668004Y-82030572D01*
X160591500Y-81954067D01*
X160591500Y-81535384D01*
X160680061Y-81553000D01*
X160883939Y-81553000D01*
X161083898Y-81513226D01*
X161272256Y-81435205D01*
X161441774Y-81321937D01*
X161585937Y-81177774D01*
X161699205Y-81008256D01*
X161777226Y-80819898D01*
X161817000Y-80619939D01*
X161817000Y-80416061D01*
X161777226Y-80216102D01*
X161699205Y-80027744D01*
X161585937Y-79858226D01*
X161441774Y-79714063D01*
X161353500Y-79655080D01*
X161353500Y-72760408D01*
X165227000Y-72760408D01*
X165227000Y-73035592D01*
X165280686Y-73305490D01*
X165385995Y-73559727D01*
X165538880Y-73788535D01*
X165733465Y-73983120D01*
X165962273Y-74136005D01*
X166039515Y-74168000D01*
X165962273Y-74199995D01*
X165733465Y-74352880D01*
X165538880Y-74547465D01*
X165385995Y-74776273D01*
X165280686Y-75030510D01*
X165227000Y-75300408D01*
X165227000Y-75575592D01*
X165280686Y-75845490D01*
X165385995Y-76099727D01*
X165538880Y-76328535D01*
X165733465Y-76523120D01*
X165962273Y-76676005D01*
X166039515Y-76708000D01*
X165962273Y-76739995D01*
X165733465Y-76892880D01*
X165538880Y-77087465D01*
X165385995Y-77316273D01*
X165280686Y-77570510D01*
X165227000Y-77840408D01*
X165227000Y-78115592D01*
X165280686Y-78385490D01*
X165385995Y-78639727D01*
X165538880Y-78868535D01*
X165733465Y-79063120D01*
X165962273Y-79216005D01*
X166039515Y-79248000D01*
X165962273Y-79279995D01*
X165733465Y-79432880D01*
X165538880Y-79627465D01*
X165385995Y-79856273D01*
X165280686Y-80110510D01*
X165227000Y-80380408D01*
X165227000Y-80655592D01*
X165280686Y-80925490D01*
X165385995Y-81179727D01*
X165538880Y-81408535D01*
X165733465Y-81603120D01*
X165962273Y-81756005D01*
X166039515Y-81788000D01*
X165962273Y-81819995D01*
X165733465Y-81972880D01*
X165538880Y-82167465D01*
X165385995Y-82396273D01*
X165280686Y-82650510D01*
X165227000Y-82920408D01*
X165227000Y-83195592D01*
X165280686Y-83465490D01*
X165385995Y-83719727D01*
X165538880Y-83948535D01*
X165733465Y-84143120D01*
X165962273Y-84296005D01*
X166039515Y-84328000D01*
X165962273Y-84359995D01*
X165733465Y-84512880D01*
X165538880Y-84707465D01*
X165385995Y-84936273D01*
X165280686Y-85190510D01*
X165227000Y-85460408D01*
X165227000Y-85735592D01*
X165280686Y-86005490D01*
X165385995Y-86259727D01*
X165538880Y-86488535D01*
X165733465Y-86683120D01*
X165962273Y-86836005D01*
X166216510Y-86941314D01*
X166486408Y-86995000D01*
X166761592Y-86995000D01*
X167031490Y-86941314D01*
X167285727Y-86836005D01*
X167514535Y-86683120D01*
X167562095Y-86635560D01*
X172900000Y-86635560D01*
X172900000Y-87100440D01*
X172990694Y-87556387D01*
X173168595Y-87985879D01*
X173426868Y-88372412D01*
X173755588Y-88701132D01*
X174142121Y-88959405D01*
X174571613Y-89137306D01*
X175027560Y-89228000D01*
X175492440Y-89228000D01*
X175948387Y-89137306D01*
X176377879Y-88959405D01*
X176764412Y-88701132D01*
X177093132Y-88372412D01*
X177351405Y-87985879D01*
X177529306Y-87556387D01*
X177620000Y-87100440D01*
X177620000Y-86635560D01*
X177529306Y-86179613D01*
X177351405Y-85750121D01*
X177093132Y-85363588D01*
X176764412Y-85034868D01*
X176377879Y-84776595D01*
X175948387Y-84598694D01*
X175492440Y-84508000D01*
X175027560Y-84508000D01*
X174571613Y-84598694D01*
X174142121Y-84776595D01*
X173755588Y-85034868D01*
X173426868Y-85363588D01*
X173168595Y-85750121D01*
X172990694Y-86179613D01*
X172900000Y-86635560D01*
X167562095Y-86635560D01*
X167709120Y-86488535D01*
X167862005Y-86259727D01*
X167967314Y-86005490D01*
X168021000Y-85735592D01*
X168021000Y-85460408D01*
X167967314Y-85190510D01*
X167862005Y-84936273D01*
X167709120Y-84707465D01*
X167514535Y-84512880D01*
X167285727Y-84359995D01*
X167208485Y-84328000D01*
X167285727Y-84296005D01*
X167514535Y-84143120D01*
X167709120Y-83948535D01*
X167862005Y-83719727D01*
X167967314Y-83465490D01*
X168021000Y-83195592D01*
X168021000Y-82920408D01*
X167967314Y-82650510D01*
X167862005Y-82396273D01*
X167709120Y-82167465D01*
X167514535Y-81972880D01*
X167285727Y-81819995D01*
X167208485Y-81788000D01*
X167285727Y-81756005D01*
X167514535Y-81603120D01*
X167709120Y-81408535D01*
X167862005Y-81179727D01*
X167967314Y-80925490D01*
X168021000Y-80655592D01*
X168021000Y-80380408D01*
X167967314Y-80110510D01*
X167862005Y-79856273D01*
X167709120Y-79627465D01*
X167514535Y-79432880D01*
X167285727Y-79279995D01*
X167208485Y-79248000D01*
X167285727Y-79216005D01*
X167514535Y-79063120D01*
X167709120Y-78868535D01*
X167862005Y-78639727D01*
X167967314Y-78385490D01*
X168021000Y-78115592D01*
X168021000Y-77840408D01*
X167967314Y-77570510D01*
X167862005Y-77316273D01*
X167709120Y-77087465D01*
X167514535Y-76892880D01*
X167285727Y-76739995D01*
X167208485Y-76708000D01*
X167285727Y-76676005D01*
X167514535Y-76523120D01*
X167709120Y-76328535D01*
X167862005Y-76099727D01*
X167967314Y-75845490D01*
X168021000Y-75575592D01*
X168021000Y-75300408D01*
X167967314Y-75030510D01*
X167862005Y-74776273D01*
X167709120Y-74547465D01*
X167514535Y-74352880D01*
X167285727Y-74199995D01*
X167208485Y-74168000D01*
X167285727Y-74136005D01*
X167514535Y-73983120D01*
X167709120Y-73788535D01*
X167862005Y-73559727D01*
X167967314Y-73305490D01*
X168021000Y-73035592D01*
X168021000Y-72760408D01*
X167967314Y-72490510D01*
X167862005Y-72236273D01*
X167709120Y-72007465D01*
X167514535Y-71812880D01*
X167285727Y-71659995D01*
X167031490Y-71554686D01*
X166761592Y-71501000D01*
X166486408Y-71501000D01*
X166216510Y-71554686D01*
X165962273Y-71659995D01*
X165733465Y-71812880D01*
X165538880Y-72007465D01*
X165385995Y-72236273D01*
X165280686Y-72490510D01*
X165227000Y-72760408D01*
X161353500Y-72760408D01*
X161353500Y-68921932D01*
X161419872Y-68855560D01*
X172900000Y-68855560D01*
X172900000Y-69320440D01*
X172990694Y-69776387D01*
X173168595Y-70205879D01*
X173426868Y-70592412D01*
X173755588Y-70921132D01*
X174142121Y-71179405D01*
X174571613Y-71357306D01*
X175027560Y-71448000D01*
X175492440Y-71448000D01*
X175948387Y-71357306D01*
X176377879Y-71179405D01*
X176764412Y-70921132D01*
X177093132Y-70592412D01*
X177351405Y-70205879D01*
X177529306Y-69776387D01*
X177620000Y-69320440D01*
X177620000Y-68855560D01*
X177529306Y-68399613D01*
X177351405Y-67970121D01*
X177093132Y-67583588D01*
X176764412Y-67254868D01*
X176377879Y-66996595D01*
X175948387Y-66818694D01*
X175492440Y-66728000D01*
X175027560Y-66728000D01*
X174571613Y-66818694D01*
X174142121Y-66996595D01*
X173755588Y-67254868D01*
X173426868Y-67583588D01*
X173168595Y-67970121D01*
X172990694Y-68399613D01*
X172900000Y-68855560D01*
X161419872Y-68855560D01*
X163363393Y-66912040D01*
X163438604Y-66927000D01*
X163713396Y-66927000D01*
X163982907Y-66873391D01*
X164236780Y-66768233D01*
X164465261Y-66615567D01*
X164659567Y-66421261D01*
X164812233Y-66192780D01*
X164846000Y-66111260D01*
X164879767Y-66192780D01*
X165032433Y-66421261D01*
X165226739Y-66615567D01*
X165455220Y-66768233D01*
X165709093Y-66873391D01*
X165978604Y-66927000D01*
X166253396Y-66927000D01*
X166522907Y-66873391D01*
X166776780Y-66768233D01*
X167005261Y-66615567D01*
X167199567Y-66421261D01*
X167352233Y-66192780D01*
X167386000Y-66111260D01*
X167419767Y-66192780D01*
X167572433Y-66421261D01*
X167766739Y-66615567D01*
X167995220Y-66768233D01*
X168249093Y-66873391D01*
X168518604Y-66927000D01*
X168793396Y-66927000D01*
X169062907Y-66873391D01*
X169316780Y-66768233D01*
X169545261Y-66615567D01*
X169739567Y-66421261D01*
X169892233Y-66192780D01*
X169997391Y-65938907D01*
X170051000Y-65669396D01*
X170051000Y-65394604D01*
X169997391Y-65125093D01*
X169892233Y-64871220D01*
X169739567Y-64642739D01*
X169545261Y-64448433D01*
X169316780Y-64295767D01*
X169235260Y-64262000D01*
X169316780Y-64228233D01*
X169545261Y-64075567D01*
X169739567Y-63881261D01*
X169892233Y-63652780D01*
X169926000Y-63571260D01*
X169959767Y-63652780D01*
X170112433Y-63881261D01*
X170306739Y-64075567D01*
X170535220Y-64228233D01*
X170789093Y-64333391D01*
X171058604Y-64387000D01*
X171333396Y-64387000D01*
X171602907Y-64333391D01*
X171856780Y-64228233D01*
X172040246Y-64105645D01*
X174434500Y-64105645D01*
X174434500Y-64418355D01*
X174495507Y-64725057D01*
X174615176Y-65013963D01*
X174788908Y-65273972D01*
X175010028Y-65495092D01*
X175270037Y-65668824D01*
X175558943Y-65788493D01*
X175865645Y-65849500D01*
X176178355Y-65849500D01*
X176485057Y-65788493D01*
X176773963Y-65668824D01*
X177033972Y-65495092D01*
X177255092Y-65273972D01*
X177428824Y-65013963D01*
X177548493Y-64725057D01*
X177609500Y-64418355D01*
X177609500Y-64105645D01*
X177548493Y-63798943D01*
X177428824Y-63510037D01*
X177255092Y-63250028D01*
X177033972Y-63028908D01*
X176773963Y-62855176D01*
X176485057Y-62735507D01*
X176178355Y-62674500D01*
X175865645Y-62674500D01*
X175558943Y-62735507D01*
X175270037Y-62855176D01*
X175010028Y-63028908D01*
X174788908Y-63250028D01*
X174615176Y-63510037D01*
X174495507Y-63798943D01*
X174434500Y-64105645D01*
X172040246Y-64105645D01*
X172085261Y-64075567D01*
X172279567Y-63881261D01*
X172432233Y-63652780D01*
X172537391Y-63398907D01*
X172591000Y-63129396D01*
X172591000Y-62854604D01*
X172537391Y-62585093D01*
X172469214Y-62420500D01*
X176749842Y-62420500D01*
X177190364Y-62463693D01*
X177581258Y-62581711D01*
X177941779Y-62773404D01*
X178258201Y-63031471D01*
X178518472Y-63346085D01*
X178712677Y-63705259D01*
X178833419Y-64095315D01*
X178879501Y-64533761D01*
X178879500Y-88865842D01*
X178836307Y-89306365D01*
X178718289Y-89697258D01*
X178526596Y-90057779D01*
X178268529Y-90374201D01*
X177953915Y-90634472D01*
X177594743Y-90828676D01*
X177204685Y-90949419D01*
X176766256Y-90995500D01*
X117382158Y-90995500D01*
X116941635Y-90952307D01*
X116550742Y-90834289D01*
X116190221Y-90642596D01*
X115873799Y-90384529D01*
X115613528Y-90069915D01*
X115419324Y-89710743D01*
X115298581Y-89320685D01*
X115252500Y-88882256D01*
X115252500Y-88141832D01*
X116078000Y-88141832D01*
X116078000Y-88642168D01*
X116175611Y-89132891D01*
X116367081Y-89595141D01*
X116645053Y-90011156D01*
X116998844Y-90364947D01*
X117414859Y-90642919D01*
X117877109Y-90834389D01*
X118367832Y-90932000D01*
X118868168Y-90932000D01*
X119358891Y-90834389D01*
X119821141Y-90642919D01*
X120237156Y-90364947D01*
X120590947Y-90011156D01*
X120868919Y-89595141D01*
X120946435Y-89408000D01*
X149302098Y-89408000D01*
X149352000Y-89412915D01*
X149401902Y-89408000D01*
X149551171Y-89393298D01*
X149742687Y-89335202D01*
X149919190Y-89240860D01*
X150073896Y-89113896D01*
X150105712Y-89075128D01*
X151079133Y-88101708D01*
X151117896Y-88069896D01*
X151244860Y-87915190D01*
X151339202Y-87738687D01*
X151397298Y-87547171D01*
X151412000Y-87397902D01*
X151412000Y-87397901D01*
X151416915Y-87348000D01*
X151412000Y-87298098D01*
X151412000Y-86330861D01*
X151523433Y-86390423D01*
X151687684Y-86440248D01*
X151858500Y-86457072D01*
X152433500Y-86457072D01*
X152604316Y-86440248D01*
X152768567Y-86390423D01*
X152919942Y-86309512D01*
X153052623Y-86200623D01*
X153161512Y-86067942D01*
X153242423Y-85916567D01*
X153292248Y-85752316D01*
X153309072Y-85581500D01*
X153309072Y-85106500D01*
X153292248Y-84935684D01*
X153242423Y-84771433D01*
X153161512Y-84620058D01*
X153052623Y-84487377D01*
X153035000Y-84472914D01*
X153035000Y-84310086D01*
X153052623Y-84295623D01*
X153161512Y-84162942D01*
X153242423Y-84011567D01*
X153292248Y-83847316D01*
X153309072Y-83676500D01*
X153309072Y-83201500D01*
X153292248Y-83030684D01*
X153242423Y-82866433D01*
X153161512Y-82715058D01*
X153052623Y-82582377D01*
X153035000Y-82567914D01*
X153035000Y-82266596D01*
X153038623Y-82263623D01*
X153064165Y-82232500D01*
X153502450Y-82232500D01*
X153543000Y-82236494D01*
X153583550Y-82232500D01*
X153583553Y-82232500D01*
X153704826Y-82220556D01*
X153860434Y-82173353D01*
X154003842Y-82096699D01*
X154129541Y-81993541D01*
X154155398Y-81962034D01*
X154479035Y-81638397D01*
X154510541Y-81612541D01*
X154613699Y-81486842D01*
X154690353Y-81343434D01*
X154737556Y-81187826D01*
X154749500Y-81066553D01*
X154749500Y-81066544D01*
X154753493Y-81026001D01*
X154749500Y-80985458D01*
X154749500Y-78272539D01*
X154753493Y-78231999D01*
X154749500Y-78191459D01*
X154749500Y-78191447D01*
X154737556Y-78070174D01*
X154690353Y-77914566D01*
X154613699Y-77771158D01*
X154613698Y-77771156D01*
X154587563Y-77739311D01*
X154510541Y-77645459D01*
X154479034Y-77619602D01*
X154443429Y-77583997D01*
X154411226Y-77422102D01*
X154333205Y-77233744D01*
X154219937Y-77064226D01*
X154075774Y-76920063D01*
X153906256Y-76806795D01*
X153717898Y-76728774D01*
X153517939Y-76689000D01*
X153314061Y-76689000D01*
X153114102Y-76728774D01*
X152971500Y-76787842D01*
X152971500Y-76319503D01*
X153063205Y-76182256D01*
X153141226Y-75993898D01*
X153181000Y-75793939D01*
X153181000Y-75590061D01*
X153141226Y-75390102D01*
X153063205Y-75201744D01*
X152949937Y-75032226D01*
X152805774Y-74888063D01*
X152636256Y-74774795D01*
X152447898Y-74696774D01*
X152247939Y-74657000D01*
X152044061Y-74657000D01*
X151844102Y-74696774D01*
X151655744Y-74774795D01*
X151638000Y-74786651D01*
X151620256Y-74774795D01*
X151431898Y-74696774D01*
X151231939Y-74657000D01*
X151028061Y-74657000D01*
X150828102Y-74696774D01*
X150639744Y-74774795D01*
X150470226Y-74888063D01*
X150326063Y-75032226D01*
X150212795Y-75201744D01*
X150134774Y-75390102D01*
X150095000Y-75590061D01*
X150095000Y-75793939D01*
X150134774Y-75993898D01*
X150212795Y-76182256D01*
X150304500Y-76319503D01*
X150304501Y-78261928D01*
X150094500Y-78261928D01*
X149923684Y-78278752D01*
X149759433Y-78328577D01*
X149608058Y-78409488D01*
X149475377Y-78518377D01*
X149366488Y-78651058D01*
X149285577Y-78802433D01*
X149235752Y-78966684D01*
X149218928Y-79137500D01*
X149218928Y-79612500D01*
X149235752Y-79783316D01*
X149285577Y-79947567D01*
X149366488Y-80098942D01*
X149475377Y-80231623D01*
X149493000Y-80246086D01*
X149493000Y-80535914D01*
X149475377Y-80550377D01*
X149366488Y-80683058D01*
X149285577Y-80834433D01*
X149235752Y-80998684D01*
X149218928Y-81169500D01*
X149218928Y-81644500D01*
X149235752Y-81815316D01*
X149285577Y-81979567D01*
X149366488Y-82130942D01*
X149475377Y-82263623D01*
X149493001Y-82278086D01*
X149493001Y-82579403D01*
X149489377Y-82582377D01*
X149380488Y-82715058D01*
X149299577Y-82866433D01*
X149249752Y-83030684D01*
X149232928Y-83201500D01*
X149232928Y-83676500D01*
X149249752Y-83847316D01*
X149299577Y-84011567D01*
X149380488Y-84162942D01*
X149489377Y-84295623D01*
X149606203Y-84391500D01*
X149489377Y-84487377D01*
X149380488Y-84620058D01*
X149299577Y-84771433D01*
X149249752Y-84935684D01*
X149232928Y-85106500D01*
X149232928Y-85581500D01*
X149249752Y-85752316D01*
X149299577Y-85916567D01*
X149380001Y-86067030D01*
X149380000Y-86927159D01*
X148931160Y-87376000D01*
X125012485Y-87376000D01*
X125106942Y-87325512D01*
X125239623Y-87216623D01*
X125348512Y-87083942D01*
X125429423Y-86932567D01*
X125479248Y-86768316D01*
X125496072Y-86597500D01*
X125496072Y-86233000D01*
X127718340Y-86233000D01*
X127762000Y-86237300D01*
X127805660Y-86233000D01*
X127805667Y-86233000D01*
X127936274Y-86220136D01*
X128103851Y-86169303D01*
X128258291Y-86086753D01*
X128393659Y-85975659D01*
X128421500Y-85941735D01*
X128613732Y-85749503D01*
X128647659Y-85721659D01*
X128758753Y-85586291D01*
X128841303Y-85431851D01*
X128873715Y-85325000D01*
X128892136Y-85264276D01*
X128903066Y-85153303D01*
X128905000Y-85133667D01*
X128905000Y-85133661D01*
X128909300Y-85090001D01*
X128905000Y-85046341D01*
X128905000Y-83550235D01*
X129137730Y-83317506D01*
X129158518Y-83323812D01*
X129283000Y-83336072D01*
X131033000Y-83336072D01*
X131157482Y-83323812D01*
X131277180Y-83287502D01*
X131387494Y-83228537D01*
X131484185Y-83149185D01*
X131563537Y-83052494D01*
X131622502Y-82942180D01*
X131658812Y-82822482D01*
X131671072Y-82698000D01*
X131671072Y-82148000D01*
X131658812Y-82023518D01*
X131622502Y-81903820D01*
X131563537Y-81793506D01*
X131559018Y-81788000D01*
X131563537Y-81782494D01*
X131622502Y-81672180D01*
X131658812Y-81552482D01*
X131671072Y-81428000D01*
X131671072Y-80878000D01*
X131658812Y-80753518D01*
X131622502Y-80633820D01*
X131563537Y-80523506D01*
X131559018Y-80518000D01*
X131563537Y-80512494D01*
X131622502Y-80402180D01*
X131658812Y-80282482D01*
X131671072Y-80158000D01*
X131671072Y-79608000D01*
X131658812Y-79483518D01*
X131622502Y-79363820D01*
X131563537Y-79253506D01*
X131484185Y-79156815D01*
X131387494Y-79077463D01*
X131277180Y-79018498D01*
X131157482Y-78982188D01*
X131033000Y-78969928D01*
X130605057Y-78969928D01*
X130548687Y-78939798D01*
X130357171Y-78881702D01*
X130207902Y-78867000D01*
X127938893Y-78867000D01*
X127888999Y-78862086D01*
X127839105Y-78867000D01*
X126663485Y-78867000D01*
X126606567Y-78836577D01*
X126442316Y-78786752D01*
X126271500Y-78769928D01*
X125696500Y-78769928D01*
X125525684Y-78786752D01*
X125361433Y-78836577D01*
X125210058Y-78917488D01*
X125077377Y-79026377D01*
X124968488Y-79159058D01*
X124887577Y-79310433D01*
X124837752Y-79474684D01*
X124820928Y-79645500D01*
X124820928Y-80120500D01*
X124837752Y-80291316D01*
X124887577Y-80455567D01*
X124968488Y-80606942D01*
X125077377Y-80739623D01*
X125210058Y-80848512D01*
X125361433Y-80929423D01*
X125525684Y-80979248D01*
X125696500Y-80996072D01*
X126271500Y-80996072D01*
X126442316Y-80979248D01*
X126606567Y-80929423D01*
X126619000Y-80922777D01*
X126619000Y-80955540D01*
X126600000Y-81051061D01*
X126600000Y-81247585D01*
X126442316Y-81199752D01*
X126271500Y-81182928D01*
X125696500Y-81182928D01*
X125525684Y-81199752D01*
X125361433Y-81249577D01*
X125210058Y-81330488D01*
X125077377Y-81439377D01*
X124968488Y-81572058D01*
X124887577Y-81723433D01*
X124837752Y-81887684D01*
X124820928Y-82058500D01*
X124820928Y-82533500D01*
X124837752Y-82704316D01*
X124887577Y-82868567D01*
X124968488Y-83019942D01*
X125077377Y-83152623D01*
X125208001Y-83259823D01*
X125208000Y-83433935D01*
X125120942Y-83362488D01*
X124969567Y-83281577D01*
X124805316Y-83231752D01*
X124634500Y-83214928D01*
X124059500Y-83214928D01*
X123888684Y-83231752D01*
X123724433Y-83281577D01*
X123573058Y-83362488D01*
X123479828Y-83439000D01*
X123214468Y-83439000D01*
X123172256Y-83410795D01*
X122983898Y-83332774D01*
X122783939Y-83293000D01*
X122580061Y-83293000D01*
X122380102Y-83332774D01*
X122191744Y-83410795D01*
X122022226Y-83524063D01*
X121878063Y-83668226D01*
X121764795Y-83837744D01*
X121686774Y-84026102D01*
X121647000Y-84226061D01*
X121647000Y-84429939D01*
X121686774Y-84629898D01*
X121764795Y-84818256D01*
X121878063Y-84987774D01*
X122022226Y-85131937D01*
X122191744Y-85245205D01*
X122380102Y-85323226D01*
X122484541Y-85344000D01*
X122380102Y-85364774D01*
X122191744Y-85442795D01*
X122022226Y-85556063D01*
X121878063Y-85700226D01*
X121764795Y-85869744D01*
X121686774Y-86058102D01*
X121647000Y-86258061D01*
X121647000Y-86461939D01*
X121686774Y-86661898D01*
X121764795Y-86850256D01*
X121878063Y-87019774D01*
X122022226Y-87163937D01*
X122191744Y-87277205D01*
X122380102Y-87355226D01*
X122484541Y-87376000D01*
X120946435Y-87376000D01*
X120868919Y-87188859D01*
X120590947Y-86772844D01*
X120237156Y-86419053D01*
X119821141Y-86141081D01*
X119358891Y-85949611D01*
X118868168Y-85852000D01*
X118367832Y-85852000D01*
X117877109Y-85949611D01*
X117414859Y-86141081D01*
X116998844Y-86419053D01*
X116645053Y-86772844D01*
X116367081Y-87188859D01*
X116175611Y-87651109D01*
X116078000Y-88141832D01*
X115252500Y-88141832D01*
X115252500Y-67934408D01*
X117221000Y-67934408D01*
X117221000Y-68209592D01*
X117274686Y-68479490D01*
X117379995Y-68733727D01*
X117532880Y-68962535D01*
X117727465Y-69157120D01*
X117956273Y-69310005D01*
X118033515Y-69342000D01*
X117956273Y-69373995D01*
X117727465Y-69526880D01*
X117532880Y-69721465D01*
X117379995Y-69950273D01*
X117274686Y-70204510D01*
X117221000Y-70474408D01*
X117221000Y-70749592D01*
X117274686Y-71019490D01*
X117379995Y-71273727D01*
X117532880Y-71502535D01*
X117727465Y-71697120D01*
X117956273Y-71850005D01*
X118210510Y-71955314D01*
X118480408Y-72009000D01*
X118755592Y-72009000D01*
X119025490Y-71955314D01*
X119279727Y-71850005D01*
X119508535Y-71697120D01*
X119703120Y-71502535D01*
X119731952Y-71459385D01*
X120627611Y-72355045D01*
X120653459Y-72386541D01*
X120684955Y-72412389D01*
X120684958Y-72412392D01*
X120779157Y-72489699D01*
X120869099Y-72537774D01*
X120922566Y-72566353D01*
X121078174Y-72613556D01*
X121199447Y-72625500D01*
X121199449Y-72625500D01*
X121240000Y-72629494D01*
X121280550Y-72625500D01*
X122768489Y-72625500D01*
X122769518Y-72625812D01*
X122894000Y-72638072D01*
X123994000Y-72638072D01*
X124118482Y-72625812D01*
X124238180Y-72589502D01*
X124348494Y-72530537D01*
X124445185Y-72451185D01*
X124524537Y-72354494D01*
X124583502Y-72244180D01*
X124619812Y-72124482D01*
X124632072Y-72000000D01*
X124632072Y-71600000D01*
X124619812Y-71475518D01*
X124583502Y-71355820D01*
X124567295Y-71325500D01*
X125638500Y-71325500D01*
X125638501Y-72609800D01*
X125557377Y-72676377D01*
X125448488Y-72809058D01*
X125367577Y-72960433D01*
X125317752Y-73124684D01*
X125300928Y-73295500D01*
X125300928Y-73770500D01*
X125317752Y-73941316D01*
X125367577Y-74105567D01*
X125448488Y-74256942D01*
X125557377Y-74389623D01*
X125638500Y-74456200D01*
X125638501Y-74537779D01*
X125585377Y-74581377D01*
X125476488Y-74714058D01*
X125395577Y-74865433D01*
X125345752Y-75029684D01*
X125328928Y-75200500D01*
X125328928Y-75675500D01*
X125345752Y-75846316D01*
X125395577Y-76010567D01*
X125476488Y-76161942D01*
X125585377Y-76294623D01*
X125718058Y-76403512D01*
X125869433Y-76484423D01*
X126033684Y-76534248D01*
X126204500Y-76551072D01*
X126779500Y-76551072D01*
X126950316Y-76534248D01*
X127114567Y-76484423D01*
X127265942Y-76403512D01*
X127398623Y-76294623D01*
X127411533Y-76278892D01*
X127525744Y-76355205D01*
X127714102Y-76433226D01*
X127914061Y-76473000D01*
X128117939Y-76473000D01*
X128317898Y-76433226D01*
X128506256Y-76355205D01*
X128675774Y-76241937D01*
X128819937Y-76097774D01*
X128933205Y-75928256D01*
X129011226Y-75739898D01*
X129051000Y-75539939D01*
X129051000Y-75336061D01*
X129011226Y-75136102D01*
X128933205Y-74947744D01*
X128819937Y-74778226D01*
X128675774Y-74634063D01*
X128506256Y-74520795D01*
X128421047Y-74485500D01*
X128506256Y-74450205D01*
X128675774Y-74336937D01*
X128819937Y-74192774D01*
X128824477Y-74185979D01*
X128887377Y-74262623D01*
X129020058Y-74371512D01*
X129171433Y-74452423D01*
X129335684Y-74502248D01*
X129506500Y-74519072D01*
X130081500Y-74519072D01*
X130252316Y-74502248D01*
X130416567Y-74452423D01*
X130567942Y-74371512D01*
X130669000Y-74288575D01*
X130718501Y-74329200D01*
X130718501Y-74344402D01*
X130654795Y-74439744D01*
X130576774Y-74628102D01*
X130537000Y-74828061D01*
X130537000Y-75031939D01*
X130576774Y-75231898D01*
X130654795Y-75420256D01*
X130768063Y-75589774D01*
X130912226Y-75733937D01*
X131081744Y-75847205D01*
X131270102Y-75925226D01*
X131470061Y-75965000D01*
X131673939Y-75965000D01*
X131873898Y-75925226D01*
X132062256Y-75847205D01*
X132231774Y-75733937D01*
X132375937Y-75589774D01*
X132489205Y-75420256D01*
X132567226Y-75231898D01*
X132607000Y-75031939D01*
X132607000Y-74828061D01*
X132567226Y-74628102D01*
X132544842Y-74574061D01*
X134347000Y-74574061D01*
X134347000Y-74777939D01*
X134386774Y-74977898D01*
X134464795Y-75166256D01*
X134578063Y-75335774D01*
X134722226Y-75479937D01*
X134891744Y-75593205D01*
X135080102Y-75671226D01*
X135280061Y-75711000D01*
X135483939Y-75711000D01*
X135683898Y-75671226D01*
X135872256Y-75593205D01*
X136004550Y-75504809D01*
X136027377Y-75532623D01*
X136160058Y-75641512D01*
X136311433Y-75722423D01*
X136475684Y-75772248D01*
X136646500Y-75789072D01*
X137221500Y-75789072D01*
X137392316Y-75772248D01*
X137556567Y-75722423D01*
X137707942Y-75641512D01*
X137809000Y-75558575D01*
X137910058Y-75641512D01*
X138061433Y-75722423D01*
X138225684Y-75772248D01*
X138396500Y-75789072D01*
X138971500Y-75789072D01*
X139142316Y-75772248D01*
X139306567Y-75722423D01*
X139457942Y-75641512D01*
X139551172Y-75565000D01*
X142633928Y-75565000D01*
X142633928Y-75676000D01*
X142646188Y-75800482D01*
X142682498Y-75920180D01*
X142741463Y-76030494D01*
X142820815Y-76127185D01*
X142917506Y-76206537D01*
X143027820Y-76265502D01*
X143147518Y-76301812D01*
X143272000Y-76314072D01*
X145272000Y-76314072D01*
X145396482Y-76301812D01*
X145516180Y-76265502D01*
X145626494Y-76206537D01*
X145723185Y-76127185D01*
X145802537Y-76030494D01*
X145861502Y-75920180D01*
X145897812Y-75800482D01*
X145910072Y-75676000D01*
X145910072Y-73676000D01*
X145897812Y-73551518D01*
X145861502Y-73431820D01*
X145802537Y-73321506D01*
X145723185Y-73224815D01*
X145626494Y-73145463D01*
X145516180Y-73086498D01*
X145396482Y-73050188D01*
X145272000Y-73037928D01*
X143272000Y-73037928D01*
X143147518Y-73050188D01*
X143027820Y-73086498D01*
X142917506Y-73145463D01*
X142820815Y-73224815D01*
X142741463Y-73321506D01*
X142682498Y-73431820D01*
X142646188Y-73551518D01*
X142633928Y-73676000D01*
X142633928Y-73787000D01*
X139551172Y-73787000D01*
X139457942Y-73710488D01*
X139306567Y-73629577D01*
X139142316Y-73579752D01*
X138971500Y-73562928D01*
X138396500Y-73562928D01*
X138225684Y-73579752D01*
X138061433Y-73629577D01*
X137910058Y-73710488D01*
X137809000Y-73793425D01*
X137707942Y-73710488D01*
X137556567Y-73629577D01*
X137392316Y-73579752D01*
X137221500Y-73562928D01*
X136646500Y-73562928D01*
X136475684Y-73579752D01*
X136311433Y-73629577D01*
X136160058Y-73710488D01*
X136027377Y-73819377D01*
X136004550Y-73847191D01*
X135872256Y-73758795D01*
X135683898Y-73680774D01*
X135483939Y-73641000D01*
X135280061Y-73641000D01*
X135080102Y-73680774D01*
X134891744Y-73758795D01*
X134722226Y-73872063D01*
X134578063Y-74016226D01*
X134464795Y-74185744D01*
X134386774Y-74374102D01*
X134347000Y-74574061D01*
X132544842Y-74574061D01*
X132489205Y-74439744D01*
X132399106Y-74304902D01*
X132450623Y-74262623D01*
X132473450Y-74234809D01*
X132605744Y-74323205D01*
X132794102Y-74401226D01*
X132994061Y-74441000D01*
X133197939Y-74441000D01*
X133397898Y-74401226D01*
X133586256Y-74323205D01*
X133755774Y-74209937D01*
X133899937Y-74065774D01*
X134013205Y-73896256D01*
X134091226Y-73707898D01*
X134131000Y-73507939D01*
X134131000Y-73304061D01*
X134091226Y-73104102D01*
X134013205Y-72915744D01*
X133921500Y-72778497D01*
X133921500Y-72528220D01*
X133974623Y-72484623D01*
X134083512Y-72351942D01*
X134164423Y-72200567D01*
X134214248Y-72036316D01*
X134231072Y-71865500D01*
X134231072Y-71390500D01*
X134214248Y-71219684D01*
X134164423Y-71055433D01*
X134083512Y-70904058D01*
X133974623Y-70771377D01*
X133841942Y-70662488D01*
X133690567Y-70581577D01*
X133526316Y-70531752D01*
X133355500Y-70514928D01*
X133240055Y-70514928D01*
X133289423Y-70422567D01*
X133339248Y-70258316D01*
X133356072Y-70087500D01*
X133356072Y-69612500D01*
X133339248Y-69441684D01*
X133289423Y-69277433D01*
X133208512Y-69126058D01*
X133099623Y-68993377D01*
X133067172Y-68966745D01*
X133113623Y-68928623D01*
X133222512Y-68795942D01*
X133303423Y-68644567D01*
X133353248Y-68480316D01*
X133370072Y-68309500D01*
X133370072Y-67834500D01*
X133353248Y-67663684D01*
X133303423Y-67499433D01*
X133222512Y-67348058D01*
X133113623Y-67215377D01*
X132980942Y-67106488D01*
X132829567Y-67025577D01*
X132665316Y-66975752D01*
X132494500Y-66958928D01*
X131919500Y-66958928D01*
X131748684Y-66975752D01*
X131584433Y-67025577D01*
X131433058Y-67106488D01*
X131300377Y-67215377D01*
X131191488Y-67348058D01*
X131110577Y-67499433D01*
X131060752Y-67663684D01*
X131043928Y-67834500D01*
X131043928Y-68309500D01*
X131060752Y-68480316D01*
X131110577Y-68644567D01*
X131191488Y-68795942D01*
X131300377Y-68928623D01*
X131332828Y-68955255D01*
X131318000Y-68967425D01*
X131216942Y-68884488D01*
X131065567Y-68803577D01*
X130901316Y-68753752D01*
X130730500Y-68736928D01*
X130155500Y-68736928D01*
X129984684Y-68753752D01*
X129820433Y-68803577D01*
X129669058Y-68884488D01*
X129536377Y-68993377D01*
X129510835Y-69024500D01*
X128419511Y-69024500D01*
X128418482Y-69024188D01*
X128294000Y-69011928D01*
X127194000Y-69011928D01*
X127069518Y-69024188D01*
X126949820Y-69060498D01*
X126839506Y-69119463D01*
X126742815Y-69198815D01*
X126663463Y-69295506D01*
X126604498Y-69405820D01*
X126568188Y-69525518D01*
X126555928Y-69650000D01*
X126555928Y-69793777D01*
X126443434Y-69733647D01*
X126287826Y-69686444D01*
X126166553Y-69674500D01*
X126166550Y-69674500D01*
X126126000Y-69670506D01*
X126085450Y-69674500D01*
X124632072Y-69674500D01*
X124632072Y-69650000D01*
X124619812Y-69525518D01*
X124583502Y-69405820D01*
X124524537Y-69295506D01*
X124445185Y-69198815D01*
X124348494Y-69119463D01*
X124238180Y-69060498D01*
X124118482Y-69024188D01*
X123994000Y-69011928D01*
X122894000Y-69011928D01*
X122769518Y-69024188D01*
X122768489Y-69024500D01*
X122515934Y-69024500D01*
X121008398Y-67516966D01*
X120982541Y-67485459D01*
X120856842Y-67382301D01*
X120713434Y-67305647D01*
X120557826Y-67258444D01*
X120436553Y-67246500D01*
X120436550Y-67246500D01*
X120396000Y-67242506D01*
X120355450Y-67246500D01*
X119746575Y-67246500D01*
X119703120Y-67181465D01*
X119508535Y-66986880D01*
X119279727Y-66833995D01*
X119025490Y-66728686D01*
X118755592Y-66675000D01*
X118480408Y-66675000D01*
X118210510Y-66728686D01*
X117956273Y-66833995D01*
X117727465Y-66986880D01*
X117532880Y-67181465D01*
X117379995Y-67410273D01*
X117274686Y-67664510D01*
X117221000Y-67934408D01*
X115252500Y-67934408D01*
X115252500Y-64550158D01*
X115295693Y-64109636D01*
X115413711Y-63718742D01*
X115605404Y-63358221D01*
X115863471Y-63041799D01*
X116178085Y-62781528D01*
X116537259Y-62587323D01*
X116927315Y-62466581D01*
X117365752Y-62420500D01*
X121662786Y-62420500D01*
X121594609Y-62585093D01*
X121594609Y-62585093D01*
G37*
X121594609Y-62585093D02*
X121541000Y-62854604D01*
X121541000Y-63129396D01*
X121594609Y-63398907D01*
X121699767Y-63652780D01*
X121852433Y-63881261D01*
X122046739Y-64075567D01*
X122139467Y-64137526D01*
X122051518Y-64146188D01*
X121931820Y-64182498D01*
X121821506Y-64241463D01*
X121724815Y-64320815D01*
X121645463Y-64417506D01*
X121586498Y-64527820D01*
X121550188Y-64647518D01*
X121537928Y-64772000D01*
X121537928Y-66292000D01*
X121550188Y-66416482D01*
X121586498Y-66536180D01*
X121645463Y-66646494D01*
X121724815Y-66743185D01*
X121821506Y-66822537D01*
X121931820Y-66881502D01*
X122051518Y-66917812D01*
X122176000Y-66930072D01*
X123696000Y-66930072D01*
X123820482Y-66917812D01*
X123940180Y-66881502D01*
X124050494Y-66822537D01*
X124147185Y-66743185D01*
X124226537Y-66646494D01*
X124285502Y-66536180D01*
X124321812Y-66416482D01*
X124330474Y-66328533D01*
X124392433Y-66421261D01*
X124586739Y-66615567D01*
X124815220Y-66768233D01*
X125069093Y-66873391D01*
X125338604Y-66927000D01*
X125613396Y-66927000D01*
X125882907Y-66873391D01*
X126136780Y-66768233D01*
X126365261Y-66615567D01*
X126559567Y-66421261D01*
X126712233Y-66192780D01*
X126746000Y-66111260D01*
X126779767Y-66192780D01*
X126932433Y-66421261D01*
X127126739Y-66615567D01*
X127355220Y-66768233D01*
X127609093Y-66873391D01*
X127878604Y-66927000D01*
X128153396Y-66927000D01*
X128422907Y-66873391D01*
X128676780Y-66768233D01*
X128905261Y-66615567D01*
X129099567Y-66421261D01*
X129252233Y-66192780D01*
X129286000Y-66111260D01*
X129319767Y-66192780D01*
X129472433Y-66421261D01*
X129666739Y-66615567D01*
X129895220Y-66768233D01*
X130149093Y-66873391D01*
X130418604Y-66927000D01*
X130693396Y-66927000D01*
X130962907Y-66873391D01*
X131216780Y-66768233D01*
X131445261Y-66615567D01*
X131639567Y-66421261D01*
X131792233Y-66192780D01*
X131897391Y-65938907D01*
X131951000Y-65669396D01*
X131951000Y-65394604D01*
X131897391Y-65125093D01*
X131792233Y-64871220D01*
X131639567Y-64642739D01*
X131445261Y-64448433D01*
X131216780Y-64295767D01*
X131135260Y-64262000D01*
X131216780Y-64228233D01*
X131445261Y-64075567D01*
X131639567Y-63881261D01*
X131792233Y-63652780D01*
X131826000Y-63571260D01*
X131859767Y-63652780D01*
X132012433Y-63881261D01*
X132206739Y-64075567D01*
X132435220Y-64228233D01*
X132689093Y-64333391D01*
X132958604Y-64387000D01*
X133233396Y-64387000D01*
X133502907Y-64333391D01*
X133756780Y-64228233D01*
X133985261Y-64075567D01*
X134179567Y-63881261D01*
X134332233Y-63652780D01*
X134366000Y-63571260D01*
X134399767Y-63652780D01*
X134552433Y-63881261D01*
X134746739Y-64075567D01*
X134975220Y-64228233D01*
X135056740Y-64262000D01*
X134975220Y-64295767D01*
X134746739Y-64448433D01*
X134552433Y-64642739D01*
X134399767Y-64871220D01*
X134294609Y-65125093D01*
X134241000Y-65394604D01*
X134241000Y-65669396D01*
X134294609Y-65938907D01*
X134399767Y-66192780D01*
X134552433Y-66421261D01*
X134746739Y-66615567D01*
X134975220Y-66768233D01*
X135229093Y-66873391D01*
X135498604Y-66927000D01*
X135773396Y-66927000D01*
X136042907Y-66873391D01*
X136080501Y-66857819D01*
X136080501Y-67015440D01*
X136076506Y-67056000D01*
X136092445Y-67217826D01*
X136139647Y-67373433D01*
X136216301Y-67516842D01*
X136227887Y-67530959D01*
X136319460Y-67642541D01*
X136350961Y-67668393D01*
X136433206Y-67750638D01*
X136311433Y-67787577D01*
X136160058Y-67868488D01*
X136027377Y-67977377D01*
X135918488Y-68110058D01*
X135837577Y-68261433D01*
X135787752Y-68425684D01*
X135770928Y-68596500D01*
X135770928Y-69071500D01*
X135787752Y-69242316D01*
X135837577Y-69406567D01*
X135918488Y-69557942D01*
X136027377Y-69690623D01*
X136066828Y-69723000D01*
X136027377Y-69755377D01*
X135918488Y-69888058D01*
X135837577Y-70039433D01*
X135787752Y-70203684D01*
X135770928Y-70374500D01*
X135770928Y-70849500D01*
X135787752Y-71020316D01*
X135837577Y-71184567D01*
X135918488Y-71335942D01*
X136027377Y-71468623D01*
X136066828Y-71501000D01*
X136027377Y-71533377D01*
X135918488Y-71666058D01*
X135837577Y-71817433D01*
X135787752Y-71981684D01*
X135770928Y-72152500D01*
X135770928Y-72627500D01*
X135787752Y-72798316D01*
X135837577Y-72962567D01*
X135918488Y-73113942D01*
X136027377Y-73246623D01*
X136160058Y-73355512D01*
X136311433Y-73436423D01*
X136475684Y-73486248D01*
X136646500Y-73503072D01*
X137221500Y-73503072D01*
X137392316Y-73486248D01*
X137556567Y-73436423D01*
X137707942Y-73355512D01*
X137840623Y-73246623D01*
X137949512Y-73113942D01*
X138030423Y-72962567D01*
X138080248Y-72798316D01*
X138097072Y-72627500D01*
X138097072Y-72152500D01*
X138080248Y-71981684D01*
X138030423Y-71817433D01*
X137949512Y-71666058D01*
X137840623Y-71533377D01*
X137801172Y-71501000D01*
X137809000Y-71494575D01*
X137910058Y-71577512D01*
X138061433Y-71658423D01*
X138225684Y-71708248D01*
X138396500Y-71725072D01*
X138971500Y-71725072D01*
X139142316Y-71708248D01*
X139306567Y-71658423D01*
X139457942Y-71577512D01*
X139551172Y-71501000D01*
X141833928Y-71501000D01*
X141833928Y-71676000D01*
X141846188Y-71800482D01*
X141882498Y-71920180D01*
X141941463Y-72030494D01*
X142020815Y-72127185D01*
X142117506Y-72206537D01*
X142227820Y-72265502D01*
X142347518Y-72301812D01*
X142472000Y-72314072D01*
X143772000Y-72314072D01*
X143896482Y-72301812D01*
X144016180Y-72265502D01*
X144126494Y-72206537D01*
X144223185Y-72127185D01*
X144302537Y-72030494D01*
X144361502Y-71920180D01*
X144397812Y-71800482D01*
X144410072Y-71676000D01*
X144410072Y-69676000D01*
X144397812Y-69551518D01*
X144361502Y-69431820D01*
X144302537Y-69321506D01*
X144223185Y-69224815D01*
X144126494Y-69145463D01*
X144016180Y-69086498D01*
X143896482Y-69050188D01*
X143772000Y-69037928D01*
X142472000Y-69037928D01*
X142347518Y-69050188D01*
X142227820Y-69086498D01*
X142117506Y-69145463D01*
X142020815Y-69224815D01*
X141941463Y-69321506D01*
X141882498Y-69431820D01*
X141846188Y-69551518D01*
X141833928Y-69676000D01*
X141833928Y-69723000D01*
X139551172Y-69723000D01*
X139590623Y-69690623D01*
X139699512Y-69557942D01*
X139780423Y-69406567D01*
X139830248Y-69242316D01*
X139847072Y-69071500D01*
X139847072Y-68596500D01*
X139830248Y-68425684D01*
X139780423Y-68261433D01*
X139699512Y-68110058D01*
X139590623Y-67977377D01*
X139509500Y-67910801D01*
X139509500Y-67858539D01*
X139513493Y-67817999D01*
X139509500Y-67777459D01*
X139509500Y-67777447D01*
X139497556Y-67656174D01*
X139450353Y-67500566D01*
X139373699Y-67357158D01*
X139373698Y-67357156D01*
X139342915Y-67319647D01*
X139270541Y-67231459D01*
X139239034Y-67205602D01*
X138811950Y-66778518D01*
X138836780Y-66768233D01*
X139065261Y-66615567D01*
X139259567Y-66421261D01*
X139412233Y-66192780D01*
X139446000Y-66111260D01*
X139479767Y-66192780D01*
X139632433Y-66421261D01*
X139826739Y-66615567D01*
X140055220Y-66768233D01*
X140309093Y-66873391D01*
X140578604Y-66927000D01*
X140853396Y-66927000D01*
X141122907Y-66873391D01*
X141376780Y-66768233D01*
X141605261Y-66615567D01*
X141799567Y-66421261D01*
X141952233Y-66192780D01*
X141986000Y-66111260D01*
X142019767Y-66192780D01*
X142172433Y-66421261D01*
X142366739Y-66615567D01*
X142595220Y-66768233D01*
X142849093Y-66873391D01*
X143118604Y-66927000D01*
X143393396Y-66927000D01*
X143662907Y-66873391D01*
X143916780Y-66768233D01*
X144145261Y-66615567D01*
X144339567Y-66421261D01*
X144492233Y-66192780D01*
X144526000Y-66111260D01*
X144559767Y-66192780D01*
X144712433Y-66421261D01*
X144906739Y-66615567D01*
X145135220Y-66768233D01*
X145389093Y-66873391D01*
X145658604Y-66927000D01*
X145933396Y-66927000D01*
X146001958Y-66913362D01*
X145894795Y-67073744D01*
X145816774Y-67262102D01*
X145777000Y-67462061D01*
X145777000Y-67665939D01*
X145816774Y-67865898D01*
X145894795Y-68054256D01*
X146008063Y-68223774D01*
X146152226Y-68367937D01*
X146321744Y-68481205D01*
X146510102Y-68559226D01*
X146710061Y-68599000D01*
X146913939Y-68599000D01*
X147113898Y-68559226D01*
X147302256Y-68481205D01*
X147439503Y-68389500D01*
X149994497Y-68389500D01*
X150131744Y-68481205D01*
X150320102Y-68559226D01*
X150520061Y-68599000D01*
X150723939Y-68599000D01*
X150923898Y-68559226D01*
X151112256Y-68481205D01*
X151281774Y-68367937D01*
X151425937Y-68223774D01*
X151539205Y-68054256D01*
X151617226Y-67865898D01*
X151657000Y-67665939D01*
X151657000Y-67462061D01*
X151617226Y-67262102D01*
X151539205Y-67073744D01*
X151425937Y-66904226D01*
X151362241Y-66840530D01*
X151536780Y-66768233D01*
X151765261Y-66615567D01*
X151959567Y-66421261D01*
X152112233Y-66192780D01*
X152217391Y-65938907D01*
X152271000Y-65669396D01*
X152271000Y-65394604D01*
X152217391Y-65125093D01*
X152112233Y-64871220D01*
X151959567Y-64642739D01*
X151765261Y-64448433D01*
X151536780Y-64295767D01*
X151455260Y-64262000D01*
X151536780Y-64228233D01*
X151765261Y-64075567D01*
X151959567Y-63881261D01*
X152112233Y-63652780D01*
X152146000Y-63571260D01*
X152179767Y-63652780D01*
X152332433Y-63881261D01*
X152526739Y-64075567D01*
X152755220Y-64228233D01*
X153009093Y-64333391D01*
X153278604Y-64387000D01*
X153553396Y-64387000D01*
X153822907Y-64333391D01*
X153860501Y-64317819D01*
X153860500Y-65924189D01*
X153860500Y-65924190D01*
X153860501Y-68031438D01*
X153860500Y-68031448D01*
X153860501Y-71841438D01*
X153860500Y-71841448D01*
X153860501Y-73111440D01*
X153856506Y-73152000D01*
X153872445Y-73313826D01*
X153919647Y-73469433D01*
X153996301Y-73612842D01*
X154048134Y-73676000D01*
X154099460Y-73738541D01*
X154130961Y-73764393D01*
X155690572Y-75324004D01*
X155722774Y-75485898D01*
X155800795Y-75674256D01*
X155914063Y-75843774D01*
X156058226Y-75987937D01*
X156227744Y-76101205D01*
X156416102Y-76179226D01*
X156616061Y-76219000D01*
X156819939Y-76219000D01*
X157019898Y-76179226D01*
X157208256Y-76101205D01*
X157377774Y-75987937D01*
X157521937Y-75843774D01*
X157635205Y-75674256D01*
X157713226Y-75485898D01*
X157753000Y-75285939D01*
X157753000Y-75082061D01*
X157713226Y-74882102D01*
X157635205Y-74693744D01*
X157521937Y-74524226D01*
X157377774Y-74380063D01*
X157208256Y-74266795D01*
X157019898Y-74188774D01*
X156858004Y-74156572D01*
X156634433Y-73933000D01*
X156819939Y-73933000D01*
X157019898Y-73893226D01*
X157208256Y-73815205D01*
X157377774Y-73701937D01*
X157521937Y-73557774D01*
X157635205Y-73388256D01*
X157713226Y-73199898D01*
X157753000Y-72999939D01*
X157753000Y-72796061D01*
X157713226Y-72596102D01*
X157635205Y-72407744D01*
X157521937Y-72238226D01*
X157377774Y-72094063D01*
X157208256Y-71980795D01*
X157019898Y-71902774D01*
X156858004Y-71870572D01*
X156781500Y-71794067D01*
X156781500Y-66658171D01*
X156845261Y-66615567D01*
X157039567Y-66421261D01*
X157192233Y-66192780D01*
X157226000Y-66111260D01*
X157259767Y-66192780D01*
X157412433Y-66421261D01*
X157606739Y-66615567D01*
X157671641Y-66658933D01*
X157682445Y-66768628D01*
X157729647Y-66924235D01*
X157806301Y-67067644D01*
X157867863Y-67142656D01*
X157909460Y-67193343D01*
X157940961Y-67219195D01*
X158178500Y-67456734D01*
X158178501Y-84541439D01*
X158174506Y-84582000D01*
X158190445Y-84743826D01*
X158237647Y-84899433D01*
X158314301Y-85042842D01*
X158373643Y-85115150D01*
X158417460Y-85168541D01*
X158448961Y-85194393D01*
X158992572Y-85738004D01*
X159024774Y-85899898D01*
X159102795Y-86088256D01*
X159216063Y-86257774D01*
X159360226Y-86401937D01*
X159529744Y-86515205D01*
X159718102Y-86593226D01*
X159918061Y-86633000D01*
X160121939Y-86633000D01*
X160321898Y-86593226D01*
X160510256Y-86515205D01*
X160679774Y-86401937D01*
X160823937Y-86257774D01*
X160937205Y-86088256D01*
X161015226Y-85899898D01*
X161055000Y-85699939D01*
X161055000Y-85496061D01*
X161015226Y-85296102D01*
X160937205Y-85107744D01*
X160823937Y-84938226D01*
X160679774Y-84794063D01*
X160510256Y-84680795D01*
X160321898Y-84602774D01*
X160160004Y-84570572D01*
X159829500Y-84240068D01*
X159829500Y-83823211D01*
X159868226Y-83861937D01*
X160037744Y-83975205D01*
X160226102Y-84053226D01*
X160426061Y-84093000D01*
X160629939Y-84093000D01*
X160829898Y-84053226D01*
X161018256Y-83975205D01*
X161187774Y-83861937D01*
X161331937Y-83717774D01*
X161445205Y-83548256D01*
X161523226Y-83359898D01*
X161563000Y-83159939D01*
X161563000Y-82956061D01*
X161523226Y-82756102D01*
X161445205Y-82567744D01*
X161331937Y-82398226D01*
X161187774Y-82254063D01*
X161018256Y-82140795D01*
X160829898Y-82062774D01*
X160668004Y-82030572D01*
X160591500Y-81954067D01*
X160591500Y-81535384D01*
X160680061Y-81553000D01*
X160883939Y-81553000D01*
X161083898Y-81513226D01*
X161272256Y-81435205D01*
X161441774Y-81321937D01*
X161585937Y-81177774D01*
X161699205Y-81008256D01*
X161777226Y-80819898D01*
X161817000Y-80619939D01*
X161817000Y-80416061D01*
X161777226Y-80216102D01*
X161699205Y-80027744D01*
X161585937Y-79858226D01*
X161441774Y-79714063D01*
X161353500Y-79655080D01*
X161353500Y-72760408D01*
X165227000Y-72760408D01*
X165227000Y-73035592D01*
X165280686Y-73305490D01*
X165385995Y-73559727D01*
X165538880Y-73788535D01*
X165733465Y-73983120D01*
X165962273Y-74136005D01*
X166039515Y-74168000D01*
X165962273Y-74199995D01*
X165733465Y-74352880D01*
X165538880Y-74547465D01*
X165385995Y-74776273D01*
X165280686Y-75030510D01*
X165227000Y-75300408D01*
X165227000Y-75575592D01*
X165280686Y-75845490D01*
X165385995Y-76099727D01*
X165538880Y-76328535D01*
X165733465Y-76523120D01*
X165962273Y-76676005D01*
X166039515Y-76708000D01*
X165962273Y-76739995D01*
X165733465Y-76892880D01*
X165538880Y-77087465D01*
X165385995Y-77316273D01*
X165280686Y-77570510D01*
X165227000Y-77840408D01*
X165227000Y-78115592D01*
X165280686Y-78385490D01*
X165385995Y-78639727D01*
X165538880Y-78868535D01*
X165733465Y-79063120D01*
X165962273Y-79216005D01*
X166039515Y-79248000D01*
X165962273Y-79279995D01*
X165733465Y-79432880D01*
X165538880Y-79627465D01*
X165385995Y-79856273D01*
X165280686Y-80110510D01*
X165227000Y-80380408D01*
X165227000Y-80655592D01*
X165280686Y-80925490D01*
X165385995Y-81179727D01*
X165538880Y-81408535D01*
X165733465Y-81603120D01*
X165962273Y-81756005D01*
X166039515Y-81788000D01*
X165962273Y-81819995D01*
X165733465Y-81972880D01*
X165538880Y-82167465D01*
X165385995Y-82396273D01*
X165280686Y-82650510D01*
X165227000Y-82920408D01*
X165227000Y-83195592D01*
X165280686Y-83465490D01*
X165385995Y-83719727D01*
X165538880Y-83948535D01*
X165733465Y-84143120D01*
X165962273Y-84296005D01*
X166039515Y-84328000D01*
X165962273Y-84359995D01*
X165733465Y-84512880D01*
X165538880Y-84707465D01*
X165385995Y-84936273D01*
X165280686Y-85190510D01*
X165227000Y-85460408D01*
X165227000Y-85735592D01*
X165280686Y-86005490D01*
X165385995Y-86259727D01*
X165538880Y-86488535D01*
X165733465Y-86683120D01*
X165962273Y-86836005D01*
X166216510Y-86941314D01*
X166486408Y-86995000D01*
X166761592Y-86995000D01*
X167031490Y-86941314D01*
X167285727Y-86836005D01*
X167514535Y-86683120D01*
X167562095Y-86635560D01*
X172900000Y-86635560D01*
X172900000Y-87100440D01*
X172990694Y-87556387D01*
X173168595Y-87985879D01*
X173426868Y-88372412D01*
X173755588Y-88701132D01*
X174142121Y-88959405D01*
X174571613Y-89137306D01*
X175027560Y-89228000D01*
X175492440Y-89228000D01*
X175948387Y-89137306D01*
X176377879Y-88959405D01*
X176764412Y-88701132D01*
X177093132Y-88372412D01*
X177351405Y-87985879D01*
X177529306Y-87556387D01*
X177620000Y-87100440D01*
X177620000Y-86635560D01*
X177529306Y-86179613D01*
X177351405Y-85750121D01*
X177093132Y-85363588D01*
X176764412Y-85034868D01*
X176377879Y-84776595D01*
X175948387Y-84598694D01*
X175492440Y-84508000D01*
X175027560Y-84508000D01*
X174571613Y-84598694D01*
X174142121Y-84776595D01*
X173755588Y-85034868D01*
X173426868Y-85363588D01*
X173168595Y-85750121D01*
X172990694Y-86179613D01*
X172900000Y-86635560D01*
X167562095Y-86635560D01*
X167709120Y-86488535D01*
X167862005Y-86259727D01*
X167967314Y-86005490D01*
X168021000Y-85735592D01*
X168021000Y-85460408D01*
X167967314Y-85190510D01*
X167862005Y-84936273D01*
X167709120Y-84707465D01*
X167514535Y-84512880D01*
X167285727Y-84359995D01*
X167208485Y-84328000D01*
X167285727Y-84296005D01*
X167514535Y-84143120D01*
X167709120Y-83948535D01*
X167862005Y-83719727D01*
X167967314Y-83465490D01*
X168021000Y-83195592D01*
X168021000Y-82920408D01*
X167967314Y-82650510D01*
X167862005Y-82396273D01*
X167709120Y-82167465D01*
X167514535Y-81972880D01*
X167285727Y-81819995D01*
X167208485Y-81788000D01*
X167285727Y-81756005D01*
X167514535Y-81603120D01*
X167709120Y-81408535D01*
X167862005Y-81179727D01*
X167967314Y-80925490D01*
X168021000Y-80655592D01*
X168021000Y-80380408D01*
X167967314Y-80110510D01*
X167862005Y-79856273D01*
X167709120Y-79627465D01*
X167514535Y-79432880D01*
X167285727Y-79279995D01*
X167208485Y-79248000D01*
X167285727Y-79216005D01*
X167514535Y-79063120D01*
X167709120Y-78868535D01*
X167862005Y-78639727D01*
X167967314Y-78385490D01*
X168021000Y-78115592D01*
X168021000Y-77840408D01*
X167967314Y-77570510D01*
X167862005Y-77316273D01*
X167709120Y-77087465D01*
X167514535Y-76892880D01*
X167285727Y-76739995D01*
X167208485Y-76708000D01*
X167285727Y-76676005D01*
X167514535Y-76523120D01*
X167709120Y-76328535D01*
X167862005Y-76099727D01*
X167967314Y-75845490D01*
X168021000Y-75575592D01*
X168021000Y-75300408D01*
X167967314Y-75030510D01*
X167862005Y-74776273D01*
X167709120Y-74547465D01*
X167514535Y-74352880D01*
X167285727Y-74199995D01*
X167208485Y-74168000D01*
X167285727Y-74136005D01*
X167514535Y-73983120D01*
X167709120Y-73788535D01*
X167862005Y-73559727D01*
X167967314Y-73305490D01*
X168021000Y-73035592D01*
X168021000Y-72760408D01*
X167967314Y-72490510D01*
X167862005Y-72236273D01*
X167709120Y-72007465D01*
X167514535Y-71812880D01*
X167285727Y-71659995D01*
X167031490Y-71554686D01*
X166761592Y-71501000D01*
X166486408Y-71501000D01*
X166216510Y-71554686D01*
X165962273Y-71659995D01*
X165733465Y-71812880D01*
X165538880Y-72007465D01*
X165385995Y-72236273D01*
X165280686Y-72490510D01*
X165227000Y-72760408D01*
X161353500Y-72760408D01*
X161353500Y-68921932D01*
X161419872Y-68855560D01*
X172900000Y-68855560D01*
X172900000Y-69320440D01*
X172990694Y-69776387D01*
X173168595Y-70205879D01*
X173426868Y-70592412D01*
X173755588Y-70921132D01*
X174142121Y-71179405D01*
X174571613Y-71357306D01*
X175027560Y-71448000D01*
X175492440Y-71448000D01*
X175948387Y-71357306D01*
X176377879Y-71179405D01*
X176764412Y-70921132D01*
X177093132Y-70592412D01*
X177351405Y-70205879D01*
X177529306Y-69776387D01*
X177620000Y-69320440D01*
X177620000Y-68855560D01*
X177529306Y-68399613D01*
X177351405Y-67970121D01*
X177093132Y-67583588D01*
X176764412Y-67254868D01*
X176377879Y-66996595D01*
X175948387Y-66818694D01*
X175492440Y-66728000D01*
X175027560Y-66728000D01*
X174571613Y-66818694D01*
X174142121Y-66996595D01*
X173755588Y-67254868D01*
X173426868Y-67583588D01*
X173168595Y-67970121D01*
X172990694Y-68399613D01*
X172900000Y-68855560D01*
X161419872Y-68855560D01*
X163363393Y-66912040D01*
X163438604Y-66927000D01*
X163713396Y-66927000D01*
X163982907Y-66873391D01*
X164236780Y-66768233D01*
X164465261Y-66615567D01*
X164659567Y-66421261D01*
X164812233Y-66192780D01*
X164846000Y-66111260D01*
X164879767Y-66192780D01*
X165032433Y-66421261D01*
X165226739Y-66615567D01*
X165455220Y-66768233D01*
X165709093Y-66873391D01*
X165978604Y-66927000D01*
X166253396Y-66927000D01*
X166522907Y-66873391D01*
X166776780Y-66768233D01*
X167005261Y-66615567D01*
X167199567Y-66421261D01*
X167352233Y-66192780D01*
X167386000Y-66111260D01*
X167419767Y-66192780D01*
X167572433Y-66421261D01*
X167766739Y-66615567D01*
X167995220Y-66768233D01*
X168249093Y-66873391D01*
X168518604Y-66927000D01*
X168793396Y-66927000D01*
X169062907Y-66873391D01*
X169316780Y-66768233D01*
X169545261Y-66615567D01*
X169739567Y-66421261D01*
X169892233Y-66192780D01*
X169997391Y-65938907D01*
X170051000Y-65669396D01*
X170051000Y-65394604D01*
X169997391Y-65125093D01*
X169892233Y-64871220D01*
X169739567Y-64642739D01*
X169545261Y-64448433D01*
X169316780Y-64295767D01*
X169235260Y-64262000D01*
X169316780Y-64228233D01*
X169545261Y-64075567D01*
X169739567Y-63881261D01*
X169892233Y-63652780D01*
X169926000Y-63571260D01*
X169959767Y-63652780D01*
X170112433Y-63881261D01*
X170306739Y-64075567D01*
X170535220Y-64228233D01*
X170789093Y-64333391D01*
X171058604Y-64387000D01*
X171333396Y-64387000D01*
X171602907Y-64333391D01*
X171856780Y-64228233D01*
X172040246Y-64105645D01*
X174434500Y-64105645D01*
X174434500Y-64418355D01*
X174495507Y-64725057D01*
X174615176Y-65013963D01*
X174788908Y-65273972D01*
X175010028Y-65495092D01*
X175270037Y-65668824D01*
X175558943Y-65788493D01*
X175865645Y-65849500D01*
X176178355Y-65849500D01*
X176485057Y-65788493D01*
X176773963Y-65668824D01*
X177033972Y-65495092D01*
X177255092Y-65273972D01*
X177428824Y-65013963D01*
X177548493Y-64725057D01*
X177609500Y-64418355D01*
X177609500Y-64105645D01*
X177548493Y-63798943D01*
X177428824Y-63510037D01*
X177255092Y-63250028D01*
X177033972Y-63028908D01*
X176773963Y-62855176D01*
X176485057Y-62735507D01*
X176178355Y-62674500D01*
X175865645Y-62674500D01*
X175558943Y-62735507D01*
X175270037Y-62855176D01*
X175010028Y-63028908D01*
X174788908Y-63250028D01*
X174615176Y-63510037D01*
X174495507Y-63798943D01*
X174434500Y-64105645D01*
X172040246Y-64105645D01*
X172085261Y-64075567D01*
X172279567Y-63881261D01*
X172432233Y-63652780D01*
X172537391Y-63398907D01*
X172591000Y-63129396D01*
X172591000Y-62854604D01*
X172537391Y-62585093D01*
X172469214Y-62420500D01*
X176749842Y-62420500D01*
X177190364Y-62463693D01*
X177581258Y-62581711D01*
X177941779Y-62773404D01*
X178258201Y-63031471D01*
X178518472Y-63346085D01*
X178712677Y-63705259D01*
X178833419Y-64095315D01*
X178879501Y-64533761D01*
X178879500Y-88865842D01*
X178836307Y-89306365D01*
X178718289Y-89697258D01*
X178526596Y-90057779D01*
X178268529Y-90374201D01*
X177953915Y-90634472D01*
X177594743Y-90828676D01*
X177204685Y-90949419D01*
X176766256Y-90995500D01*
X117382158Y-90995500D01*
X116941635Y-90952307D01*
X116550742Y-90834289D01*
X116190221Y-90642596D01*
X115873799Y-90384529D01*
X115613528Y-90069915D01*
X115419324Y-89710743D01*
X115298581Y-89320685D01*
X115252500Y-88882256D01*
X115252500Y-88141832D01*
X116078000Y-88141832D01*
X116078000Y-88642168D01*
X116175611Y-89132891D01*
X116367081Y-89595141D01*
X116645053Y-90011156D01*
X116998844Y-90364947D01*
X117414859Y-90642919D01*
X117877109Y-90834389D01*
X118367832Y-90932000D01*
X118868168Y-90932000D01*
X119358891Y-90834389D01*
X119821141Y-90642919D01*
X120237156Y-90364947D01*
X120590947Y-90011156D01*
X120868919Y-89595141D01*
X120946435Y-89408000D01*
X149302098Y-89408000D01*
X149352000Y-89412915D01*
X149401902Y-89408000D01*
X149551171Y-89393298D01*
X149742687Y-89335202D01*
X149919190Y-89240860D01*
X150073896Y-89113896D01*
X150105712Y-89075128D01*
X151079133Y-88101708D01*
X151117896Y-88069896D01*
X151244860Y-87915190D01*
X151339202Y-87738687D01*
X151397298Y-87547171D01*
X151412000Y-87397902D01*
X151412000Y-87397901D01*
X151416915Y-87348000D01*
X151412000Y-87298098D01*
X151412000Y-86330861D01*
X151523433Y-86390423D01*
X151687684Y-86440248D01*
X151858500Y-86457072D01*
X152433500Y-86457072D01*
X152604316Y-86440248D01*
X152768567Y-86390423D01*
X152919942Y-86309512D01*
X153052623Y-86200623D01*
X153161512Y-86067942D01*
X153242423Y-85916567D01*
X153292248Y-85752316D01*
X153309072Y-85581500D01*
X153309072Y-85106500D01*
X153292248Y-84935684D01*
X153242423Y-84771433D01*
X153161512Y-84620058D01*
X153052623Y-84487377D01*
X153035000Y-84472914D01*
X153035000Y-84310086D01*
X153052623Y-84295623D01*
X153161512Y-84162942D01*
X153242423Y-84011567D01*
X153292248Y-83847316D01*
X153309072Y-83676500D01*
X153309072Y-83201500D01*
X153292248Y-83030684D01*
X153242423Y-82866433D01*
X153161512Y-82715058D01*
X153052623Y-82582377D01*
X153035000Y-82567914D01*
X153035000Y-82266596D01*
X153038623Y-82263623D01*
X153064165Y-82232500D01*
X153502450Y-82232500D01*
X153543000Y-82236494D01*
X153583550Y-82232500D01*
X153583553Y-82232500D01*
X153704826Y-82220556D01*
X153860434Y-82173353D01*
X154003842Y-82096699D01*
X154129541Y-81993541D01*
X154155398Y-81962034D01*
X154479035Y-81638397D01*
X154510541Y-81612541D01*
X154613699Y-81486842D01*
X154690353Y-81343434D01*
X154737556Y-81187826D01*
X154749500Y-81066553D01*
X154749500Y-81066544D01*
X154753493Y-81026001D01*
X154749500Y-80985458D01*
X154749500Y-78272539D01*
X154753493Y-78231999D01*
X154749500Y-78191459D01*
X154749500Y-78191447D01*
X154737556Y-78070174D01*
X154690353Y-77914566D01*
X154613699Y-77771158D01*
X154613698Y-77771156D01*
X154587563Y-77739311D01*
X154510541Y-77645459D01*
X154479034Y-77619602D01*
X154443429Y-77583997D01*
X154411226Y-77422102D01*
X154333205Y-77233744D01*
X154219937Y-77064226D01*
X154075774Y-76920063D01*
X153906256Y-76806795D01*
X153717898Y-76728774D01*
X153517939Y-76689000D01*
X153314061Y-76689000D01*
X153114102Y-76728774D01*
X152971500Y-76787842D01*
X152971500Y-76319503D01*
X153063205Y-76182256D01*
X153141226Y-75993898D01*
X153181000Y-75793939D01*
X153181000Y-75590061D01*
X153141226Y-75390102D01*
X153063205Y-75201744D01*
X152949937Y-75032226D01*
X152805774Y-74888063D01*
X152636256Y-74774795D01*
X152447898Y-74696774D01*
X152247939Y-74657000D01*
X152044061Y-74657000D01*
X151844102Y-74696774D01*
X151655744Y-74774795D01*
X151638000Y-74786651D01*
X151620256Y-74774795D01*
X151431898Y-74696774D01*
X151231939Y-74657000D01*
X151028061Y-74657000D01*
X150828102Y-74696774D01*
X150639744Y-74774795D01*
X150470226Y-74888063D01*
X150326063Y-75032226D01*
X150212795Y-75201744D01*
X150134774Y-75390102D01*
X150095000Y-75590061D01*
X150095000Y-75793939D01*
X150134774Y-75993898D01*
X150212795Y-76182256D01*
X150304500Y-76319503D01*
X150304501Y-78261928D01*
X150094500Y-78261928D01*
X149923684Y-78278752D01*
X149759433Y-78328577D01*
X149608058Y-78409488D01*
X149475377Y-78518377D01*
X149366488Y-78651058D01*
X149285577Y-78802433D01*
X149235752Y-78966684D01*
X149218928Y-79137500D01*
X149218928Y-79612500D01*
X149235752Y-79783316D01*
X149285577Y-79947567D01*
X149366488Y-80098942D01*
X149475377Y-80231623D01*
X149493000Y-80246086D01*
X149493000Y-80535914D01*
X149475377Y-80550377D01*
X149366488Y-80683058D01*
X149285577Y-80834433D01*
X149235752Y-80998684D01*
X149218928Y-81169500D01*
X149218928Y-81644500D01*
X149235752Y-81815316D01*
X149285577Y-81979567D01*
X149366488Y-82130942D01*
X149475377Y-82263623D01*
X149493001Y-82278086D01*
X149493001Y-82579403D01*
X149489377Y-82582377D01*
X149380488Y-82715058D01*
X149299577Y-82866433D01*
X149249752Y-83030684D01*
X149232928Y-83201500D01*
X149232928Y-83676500D01*
X149249752Y-83847316D01*
X149299577Y-84011567D01*
X149380488Y-84162942D01*
X149489377Y-84295623D01*
X149606203Y-84391500D01*
X149489377Y-84487377D01*
X149380488Y-84620058D01*
X149299577Y-84771433D01*
X149249752Y-84935684D01*
X149232928Y-85106500D01*
X149232928Y-85581500D01*
X149249752Y-85752316D01*
X149299577Y-85916567D01*
X149380001Y-86067030D01*
X149380000Y-86927159D01*
X148931160Y-87376000D01*
X125012485Y-87376000D01*
X125106942Y-87325512D01*
X125239623Y-87216623D01*
X125348512Y-87083942D01*
X125429423Y-86932567D01*
X125479248Y-86768316D01*
X125496072Y-86597500D01*
X125496072Y-86233000D01*
X127718340Y-86233000D01*
X127762000Y-86237300D01*
X127805660Y-86233000D01*
X127805667Y-86233000D01*
X127936274Y-86220136D01*
X128103851Y-86169303D01*
X128258291Y-86086753D01*
X128393659Y-85975659D01*
X128421500Y-85941735D01*
X128613732Y-85749503D01*
X128647659Y-85721659D01*
X128758753Y-85586291D01*
X128841303Y-85431851D01*
X128873715Y-85325000D01*
X128892136Y-85264276D01*
X128903066Y-85153303D01*
X128905000Y-85133667D01*
X128905000Y-85133661D01*
X128909300Y-85090001D01*
X128905000Y-85046341D01*
X128905000Y-83550235D01*
X129137730Y-83317506D01*
X129158518Y-83323812D01*
X129283000Y-83336072D01*
X131033000Y-83336072D01*
X131157482Y-83323812D01*
X131277180Y-83287502D01*
X131387494Y-83228537D01*
X131484185Y-83149185D01*
X131563537Y-83052494D01*
X131622502Y-82942180D01*
X131658812Y-82822482D01*
X131671072Y-82698000D01*
X131671072Y-82148000D01*
X131658812Y-82023518D01*
X131622502Y-81903820D01*
X131563537Y-81793506D01*
X131559018Y-81788000D01*
X131563537Y-81782494D01*
X131622502Y-81672180D01*
X131658812Y-81552482D01*
X131671072Y-81428000D01*
X131671072Y-80878000D01*
X131658812Y-80753518D01*
X131622502Y-80633820D01*
X131563537Y-80523506D01*
X131559018Y-80518000D01*
X131563537Y-80512494D01*
X131622502Y-80402180D01*
X131658812Y-80282482D01*
X131671072Y-80158000D01*
X131671072Y-79608000D01*
X131658812Y-79483518D01*
X131622502Y-79363820D01*
X131563537Y-79253506D01*
X131484185Y-79156815D01*
X131387494Y-79077463D01*
X131277180Y-79018498D01*
X131157482Y-78982188D01*
X131033000Y-78969928D01*
X130605057Y-78969928D01*
X130548687Y-78939798D01*
X130357171Y-78881702D01*
X130207902Y-78867000D01*
X127938893Y-78867000D01*
X127888999Y-78862086D01*
X127839105Y-78867000D01*
X126663485Y-78867000D01*
X126606567Y-78836577D01*
X126442316Y-78786752D01*
X126271500Y-78769928D01*
X125696500Y-78769928D01*
X125525684Y-78786752D01*
X125361433Y-78836577D01*
X125210058Y-78917488D01*
X125077377Y-79026377D01*
X124968488Y-79159058D01*
X124887577Y-79310433D01*
X124837752Y-79474684D01*
X124820928Y-79645500D01*
X124820928Y-80120500D01*
X124837752Y-80291316D01*
X124887577Y-80455567D01*
X124968488Y-80606942D01*
X125077377Y-80739623D01*
X125210058Y-80848512D01*
X125361433Y-80929423D01*
X125525684Y-80979248D01*
X125696500Y-80996072D01*
X126271500Y-80996072D01*
X126442316Y-80979248D01*
X126606567Y-80929423D01*
X126619000Y-80922777D01*
X126619000Y-80955540D01*
X126600000Y-81051061D01*
X126600000Y-81247585D01*
X126442316Y-81199752D01*
X126271500Y-81182928D01*
X125696500Y-81182928D01*
X125525684Y-81199752D01*
X125361433Y-81249577D01*
X125210058Y-81330488D01*
X125077377Y-81439377D01*
X124968488Y-81572058D01*
X124887577Y-81723433D01*
X124837752Y-81887684D01*
X124820928Y-82058500D01*
X124820928Y-82533500D01*
X124837752Y-82704316D01*
X124887577Y-82868567D01*
X124968488Y-83019942D01*
X125077377Y-83152623D01*
X125208001Y-83259823D01*
X125208000Y-83433935D01*
X125120942Y-83362488D01*
X124969567Y-83281577D01*
X124805316Y-83231752D01*
X124634500Y-83214928D01*
X124059500Y-83214928D01*
X123888684Y-83231752D01*
X123724433Y-83281577D01*
X123573058Y-83362488D01*
X123479828Y-83439000D01*
X123214468Y-83439000D01*
X123172256Y-83410795D01*
X122983898Y-83332774D01*
X122783939Y-83293000D01*
X122580061Y-83293000D01*
X122380102Y-83332774D01*
X122191744Y-83410795D01*
X122022226Y-83524063D01*
X121878063Y-83668226D01*
X121764795Y-83837744D01*
X121686774Y-84026102D01*
X121647000Y-84226061D01*
X121647000Y-84429939D01*
X121686774Y-84629898D01*
X121764795Y-84818256D01*
X121878063Y-84987774D01*
X122022226Y-85131937D01*
X122191744Y-85245205D01*
X122380102Y-85323226D01*
X122484541Y-85344000D01*
X122380102Y-85364774D01*
X122191744Y-85442795D01*
X122022226Y-85556063D01*
X121878063Y-85700226D01*
X121764795Y-85869744D01*
X121686774Y-86058102D01*
X121647000Y-86258061D01*
X121647000Y-86461939D01*
X121686774Y-86661898D01*
X121764795Y-86850256D01*
X121878063Y-87019774D01*
X122022226Y-87163937D01*
X122191744Y-87277205D01*
X122380102Y-87355226D01*
X122484541Y-87376000D01*
X120946435Y-87376000D01*
X120868919Y-87188859D01*
X120590947Y-86772844D01*
X120237156Y-86419053D01*
X119821141Y-86141081D01*
X119358891Y-85949611D01*
X118868168Y-85852000D01*
X118367832Y-85852000D01*
X117877109Y-85949611D01*
X117414859Y-86141081D01*
X116998844Y-86419053D01*
X116645053Y-86772844D01*
X116367081Y-87188859D01*
X116175611Y-87651109D01*
X116078000Y-88141832D01*
X115252500Y-88141832D01*
X115252500Y-67934408D01*
X117221000Y-67934408D01*
X117221000Y-68209592D01*
X117274686Y-68479490D01*
X117379995Y-68733727D01*
X117532880Y-68962535D01*
X117727465Y-69157120D01*
X117956273Y-69310005D01*
X118033515Y-69342000D01*
X117956273Y-69373995D01*
X117727465Y-69526880D01*
X117532880Y-69721465D01*
X117379995Y-69950273D01*
X117274686Y-70204510D01*
X117221000Y-70474408D01*
X117221000Y-70749592D01*
X117274686Y-71019490D01*
X117379995Y-71273727D01*
X117532880Y-71502535D01*
X117727465Y-71697120D01*
X117956273Y-71850005D01*
X118210510Y-71955314D01*
X118480408Y-72009000D01*
X118755592Y-72009000D01*
X119025490Y-71955314D01*
X119279727Y-71850005D01*
X119508535Y-71697120D01*
X119703120Y-71502535D01*
X119731952Y-71459385D01*
X120627611Y-72355045D01*
X120653459Y-72386541D01*
X120684955Y-72412389D01*
X120684958Y-72412392D01*
X120779157Y-72489699D01*
X120869099Y-72537774D01*
X120922566Y-72566353D01*
X121078174Y-72613556D01*
X121199447Y-72625500D01*
X121199449Y-72625500D01*
X121240000Y-72629494D01*
X121280550Y-72625500D01*
X122768489Y-72625500D01*
X122769518Y-72625812D01*
X122894000Y-72638072D01*
X123994000Y-72638072D01*
X124118482Y-72625812D01*
X124238180Y-72589502D01*
X124348494Y-72530537D01*
X124445185Y-72451185D01*
X124524537Y-72354494D01*
X124583502Y-72244180D01*
X124619812Y-72124482D01*
X124632072Y-72000000D01*
X124632072Y-71600000D01*
X124619812Y-71475518D01*
X124583502Y-71355820D01*
X124567295Y-71325500D01*
X125638500Y-71325500D01*
X125638501Y-72609800D01*
X125557377Y-72676377D01*
X125448488Y-72809058D01*
X125367577Y-72960433D01*
X125317752Y-73124684D01*
X125300928Y-73295500D01*
X125300928Y-73770500D01*
X125317752Y-73941316D01*
X125367577Y-74105567D01*
X125448488Y-74256942D01*
X125557377Y-74389623D01*
X125638500Y-74456200D01*
X125638501Y-74537779D01*
X125585377Y-74581377D01*
X125476488Y-74714058D01*
X125395577Y-74865433D01*
X125345752Y-75029684D01*
X125328928Y-75200500D01*
X125328928Y-75675500D01*
X125345752Y-75846316D01*
X125395577Y-76010567D01*
X125476488Y-76161942D01*
X125585377Y-76294623D01*
X125718058Y-76403512D01*
X125869433Y-76484423D01*
X126033684Y-76534248D01*
X126204500Y-76551072D01*
X126779500Y-76551072D01*
X126950316Y-76534248D01*
X127114567Y-76484423D01*
X127265942Y-76403512D01*
X127398623Y-76294623D01*
X127411533Y-76278892D01*
X127525744Y-76355205D01*
X127714102Y-76433226D01*
X127914061Y-76473000D01*
X128117939Y-76473000D01*
X128317898Y-76433226D01*
X128506256Y-76355205D01*
X128675774Y-76241937D01*
X128819937Y-76097774D01*
X128933205Y-75928256D01*
X129011226Y-75739898D01*
X129051000Y-75539939D01*
X129051000Y-75336061D01*
X129011226Y-75136102D01*
X128933205Y-74947744D01*
X128819937Y-74778226D01*
X128675774Y-74634063D01*
X128506256Y-74520795D01*
X128421047Y-74485500D01*
X128506256Y-74450205D01*
X128675774Y-74336937D01*
X128819937Y-74192774D01*
X128824477Y-74185979D01*
X128887377Y-74262623D01*
X129020058Y-74371512D01*
X129171433Y-74452423D01*
X129335684Y-74502248D01*
X129506500Y-74519072D01*
X130081500Y-74519072D01*
X130252316Y-74502248D01*
X130416567Y-74452423D01*
X130567942Y-74371512D01*
X130669000Y-74288575D01*
X130718501Y-74329200D01*
X130718501Y-74344402D01*
X130654795Y-74439744D01*
X130576774Y-74628102D01*
X130537000Y-74828061D01*
X130537000Y-75031939D01*
X130576774Y-75231898D01*
X130654795Y-75420256D01*
X130768063Y-75589774D01*
X130912226Y-75733937D01*
X131081744Y-75847205D01*
X131270102Y-75925226D01*
X131470061Y-75965000D01*
X131673939Y-75965000D01*
X131873898Y-75925226D01*
X132062256Y-75847205D01*
X132231774Y-75733937D01*
X132375937Y-75589774D01*
X132489205Y-75420256D01*
X132567226Y-75231898D01*
X132607000Y-75031939D01*
X132607000Y-74828061D01*
X132567226Y-74628102D01*
X132544842Y-74574061D01*
X134347000Y-74574061D01*
X134347000Y-74777939D01*
X134386774Y-74977898D01*
X134464795Y-75166256D01*
X134578063Y-75335774D01*
X134722226Y-75479937D01*
X134891744Y-75593205D01*
X135080102Y-75671226D01*
X135280061Y-75711000D01*
X135483939Y-75711000D01*
X135683898Y-75671226D01*
X135872256Y-75593205D01*
X136004550Y-75504809D01*
X136027377Y-75532623D01*
X136160058Y-75641512D01*
X136311433Y-75722423D01*
X136475684Y-75772248D01*
X136646500Y-75789072D01*
X137221500Y-75789072D01*
X137392316Y-75772248D01*
X137556567Y-75722423D01*
X137707942Y-75641512D01*
X137809000Y-75558575D01*
X137910058Y-75641512D01*
X138061433Y-75722423D01*
X138225684Y-75772248D01*
X138396500Y-75789072D01*
X138971500Y-75789072D01*
X139142316Y-75772248D01*
X139306567Y-75722423D01*
X139457942Y-75641512D01*
X139551172Y-75565000D01*
X142633928Y-75565000D01*
X142633928Y-75676000D01*
X142646188Y-75800482D01*
X142682498Y-75920180D01*
X142741463Y-76030494D01*
X142820815Y-76127185D01*
X142917506Y-76206537D01*
X143027820Y-76265502D01*
X143147518Y-76301812D01*
X143272000Y-76314072D01*
X145272000Y-76314072D01*
X145396482Y-76301812D01*
X145516180Y-76265502D01*
X145626494Y-76206537D01*
X145723185Y-76127185D01*
X145802537Y-76030494D01*
X145861502Y-75920180D01*
X145897812Y-75800482D01*
X145910072Y-75676000D01*
X145910072Y-73676000D01*
X145897812Y-73551518D01*
X145861502Y-73431820D01*
X145802537Y-73321506D01*
X145723185Y-73224815D01*
X145626494Y-73145463D01*
X145516180Y-73086498D01*
X145396482Y-73050188D01*
X145272000Y-73037928D01*
X143272000Y-73037928D01*
X143147518Y-73050188D01*
X143027820Y-73086498D01*
X142917506Y-73145463D01*
X142820815Y-73224815D01*
X142741463Y-73321506D01*
X142682498Y-73431820D01*
X142646188Y-73551518D01*
X142633928Y-73676000D01*
X142633928Y-73787000D01*
X139551172Y-73787000D01*
X139457942Y-73710488D01*
X139306567Y-73629577D01*
X139142316Y-73579752D01*
X138971500Y-73562928D01*
X138396500Y-73562928D01*
X138225684Y-73579752D01*
X138061433Y-73629577D01*
X137910058Y-73710488D01*
X137809000Y-73793425D01*
X137707942Y-73710488D01*
X137556567Y-73629577D01*
X137392316Y-73579752D01*
X137221500Y-73562928D01*
X136646500Y-73562928D01*
X136475684Y-73579752D01*
X136311433Y-73629577D01*
X136160058Y-73710488D01*
X136027377Y-73819377D01*
X136004550Y-73847191D01*
X135872256Y-73758795D01*
X135683898Y-73680774D01*
X135483939Y-73641000D01*
X135280061Y-73641000D01*
X135080102Y-73680774D01*
X134891744Y-73758795D01*
X134722226Y-73872063D01*
X134578063Y-74016226D01*
X134464795Y-74185744D01*
X134386774Y-74374102D01*
X134347000Y-74574061D01*
X132544842Y-74574061D01*
X132489205Y-74439744D01*
X132399106Y-74304902D01*
X132450623Y-74262623D01*
X132473450Y-74234809D01*
X132605744Y-74323205D01*
X132794102Y-74401226D01*
X132994061Y-74441000D01*
X133197939Y-74441000D01*
X133397898Y-74401226D01*
X133586256Y-74323205D01*
X133755774Y-74209937D01*
X133899937Y-74065774D01*
X134013205Y-73896256D01*
X134091226Y-73707898D01*
X134131000Y-73507939D01*
X134131000Y-73304061D01*
X134091226Y-73104102D01*
X134013205Y-72915744D01*
X133921500Y-72778497D01*
X133921500Y-72528220D01*
X133974623Y-72484623D01*
X134083512Y-72351942D01*
X134164423Y-72200567D01*
X134214248Y-72036316D01*
X134231072Y-71865500D01*
X134231072Y-71390500D01*
X134214248Y-71219684D01*
X134164423Y-71055433D01*
X134083512Y-70904058D01*
X133974623Y-70771377D01*
X133841942Y-70662488D01*
X133690567Y-70581577D01*
X133526316Y-70531752D01*
X133355500Y-70514928D01*
X133240055Y-70514928D01*
X133289423Y-70422567D01*
X133339248Y-70258316D01*
X133356072Y-70087500D01*
X133356072Y-69612500D01*
X133339248Y-69441684D01*
X133289423Y-69277433D01*
X133208512Y-69126058D01*
X133099623Y-68993377D01*
X133067172Y-68966745D01*
X133113623Y-68928623D01*
X133222512Y-68795942D01*
X133303423Y-68644567D01*
X133353248Y-68480316D01*
X133370072Y-68309500D01*
X133370072Y-67834500D01*
X133353248Y-67663684D01*
X133303423Y-67499433D01*
X133222512Y-67348058D01*
X133113623Y-67215377D01*
X132980942Y-67106488D01*
X132829567Y-67025577D01*
X132665316Y-66975752D01*
X132494500Y-66958928D01*
X131919500Y-66958928D01*
X131748684Y-66975752D01*
X131584433Y-67025577D01*
X131433058Y-67106488D01*
X131300377Y-67215377D01*
X131191488Y-67348058D01*
X131110577Y-67499433D01*
X131060752Y-67663684D01*
X131043928Y-67834500D01*
X131043928Y-68309500D01*
X131060752Y-68480316D01*
X131110577Y-68644567D01*
X131191488Y-68795942D01*
X131300377Y-68928623D01*
X131332828Y-68955255D01*
X131318000Y-68967425D01*
X131216942Y-68884488D01*
X131065567Y-68803577D01*
X130901316Y-68753752D01*
X130730500Y-68736928D01*
X130155500Y-68736928D01*
X129984684Y-68753752D01*
X129820433Y-68803577D01*
X129669058Y-68884488D01*
X129536377Y-68993377D01*
X129510835Y-69024500D01*
X128419511Y-69024500D01*
X128418482Y-69024188D01*
X128294000Y-69011928D01*
X127194000Y-69011928D01*
X127069518Y-69024188D01*
X126949820Y-69060498D01*
X126839506Y-69119463D01*
X126742815Y-69198815D01*
X126663463Y-69295506D01*
X126604498Y-69405820D01*
X126568188Y-69525518D01*
X126555928Y-69650000D01*
X126555928Y-69793777D01*
X126443434Y-69733647D01*
X126287826Y-69686444D01*
X126166553Y-69674500D01*
X126166550Y-69674500D01*
X126126000Y-69670506D01*
X126085450Y-69674500D01*
X124632072Y-69674500D01*
X124632072Y-69650000D01*
X124619812Y-69525518D01*
X124583502Y-69405820D01*
X124524537Y-69295506D01*
X124445185Y-69198815D01*
X124348494Y-69119463D01*
X124238180Y-69060498D01*
X124118482Y-69024188D01*
X123994000Y-69011928D01*
X122894000Y-69011928D01*
X122769518Y-69024188D01*
X122768489Y-69024500D01*
X122515934Y-69024500D01*
X121008398Y-67516966D01*
X120982541Y-67485459D01*
X120856842Y-67382301D01*
X120713434Y-67305647D01*
X120557826Y-67258444D01*
X120436553Y-67246500D01*
X120436550Y-67246500D01*
X120396000Y-67242506D01*
X120355450Y-67246500D01*
X119746575Y-67246500D01*
X119703120Y-67181465D01*
X119508535Y-66986880D01*
X119279727Y-66833995D01*
X119025490Y-66728686D01*
X118755592Y-66675000D01*
X118480408Y-66675000D01*
X118210510Y-66728686D01*
X117956273Y-66833995D01*
X117727465Y-66986880D01*
X117532880Y-67181465D01*
X117379995Y-67410273D01*
X117274686Y-67664510D01*
X117221000Y-67934408D01*
X115252500Y-67934408D01*
X115252500Y-64550158D01*
X115295693Y-64109636D01*
X115413711Y-63718742D01*
X115605404Y-63358221D01*
X115863471Y-63041799D01*
X116178085Y-62781528D01*
X116537259Y-62587323D01*
X116927315Y-62466581D01*
X117365752Y-62420500D01*
X121662786Y-62420500D01*
X121594609Y-62585093D01*
G36*
X164774609Y-62585093D02*
G01*
X164721000Y-62854604D01*
X164721000Y-63129396D01*
X164774609Y-63398907D01*
X164879767Y-63652780D01*
X165032433Y-63881261D01*
X165226739Y-64075567D01*
X165455220Y-64228233D01*
X165536740Y-64262000D01*
X165455220Y-64295767D01*
X165226739Y-64448433D01*
X165032433Y-64642739D01*
X164879767Y-64871220D01*
X164846000Y-64952740D01*
X164812233Y-64871220D01*
X164659567Y-64642739D01*
X164465261Y-64448433D01*
X164236780Y-64295767D01*
X163982907Y-64190609D01*
X163713396Y-64137000D01*
X163438604Y-64137000D01*
X163169093Y-64190609D01*
X162915220Y-64295767D01*
X162686739Y-64448433D01*
X162492433Y-64642739D01*
X162339767Y-64871220D01*
X162306000Y-64952740D01*
X162272233Y-64871220D01*
X162119567Y-64642739D01*
X161925261Y-64448433D01*
X161696780Y-64295767D01*
X161615260Y-64262000D01*
X161696780Y-64228233D01*
X161925261Y-64075567D01*
X162119567Y-63881261D01*
X162272233Y-63652780D01*
X162377391Y-63398907D01*
X162431000Y-63129396D01*
X162431000Y-62854604D01*
X162377391Y-62585093D01*
X162309214Y-62420500D01*
X164842786Y-62420500D01*
X164774609Y-62585093D01*
X164774609Y-62585093D01*
G37*
X164774609Y-62585093D02*
X164721000Y-62854604D01*
X164721000Y-63129396D01*
X164774609Y-63398907D01*
X164879767Y-63652780D01*
X165032433Y-63881261D01*
X165226739Y-64075567D01*
X165455220Y-64228233D01*
X165536740Y-64262000D01*
X165455220Y-64295767D01*
X165226739Y-64448433D01*
X165032433Y-64642739D01*
X164879767Y-64871220D01*
X164846000Y-64952740D01*
X164812233Y-64871220D01*
X164659567Y-64642739D01*
X164465261Y-64448433D01*
X164236780Y-64295767D01*
X163982907Y-64190609D01*
X163713396Y-64137000D01*
X163438604Y-64137000D01*
X163169093Y-64190609D01*
X162915220Y-64295767D01*
X162686739Y-64448433D01*
X162492433Y-64642739D01*
X162339767Y-64871220D01*
X162306000Y-64952740D01*
X162272233Y-64871220D01*
X162119567Y-64642739D01*
X161925261Y-64448433D01*
X161696780Y-64295767D01*
X161615260Y-64262000D01*
X161696780Y-64228233D01*
X161925261Y-64075567D01*
X162119567Y-63881261D01*
X162272233Y-63652780D01*
X162377391Y-63398907D01*
X162431000Y-63129396D01*
X162431000Y-62854604D01*
X162377391Y-62585093D01*
X162309214Y-62420500D01*
X164842786Y-62420500D01*
X164774609Y-62585093D01*
G36*
X146994609Y-62585093D02*
G01*
X146941000Y-62854604D01*
X146941000Y-63129396D01*
X146994609Y-63398907D01*
X147099767Y-63652780D01*
X147252433Y-63881261D01*
X147446739Y-64075567D01*
X147675220Y-64228233D01*
X147756740Y-64262000D01*
X147675220Y-64295767D01*
X147446739Y-64448433D01*
X147252433Y-64642739D01*
X147099767Y-64871220D01*
X147066000Y-64952740D01*
X147032233Y-64871220D01*
X146879567Y-64642739D01*
X146685261Y-64448433D01*
X146456780Y-64295767D01*
X146202907Y-64190609D01*
X145933396Y-64137000D01*
X145658604Y-64137000D01*
X145389093Y-64190609D01*
X145135220Y-64295767D01*
X144906739Y-64448433D01*
X144712433Y-64642739D01*
X144559767Y-64871220D01*
X144526000Y-64952740D01*
X144492233Y-64871220D01*
X144339567Y-64642739D01*
X144145261Y-64448433D01*
X143916780Y-64295767D01*
X143835260Y-64262000D01*
X143916780Y-64228233D01*
X144145261Y-64075567D01*
X144339567Y-63881261D01*
X144492233Y-63652780D01*
X144597391Y-63398907D01*
X144651000Y-63129396D01*
X144651000Y-62854604D01*
X144597391Y-62585093D01*
X144529214Y-62420500D01*
X147062786Y-62420500D01*
X146994609Y-62585093D01*
X146994609Y-62585093D01*
G37*
X146994609Y-62585093D02*
X146941000Y-62854604D01*
X146941000Y-63129396D01*
X146994609Y-63398907D01*
X147099767Y-63652780D01*
X147252433Y-63881261D01*
X147446739Y-64075567D01*
X147675220Y-64228233D01*
X147756740Y-64262000D01*
X147675220Y-64295767D01*
X147446739Y-64448433D01*
X147252433Y-64642739D01*
X147099767Y-64871220D01*
X147066000Y-64952740D01*
X147032233Y-64871220D01*
X146879567Y-64642739D01*
X146685261Y-64448433D01*
X146456780Y-64295767D01*
X146202907Y-64190609D01*
X145933396Y-64137000D01*
X145658604Y-64137000D01*
X145389093Y-64190609D01*
X145135220Y-64295767D01*
X144906739Y-64448433D01*
X144712433Y-64642739D01*
X144559767Y-64871220D01*
X144526000Y-64952740D01*
X144492233Y-64871220D01*
X144339567Y-64642739D01*
X144145261Y-64448433D01*
X143916780Y-64295767D01*
X143835260Y-64262000D01*
X143916780Y-64228233D01*
X144145261Y-64075567D01*
X144339567Y-63881261D01*
X144492233Y-63652780D01*
X144597391Y-63398907D01*
X144651000Y-63129396D01*
X144651000Y-62854604D01*
X144597391Y-62585093D01*
X144529214Y-62420500D01*
X147062786Y-62420500D01*
X146994609Y-62585093D01*
G36*
X159694609Y-62585093D02*
G01*
X159641000Y-62854604D01*
X159641000Y-63129396D01*
X159655960Y-63204607D01*
X159210966Y-63649602D01*
X159179459Y-63675459D01*
X159120226Y-63747636D01*
X159076301Y-63801158D01*
X159033485Y-63881261D01*
X158999647Y-63944567D01*
X158952444Y-64100175D01*
X158941945Y-64206779D01*
X158902907Y-64190609D01*
X158633396Y-64137000D01*
X158358604Y-64137000D01*
X158089093Y-64190609D01*
X157835220Y-64295767D01*
X157606739Y-64448433D01*
X157412433Y-64642739D01*
X157259767Y-64871220D01*
X157226000Y-64952740D01*
X157192233Y-64871220D01*
X157039567Y-64642739D01*
X156845261Y-64448433D01*
X156616780Y-64295767D01*
X156535260Y-64262000D01*
X156616780Y-64228233D01*
X156845261Y-64075567D01*
X157039567Y-63881261D01*
X157192233Y-63652780D01*
X157297391Y-63398907D01*
X157351000Y-63129396D01*
X157351000Y-62854604D01*
X157297391Y-62585093D01*
X157229214Y-62420500D01*
X159762786Y-62420500D01*
X159694609Y-62585093D01*
X159694609Y-62585093D01*
G37*
X159694609Y-62585093D02*
X159641000Y-62854604D01*
X159641000Y-63129396D01*
X159655960Y-63204607D01*
X159210966Y-63649602D01*
X159179459Y-63675459D01*
X159120226Y-63747636D01*
X159076301Y-63801158D01*
X159033485Y-63881261D01*
X158999647Y-63944567D01*
X158952444Y-64100175D01*
X158941945Y-64206779D01*
X158902907Y-64190609D01*
X158633396Y-64137000D01*
X158358604Y-64137000D01*
X158089093Y-64190609D01*
X157835220Y-64295767D01*
X157606739Y-64448433D01*
X157412433Y-64642739D01*
X157259767Y-64871220D01*
X157226000Y-64952740D01*
X157192233Y-64871220D01*
X157039567Y-64642739D01*
X156845261Y-64448433D01*
X156616780Y-64295767D01*
X156535260Y-64262000D01*
X156616780Y-64228233D01*
X156845261Y-64075567D01*
X157039567Y-63881261D01*
X157192233Y-63652780D01*
X157297391Y-63398907D01*
X157351000Y-63129396D01*
X157351000Y-62854604D01*
X157297391Y-62585093D01*
X157229214Y-62420500D01*
X159762786Y-62420500D01*
X159694609Y-62585093D01*
M02*
